<svg width="31" height="30" viewBox="0 0 31 30" fill="none" xmlns="http://www.w3.org/2000/svg">
<g id="Box">
<path id="Vector" d="M4.46387 9.2998L15.5014 15.6873L26.4639 9.33727" stroke="#009981" stroke-width="1.5" stroke-linecap="round" stroke-linejoin="round"/>
<path id="Vector_2" d="M15.501 27.0125V15.675" stroke="#009981" stroke-width="1.5" stroke-linecap="round" stroke-linejoin="round"/>
<path id="Vector_3" d="M12.9133 3.1L6.23827 6.81254C4.72577 7.65004 3.48828 9.75001 3.48828 11.475V18.5375C3.48828 20.2625 4.72577 22.3625 6.23827 23.2L12.9133 26.9125C14.3383 27.7 16.6758 27.7 18.1008 26.9125L24.7758 23.2C26.2883 22.3625 27.5258 20.2625 27.5258 18.5375V11.475C27.5258 9.75001 26.2883 7.65004 24.7758 6.81254L18.1008 3.1C16.6633 2.3 14.3383 2.3 12.9133 3.1Z" stroke="#009981" stroke-width="1.5" stroke-linecap="round" stroke-linejoin="round"/>
<path id="Vector_4" d="M21.7511 16.5502V11.9753L9.88867 5.12524" stroke="#009981" stroke-width="1.5" stroke-linecap="round" stroke-linejoin="round"/>
</g>
</svg>
