<svg width="26" height="25" viewBox="0 0 26 25" fill="none" xmlns="http://www.w3.org/2000/svg">
<g id="vuesax/bold/shopping-cart">
<g id="shopping-cart">
<path id="Vector" d="M17.4269 23.4373C18.4337 23.4373 19.2498 22.6212 19.2498 21.6144C19.2498 20.6077 18.4337 19.7915 17.4269 19.7915C16.4202 19.7915 15.604 20.6077 15.604 21.6144C15.604 22.6212 16.4202 23.4373 17.4269 23.4373Z" fill="#FD475A"/>
<path id="Vector_2" d="M9.09391 23.4373C10.1007 23.4373 10.9168 22.6212 10.9168 21.6144C10.9168 20.6077 10.1007 19.7915 9.09391 19.7915C8.08714 19.7915 7.271 20.6077 7.271 21.6144C7.271 22.6212 8.08714 23.4373 9.09391 23.4373Z" fill="#FD475A"/>
<path id="Vector_3" d="M5.54183 4.10433L5.3335 6.65641C5.29183 7.146 5.67725 7.55225 6.16683 7.55225H22.1147C22.5522 7.55225 22.9168 7.21891 22.9481 6.78141C23.0835 4.93766 21.6772 3.43766 19.8335 3.43766H7.03141C6.92725 2.97933 6.71891 2.54183 6.396 2.17725C5.87516 1.62516 5.146 1.30225 4.396 1.30225H2.5835C2.15641 1.30225 1.80225 1.65641 1.80225 2.0835C1.80225 2.51058 2.15641 2.86475 2.5835 2.86475H4.396C4.71891 2.86475 5.021 3.00016 5.23975 3.22933C5.4585 3.46891 5.56266 3.78141 5.54183 4.10433Z" fill="#FD475A"/>
<path id="Vector_4" d="M21.8645 9.11475H5.88531C5.44781 9.11475 5.09364 9.44808 5.05198 9.87516L4.67698 14.4064C4.53114 16.1877 5.92698 17.7085 7.70823 17.7085H19.2916C20.8541 17.7085 22.2291 16.4272 22.3436 14.8647L22.6874 10.0002C22.7291 9.521 22.3541 9.11475 21.8645 9.11475Z" fill="#FD475A"/>
</g>
</g>
</svg>
