<svg xmlns="http://www.w3.org/2000/svg" width="15.316" height="19.403" viewBox="0 0 15.316 19.403">
  <g id="Group_7814" data-name="Group 7814" transform="translate(-124.78 -311.712)">
    <path id="Path_4175" data-name="Path 4175" d="M138.937,320.7c-.03-.042-.114-.037-.127.014a1.673,1.673,0,0,0,.029.664,2.327,2.327,0,0,1-.162,1.033,3.188,3.188,0,0,1-.645,1.371,1.122,1.122,0,0,1-.134.11.293.293,0,0,0-.038-.3c0-.05,0-.1,0-.151.013-.352.1-.708.113-1.057a5.079,5.079,0,0,0-.376-1.757,5.319,5.319,0,0,0-1.947-2.359c-.435-.331-.912-.623-1.309-.988a4.47,4.47,0,0,1-.994-1.662,5.083,5.083,0,0,1-.147-3.835c.018-.047-.053-.1-.1-.067a5.789,5.789,0,0,0-1.054.944c-.4.4-.842.767-1.22,1.183a10.953,10.953,0,0,0-1.771,2.943,14.832,14.832,0,0,0-1.05,3.171,6.767,6.767,0,0,0-.18,3.07c-.395.007-.788-.5-.976-.727a1.87,1.87,0,0,1-.456-1.257c.03-.021-.014-.139-.032-.128-.04-.017-.106.066-.107.075a4.344,4.344,0,0,0-1.406,3.107,5.6,5.6,0,0,0,1.013,4.4c1.807,2.135,5.371,2.772,8.3,2.586a7.519,7.519,0,0,0,3.622-1.2,5.147,5.147,0,0,0,1.937-2.842A7.3,7.3,0,0,0,138.937,320.7Z" transform="translate(0)" fill="#f4cf6f"/>
    <path id="Path_4176" data-name="Path 4176" d="M147.552,354.967c0-.055-.072-.073-.119-.042-.553.366-.649.837-1.255,1.146q-.059.03-.121.058c-.041.018-.082.036-.124.052a2.784,2.784,0,0,1-1.328.3,12.188,12.188,0,0,1,.359-1.476l.024-.088c.014-.372.046-.748.051-1.129,0-.029,0-.059,0-.088.123-1.232-.714-2.058-1.426-3.043l-.073-.069c-.492-.456-1.033-.877-1.542-1.272q-.051-.062-.1-.125a8.426,8.426,0,0,1-.542-.8c-.334-.547-1.068-1.157-.947-1.816a1.635,1.635,0,0,0,.042-.252c-.244.242-.594.744-.805,1a7.179,7.179,0,0,0-.784,1.209,9.893,9.893,0,0,0-.7,1.729c-.016.054-.032.108-.047.161a12.229,12.229,0,0,0-.385,5.114q.019.084.042.167a2.729,2.729,0,0,0,.279.655l-.115,0-.112,0q-.111-.006-.217-.019a3.138,3.138,0,0,1-1.862-.9q-.067-.065-.132-.133a6.07,6.07,0,0,1-.49-.589,2.048,2.048,0,0,0-.244.629c-.011.053-.02.1-.028.158-.007,1.219-.425,2.4.5,3.393q.047.074.1.145a5.938,5.938,0,0,0,3.717,1.978,8.779,8.779,0,0,0,4.531-.277,6.741,6.741,0,0,0,3.323-2.6A5.078,5.078,0,0,0,147.552,354.967Z" transform="translate(-8.724 -30.299)" fill="#f4a615"/>
    <path id="Path_4177" data-name="Path 4177" d="M160.19,391.938c-.741.2-1.733,1.325-2.535,1.313.118-.2.577-1.122.665-1.334a3.907,3.907,0,0,0,.248-.967,3.271,3.271,0,0,0-.352-1.857,12.45,12.45,0,0,0-1.1-1.651c-.208-.291-.4-.588-.61-.88a5.433,5.433,0,0,1-.46-1.038c-.019-.042-.1-.066-.128-.014-.249.472-.551.921-.815,1.386-.246.435-.4.9-.606,1.353a10.949,10.949,0,0,0-.791,2.991,6.369,6.369,0,0,0-.042,1.55,2.353,2.353,0,0,0,.163.587c.029.077.076.152.111.227.063.138-.147.074-.224.059a2.894,2.894,0,0,1-1.871-1.1c-.008-.037-.017-.074-.025-.11a.058.058,0,0,0-.071-.041c-.044,0-.1.025-.082.073a.866.866,0,0,0,.044.117,3.355,3.355,0,0,0,.417,1.044,3.242,3.242,0,0,0,1.013.9,4.5,4.5,0,0,0,3.019.622,6.75,6.75,0,0,0,2.86-.955A2.929,2.929,0,0,0,160.278,392C160.281,391.958,160.231,391.927,160.19,391.938Z" transform="translate(-23.531 -64.579)" fill="#e64f1e"/>
  </g>
</svg>
