<?xml version="1.0" standalone="no"?>
<!DOCTYPE svg PUBLIC "-//W3C//DTD SVG 1.1//EN" "http://www.w3.org/Graphics/SVG/1.1/DTD/svg11.dtd" >
<svg xmlns="http://www.w3.org/2000/svg" xmlns:xlink="http://www.w3.org/1999/xlink" version="1.1">
<metadata>
Created by FontForge 20170731 at Sat Jun 19 11:48:42 2021
 By Aleksey,,,
Copyright(c) Beijing Founder Electronics Co.,Ltd. ?vivo Co.,Ltd.
</metadata>
<defs>
<font id="vivotypeVNRegular" horiz-adv-x="782" vert-adv-y="1000" >
  <font-face 
    font-family="vivotypeVN Regular"
    font-weight="400"
    font-stretch="normal"
    units-per-em="1000"
    panose-1="2 0 5 0 0 0 0 0 0 0"
    ascent="750"
    descent="-250"
    x-height="500"
    cap-height="690"
    bbox="-665 -411 2530 1138"
    underline-thickness="50"
    underline-position="-175"
    unicode-range="U+0020-25CA"
  />
<missing-glyph horiz-adv-x="1000" vert-adv-y="0" 
 />
    <glyph glyph-name=".notdef" horiz-adv-x="1000" vert-adv-y="0" 
 />
    <glyph glyph-name="glyph1" horiz-adv-x="1000" vert-adv-y="0" 
 />
    <glyph glyph-name="nonmarkingreturn" horiz-adv-x="480" vert-adv-y="0" 
 />
    <glyph glyph-name="space" unicode=" " horiz-adv-x="303" vert-adv-y="0" 
 />
    <glyph glyph-name="space" horiz-adv-x="303" vert-adv-y="0" 
 />
    <glyph glyph-name="exclam" unicode="!" horiz-adv-x="331" 
d="M210 730l-15 -532h-59l-14 532h88zM108 40q-14 14 0 28l43 43q14 14 28 0l43 -43q14 -14 0 -28l-43 -43q-14 -14 -28 0z" />
    <glyph glyph-name="quotedbl" unicode="&#x22;" horiz-adv-x="358" 
d="M146 702l-17 -236q-1 -11 -12 -15q-10 -5 -22 -3q-19 2 -22 18l-17 236h90zM302 702l-17 -236q-1 -11 -12 -15q-10 -5 -22 -3q-19 2 -22 18l-17 236h90z" />
    <glyph glyph-name="numbersign" unicode="#" horiz-adv-x="850" 
d="M583 266h152l-16 -64h-152l-50 -202h-69l50 202h-217l-49 -202h-69l49 202h-154l16 64h154l43 174h-155l15 60h156l49 200h69l-49 -200h216l49 200h69l-49 -200h152l-15 -60h-152zM340 440l-43 -174h217l43 174h-217z" />
    <glyph glyph-name="dollar" unicode="$" horiz-adv-x="813" 
d="M695 182q0 -89 -60 -135t-184 -56v-129h-76v126q-140 3 -247 34v78q97 -29 260 -35q119 0 169 27q49 26 49 87q0 49 -33 75q-28 22 -106 44l-158 38q-96 27 -137 64q-47 43 -47 119q0 88 58 131q60 44 192 51v127h76v-126q119 -3 210 -25v-78q-106 26 -233 26
q-126 0 -173 -25q-42 -22 -42 -78q0 -47 34 -72q28 -21 102 -41l156 -38q98 -26 140 -64q50 -45 50 -125z" />
    <glyph glyph-name="percent" unicode="%" horiz-adv-x="863" 
d="M220 394q-162 0 -162 154t162 154q163 0 163 -154t-163 -154zM705 690l-474 -690h-85l472 690h87zM220 457q46 0 68 22t22 69q0 48 -22 70t-68 22q-89 1 -89 -92q0 -47 22 -69t67 -22zM643 -12q-163 0 -163 154t163 154q162 0 162 -154t-162 -154zM643 50q90 -1 89 92
q0 47 -22 69t-67 22q-46 0 -68 -22t-22 -69q0 -48 22 -70t68 -22z" />
    <glyph glyph-name="ampersand" unicode="&#x26;" horiz-adv-x="787" 
d="M287 -12q-239 0 -239 192q0 64 46 125q39 52 100 89q-50 37 -75 72q-28 40 -28 87q0 149 244 149q253 0 253 -149q0 -53 -63 -118q-52 -54 -126 -97l196 -141q47 39 85 90l59 -49q-30 -44 -79 -90l95 -67v-91l-153 110q-153 -112 -315 -112zM339 381q69 38 112 78
q54 50 54 91q0 44 -39 63q-40 20 -132 20q-84 0 -122 -18q-39 -19 -39 -62q0 -33 25 -61q17 -19 72 -59zM287 66q128 0 249 83l-285 203q-49 -29 -79 -68q-36 -47 -36 -98q0 -58 32 -87q37 -33 119 -33z" />
    <glyph glyph-name="quotesingle" unicode="'" horiz-adv-x="202" 
d="M146 702l-17 -236q-1 -11 -12 -15q-10 -5 -22 -3q-19 2 -22 18l-17 236h90z" />
    <glyph glyph-name="parenleft" unicode="(" horiz-adv-x="336" 
d="M196 -140q-138 219 -138 455q0 225 131 455h82q-135 -232 -135 -455q0 -235 143 -455h-83z" />
    <glyph glyph-name="parenright" unicode=")" horiz-adv-x="336" 
d="M58 -140q142 222 142 455q0 223 -135 455h83q131 -230 131 -455q0 -238 -139 -455h-82z" />
    <glyph glyph-name="asterisk" unicode="*" horiz-adv-x="528" 
d="M222 529l-164 32l25 73l154 -56l-14 152h83l-13 -153l151 58l27 -74l-163 -32l110 -118l-67 -46l-87 133l-85 -134l-68 46z" />
    <glyph glyph-name="plus" unicode="+" horiz-adv-x="565" 
d="M56 283v74h190v189h73v-189h190v-74h-190v-189h-73v189h-190z" />
    <glyph glyph-name="comma" unicode="," horiz-adv-x="282" 
d="M130 -167q-3 -12 -14 -18t-23 -4q-22 2 -22 22l30 269h93z" />
    <glyph glyph-name="hyphen" unicode="-" horiz-adv-x="453" 
d="M397 324v-70h-341v70h341z" />
    <glyph glyph-name="period" unicode="." horiz-adv-x="307" 
d="M97 39q-7 7 -7 14q0 5 7 14l42 42q6 7 14 7q7 0 14 -7l43 -42q7 -7 7 -14t-7 -14l-43 -42q-9 -7 -14 -7q-7 0 -14 7z" />
    <glyph glyph-name="slash" unicode="/" horiz-adv-x="436" 
d="M434 700l-369 -824h-83l369 824h83z" />
    <glyph glyph-name="zero" unicode="0" horiz-adv-x="750" 
d="M376 -12q-172 0 -249 96q-69 86 -69 261q0 176 69 262q77 95 249 95t248 -95q69 -86 69 -262q0 -175 -69 -261q-77 -96 -248 -96zM376 65q130 0 184 71q48 64 48 209q0 146 -48 209q-54 71 -184 71q-132 0 -183 -70t-49 -210q0 -144 49 -209q54 -71 183 -71z" />
    <glyph glyph-name="one" unicode="1" horiz-adv-x="445" 
d="M41 633l215 62q23 7 40 7q29 0 29 -35v-667h-82v617l-202 -59v75z" />
    <glyph glyph-name="two" unicode="2" horiz-adv-x="673" 
d="M67 108q0 98 30 145q36 57 139 90l152 43q77 24 107 47q41 31 41 83q0 59 -47 84t-158 25q-131 0 -244 -30v77q125 30 254 30q140 0 208 -41q73 -44 73 -142q0 -82 -52 -129q-43 -39 -145 -71l-156 -45q-70 -22 -95 -59q-23 -33 -23 -101v-37h451v-77h-535v108z" />
    <glyph glyph-name="three" unicode="3" horiz-adv-x="661" 
d="M286 -12q-146 0 -245 28v79q108 -30 244 -30q125 0 181 32q58 33 58 110q0 67 -41 95q-40 28 -134 28h-150v63l258 220h-401v77h487q40 0 40 -35q0 -26 -26 -48l-244 -206h65q103 0 162 -43q69 -50 69 -151q0 -219 -323 -219z" />
    <glyph glyph-name="four" unicode="4" horiz-adv-x="741" 
d="M509 0v180h-430q-47 2 -47 42q0 23 26 59l330 409h105l-355 -433h371v212h81v-212h65v-77h-65v-180h-81z" />
    <glyph glyph-name="five" unicode="5" horiz-adv-x="681" 
d="M306 -12q-134 0 -238 26v78q110 -27 240 -27q124 0 178 30q57 32 57 111q0 77 -47 109q-46 31 -157 31q-85 0 -209 -14q-32 -4 -45 9q-12 12 -8 43l37 306h468v-78h-401l-25 -206q124 15 204 15q127 0 194 -47q75 -53 75 -167q0 -123 -94 -176q-76 -43 -229 -43z" />
    <glyph glyph-name="six" unicode="6" horiz-adv-x="693" 
d="M382 428q134 0 198 -49q67 -51 67 -164q-1 -225 -279 -227q-163 0 -235 77q-75 81 -75 270q0 197 95 285q88 82 274 82q100 0 171 -19v-78q-77 20 -174 20q-141 0 -205 -51q-69 -55 -76 -190q96 41 239 44zM366 64q101 0 149 37q47 36 47 113q0 76 -41 107
q-42 32 -147 32q-136 -1 -234 -41q3 -135 55 -192q52 -56 171 -56z" />
    <glyph glyph-name="seven" unicode="7" horiz-adv-x="669" 
d="M27 690h553q56 0 56 -49q0 -23 -19 -54l-367 -587h-99l391 612h-515v78z" />
    <glyph glyph-name="eight" unicode="8" horiz-adv-x="731" 
d="M561 355q112 -49 112 -162q1 -208 -308 -205q-162 0 -236 51q-71 49 -71 149q0 58 37 109q31 43 81 71q-99 49 -99 149q0 185 295 185q146 0 218 -50q69 -48 69 -139q-1 -54 -29 -94q-29 -39 -69 -64zM370 625q-111 0 -161 -27q-47 -25 -47 -79q0 -49 43 -77
q33 -22 101 -35l180 -29q88 53 88 133q0 59 -46 86q-48 28 -158 28zM366 64q224 -3 222 130q0 48 -39 77q-36 27 -114 42l-182 30q-110 -59 -110 -149q0 -66 50 -97q53 -33 173 -33z" />
    <glyph glyph-name="nine" unicode="9" horiz-adv-x="693" 
d="M311 262q-134 0 -198 49q-67 51 -67 164q1 225 279 227q163 0 235 -77q75 -81 75 -270q0 -197 -95 -285q-88 -82 -274 -82q-100 0 -171 19v78q78 -20 174 -20q141 0 205 51q69 55 76 190q-63 -23 -107 -32q-59 -12 -132 -12zM327 626q-101 0 -149 -37q-47 -36 -47 -113
q0 -76 41 -107q42 -32 147 -32q69 0 127 11q47 9 107 30q-3 135 -55 192q-52 56 -171 56z" />
    <glyph glyph-name="colon" unicode=":" horiz-adv-x="308" 
d="M139 503q7 7 14 7q5 0 14 -7l43 -42q7 -7 7 -14t-7 -14l-43 -42q-7 -7 -14 -7q-8 0 -14 7l-42 42q-7 9 -7 14q0 7 7 14zM98 39q-7 7 -7 14q0 5 7 14l42 42q6 7 14 7q7 0 14 -7l43 -42q7 -7 7 -14t-7 -14l-43 -42q-9 -7 -14 -7q-7 0 -14 7z" />
    <glyph glyph-name="semicolon" unicode=";" horiz-adv-x="273" 
d="M131 503q7 7 14 7q5 0 14 -7l43 -42q7 -7 7 -14t-7 -14l-43 -42q-7 -7 -14 -7q-8 0 -14 7l-42 42q-7 9 -7 14q0 7 7 14zM133 -167q-3 -12 -14 -18q-12 -6 -24 -4q-21 2 -21 22l30 269h92z" />
    <glyph glyph-name="less" unicode="&#x3c;" horiz-adv-x="547" 
d="M56 367l435 155v-75l-351 -114l351 -115v-75l-435 155v69z" />
    <glyph glyph-name="equal" unicode="=" horiz-adv-x="529" 
d="M473 438v-73h-417v73h417zM473 276v-73h-417v73h417z" />
    <glyph glyph-name="greater" unicode="&#x3e;" horiz-adv-x="547" 
d="M407 333l-351 114v75l435 -155v-69l-435 -155v75z" />
    <glyph glyph-name="question" unicode="?" horiz-adv-x="669" 
d="M255 374q149 8 208 34q67 30 67 102q0 67 -62 93q-53 22 -171 22q-122 0 -244 -32v79q113 30 244 30q164 0 239 -41q84 -46 84 -154q0 -95 -75 -144q-68 -45 -204 -57v-109h-86v177zM239 40q-14 14 0 28l43 43q14 14 28 0l43 -43q14 -14 0 -28l-43 -43q-14 -14 -28 0z
" />
    <glyph glyph-name="at" unicode="@" horiz-adv-x="996" 
d="M451 -116q-192 0 -294 97q-99 94 -99 262q0 240 127 367q131 131 385 131q183 0 276 -79q92 -78 92 -228q0 -134 -40 -210q-41 -76 -121 -109q-102 -40 -269 -38q-105 0 -160 41q-64 48 -64 151q0 145 67 215q60 62 170 62q87 0 131 -32q64 -47 44 -163l-33 -199
q120 19 164 86q38 58 38 189q0 130 -73 188t-233 58q-215 0 -323 -110q-104 -106 -104 -314q0 -142 85 -219t244 -77q167 0 263 24l-11 -71q-91 -22 -262 -22zM512 142q43 0 79 3l37 213q13 71 -18 99q-26 24 -96 24q-92 0 -130 -63q-28 -47 -28 -143q0 -72 35 -102
q36 -31 121 -31z" />
    <glyph glyph-name="A" unicode="A" 
d="M595 190h-410l-79 -190h-88l270 637q28 65 103 65q73 3 102 -65l271 -637h-89zM218 268h344l-138 331q-10 25 -33 25q-25 0 -35 -25z" />
    <glyph glyph-name="B" unicode="B" horiz-adv-x="759" 
d="M574 352q41 -11 72 -41q48 -45 48 -118q0 -90 -60 -142q-59 -51 -159 -51h-374v690h369q94 0 150 -46q59 -48 59 -136q0 -65 -41 -111q-29 -33 -64 -45zM463 389q58 0 93 26q39 29 39 89q0 55 -34 83q-33 27 -94 27h-285v-225h281zM471 76q65 0 100 28q38 30 38 92
q0 61 -42 92q-35 26 -94 26h-291v-238h289z" />
    <glyph glyph-name="C" unicode="C" horiz-adv-x="707" 
d="M422 -12q-180 0 -269 82q-95 88 -95 275q0 192 96 278q88 79 271 79q129 0 221 -24v-78q-102 25 -217 25q-148 0 -214 -61q-71 -65 -71 -219q0 -147 71 -215q68 -65 214 -65q119 0 223 26v-79q-103 -24 -230 -24z" />
    <glyph glyph-name="D" unicode="D" horiz-adv-x="810" 
d="M448 690q139 0 218 -82q86 -89 86 -262t-86 -263q-79 -83 -218 -83h-347v690h347zM437 77q229 0 229 269q0 266 -230 266h-253v-535h254z" />
    <glyph glyph-name="E" unicode="E" horiz-adv-x="704" 
d="M612 388v-77h-429v-234h453v-77h-535v690h535v-78h-453v-224h429z" />
    <glyph glyph-name="F" unicode="F" horiz-adv-x="686" 
d="M615 381v-77h-432v-304h-82v690h535v-78h-453v-231h432z" />
    <glyph glyph-name="G" unicode="G" horiz-adv-x="785" 
d="M417 387h289v-380q0 -19 -16 -19q-9 0 -32 21l-25 23q-122 -44 -215 -44q-172 0 -260 76q-100 87 -100 280q0 195 101 281q90 77 281 77q123 0 249 -33v-79q-120 35 -248 35q-150 0 -219 -59q-78 -66 -78 -222q0 -157 74 -222q65 -57 211 -57q101 0 196 26v221h-208v75z
" />
    <glyph glyph-name="H" unicode="H" horiz-adv-x="833" 
d="M183 388h467v302h82v-690h-82v310h-467v-310h-82v690h82v-302z" />
    <glyph glyph-name="I" unicode="I" horiz-adv-x="283" 
d="M184 690v-690h-84v690h84z" />
    <glyph glyph-name="J" unicode="J" horiz-adv-x="538" 
d="M188 -12q-86 0 -168 22v78q76 -23 168 -23q99 0 140 36q37 32 37 105v484h82v-486q0 -102 -51 -153q-63 -63 -208 -63z" />
    <glyph glyph-name="K" unicode="K" horiz-adv-x="697" 
d="M180 0h-79v690h79v-316l372 316h108l-387 -330l427 -360h-120l-400 342v-342z" />
    <glyph glyph-name="L" unicode="L" horiz-adv-x="649" 
d="M101 0v690h82v-613h426v-77h-508z" />
    <glyph glyph-name="M" unicode="M" horiz-adv-x="970" 
d="M101 667q0 35 44 35q19 0 32 -7q12 -6 24 -24l285 -398l283 398q12 17 25 24t31 7q44 0 44 -35v-667h-82v567l-263 -368q-17 -24 -39 -24t-39 24l-264 368v-567h-81v667z" />
    <glyph glyph-name="N" unicode="N" horiz-adv-x="851" 
d="M712 -12q-19 0 -30 5t-23 18l-476 555v-566h-82v668q0 34 37 34q18 0 30 -5t23 -18l475 -555v567h83v-670q0 -33 -37 -33z" />
    <glyph glyph-name="O" unicode="O" horiz-adv-x="839" 
d="M484 702q138 0 218 -96q79 -95 79 -261q0 -167 -79 -262t-218 -95h-130q-138 0 -217 95t-79 262q0 165 79 261t217 96h130zM473 65q103 0 160 66q62 71 62 214t-62 214q-57 66 -160 66h-107q-103 0 -160 -66q-62 -72 -62 -214t62 -214q57 -66 160 -66h107z" />
    <glyph glyph-name="P" unicode="P" horiz-adv-x="714" 
d="M448 690q101 0 164 -57q65 -59 65 -158q-2 -103 -65 -159q-64 -55 -164 -56h-265v-260h-82v690h347zM442 338q71 0 110 35t39 102t-39 102t-110 35h-259v-274h259z" />
    <glyph glyph-name="Q" unicode="Q" horiz-adv-x="839" 
d="M781 345q-4 -252 -169 -331l94 -140h-98l-78 117q-22 -3 -46 -3h-130q-138 0 -217 95t-79 262q0 165 79 261t217 96h130q138 0 218 -96q79 -95 79 -261zM366 65h114q215 0 215 280q0 143 -62 214q-57 66 -160 66h-107q-103 0 -160 -66q-62 -72 -62 -214t62 -214
q57 -66 160 -66z" />
    <glyph glyph-name="R" unicode="R" horiz-adv-x="755" 
d="M183 0h-82v690h348q101 0 162 -56q63 -57 63 -154q0 -86 -50 -141q-48 -53 -130 -65l231 -274h-105l-222 270h-215v-270zM445 347q67 0 104 31q40 34 40 102q0 67 -41 101q-38 31 -104 31h-261v-265h262z" />
    <glyph glyph-name="S" unicode="S" horiz-adv-x="674" 
d="M321 -12q-142 0 -256 35v79q97 -31 254 -37q116 0 163 27q46 26 46 88q0 50 -33 76q-30 24 -105 42l-145 35q-92 23 -135 63q-47 44 -47 121q0 96 66 140q68 45 221 45q126 0 232 -25v-79q-110 27 -227 27q-153 0 -185 -40q-22 -25 -21 -65q0 -49 33 -74q28 -21 102 -39
l142 -34q96 -23 139 -63q50 -46 50 -127q0 -101 -73 -149q-71 -46 -221 -46z" />
    <glyph glyph-name="T" unicode="T" horiz-adv-x="712" 
d="M31 690h650v-78h-284v-612h-82v612h-284v78z" />
    <glyph glyph-name="U" unicode="U" horiz-adv-x="806" 
d="M403 -12q-312 0 -312 251v451h82v-442q0 -91 49 -134q55 -49 181 -49q128 0 182 49q48 43 48 134v442h82v-451q0 -117 -64 -178q-77 -73 -248 -73z" />
    <glyph glyph-name="V" unicode="V" horiz-adv-x="780" 
d="M391 -12q-38 0 -63 20q-23 18 -39 56l-269 626h90l250 -598q10 -24 31 -24q20 0 30 24l251 598h89l-269 -626q-17 -39 -38 -56q-25 -20 -63 -20z" />
    <glyph glyph-name="W" unicode="W" horiz-adv-x="1095" 
d="M297 -12q-30 0 -47 17q-14 14 -26 52l-202 633h86l190 -622l191 536q13 46 58 47q24 0 39 -13q12 -10 20 -34l192 -536l190 622h85l-202 -633q-12 -37 -27 -52q-17 -17 -47 -17q-29 0 -46 16q-15 14 -26 48l-178 504l-177 -504q-12 -34 -27 -48q-17 -16 -46 -16z" />
    <glyph glyph-name="X" unicode="X" horiz-adv-x="750" 
d="M36 690h99l220 -284q9 -11 20 -11q10 0 19 11l220 284h98l-263 -336l267 -354h-100l-221 295q-9 12 -20 12t-21 -12l-222 -295h-98l267 353z" />
    <glyph glyph-name="Y" unicode="Y" horiz-adv-x="735" 
d="M327 296q-16 6 -32 22q-9 9 -27 31l-257 341h97l227 -306q16 -22 33 -22q18 0 33 21l226 307h97l-256 -341q-33 -43 -59 -53v-296h-82v296z" />
    <glyph glyph-name="Z" unicode="Z" horiz-adv-x="688" 
d="M87 0q-36 0 -36 35q0 22 21 48l453 530h-457v77h538q18 0 27 -10t9 -25q0 -20 -23 -48l-452 -531h467v-76h-547z" />
    <glyph glyph-name="bracketleft" unicode="[" horiz-adv-x="430" 
d="M372 770v-75h-189v-760h189v-75h-271v910h271z" />
    <glyph glyph-name="backslash" unicode="\" horiz-adv-x="490" 
d="M20 700h83l369 -824h-83z" />
    <glyph glyph-name="bracketright" unicode="]" horiz-adv-x="430" 
d="M58 -65h189v760h-189v75h271v-910h-271v75z" />
    <glyph glyph-name="asciicircum" unicode="^" horiz-adv-x="591" 
d="M330 700l204 -416h-85l-154 319l-153 -319h-86l206 416h68z" />
    <glyph glyph-name="underscore" unicode="_" horiz-adv-x="513" 
d="M513 69v-69h-513v69h513z" />
    <glyph glyph-name="grave" unicode="`" horiz-adv-x="416" 
d="M246 730l63 -108q15 -31 -4 -39q-20 -9 -47 16l-126 131h114z" />
    <glyph glyph-name="a" unicode="a" horiz-adv-x="627" 
d="M262 -12q-92 0 -144 36q-58 40 -58 123q0 157 214 157q109 0 191 -28v38q0 66 -35 94q-40 32 -139 32q-95 0 -183 -23v73q86 22 198 22q133 0 191 -54q48 -45 48 -133v-317q0 -20 -18 -20q-12 0 -29 18l-30 33q-93 -51 -206 -51zM280 59q126 5 185 35v120q-68 20 -173 20
q-77 0 -111 -17q-38 -19 -38 -70q0 -46 32 -67q33 -21 105 -21z" />
    <glyph glyph-name="b" unicode="b" horiz-adv-x="683" 
d="M358 -12q-101 0 -193 46l-7 -34h-70v730h81v-269q35 21 85 35q58 16 116 16q120 0 186 -62q71 -67 71 -200q0 -134 -77 -201q-70 -61 -192 -61zM352 61q192 0 192 189q0 190 -187 190q-103 0 -188 -35v-309q26 -13 73 -23q56 -12 110 -12z" />
    <glyph glyph-name="c" unicode="c" horiz-adv-x="546" 
d="M334 -12q-134 0 -203 59q-75 64 -75 203q0 138 76 203q70 59 204 59q84 0 155 -19v-74q-72 21 -149 21q-102 0 -150 -40q-54 -45 -54 -150t53 -150q48 -40 151 -40q81 0 152 22v-74q-62 -20 -160 -20z" />
    <glyph glyph-name="d" unicode="d" horiz-adv-x="683" 
d="M595 8q0 -20 -18 -20q-12 0 -29 18l-32 33q-90 -51 -203 -51q-121 0 -186 62q-71 67 -71 201q0 133 77 200q70 61 192 61q100 0 190 -44v262h80v-722zM515 405q-24 12 -74 22q-58 12 -110 12q-192 0 -192 -189q0 -190 188 -190q101 0 188 36v309z" />
    <glyph glyph-name="e" unicode="e" horiz-adv-x="618" 
d="M559 300q0 -49 -5 -79h-418q7 -90 55 -126q47 -35 163 -35q96 0 175 28v-74q-65 -26 -181 -26q-156 0 -225 64q-67 62 -67 202q0 258 261 258q128 0 190 -65q52 -54 52 -147zM480 288q3 78 -36 115q-40 38 -128 38t-131 -37t-49 -116h344z" />
    <glyph glyph-name="f" unicode="f" horiz-adv-x="450" 
d="M32 500h109v82q0 83 38 120q41 40 139 40q65 0 105 -9v-72q-45 9 -97 9q-58 0 -80 -16q-25 -18 -25 -69v-85h201v-70h-201v-430h-80v430h-109v70z" />
    <glyph glyph-name="g" unicode="g" horiz-adv-x="683" 
d="M317 -242q-131 0 -210 29v73q92 -30 210 -30q107 0 155 40q43 36 43 111v58q-90 -51 -202 -51q-123 0 -188 62q-69 66 -69 201q0 134 75 200q69 61 194 61q105 0 195 -48l28 30q15 18 29 18q18 0 18 -21v-514q0 -110 -72 -165q-71 -54 -206 -54zM327 61q103 0 188 35v309
q-24 12 -74 22q-58 12 -110 12q-94 0 -141 -43q-51 -47 -51 -146q0 -98 49 -145q46 -44 139 -44z" />
    <glyph glyph-name="h" unicode="h" horiz-adv-x="668" 
d="M373 512q109 0 163 -49q50 -45 50 -130v-333h-81v313q0 63 -32 92q-36 33 -123 33q-114 -4 -181 -28v-410h-81v730h81v-263q99 45 204 45z" />
    <glyph glyph-name="i" unicode="i" horiz-adv-x="256" 
d="M114 728q13 14 27 0l44 -44q13 -15 0 -28l-44 -43q-13 -14 -27 0l-43 43q-14 12 0 28zM168 0h-80v500h80v-500z" />
    <glyph glyph-name="j" unicode="j" horiz-adv-x="270" 
d="M198 684q15 -15 0 -28l-43 -43q-14 -14 -28 0l-43 43q-13 13 0 28l43 44q13 15 28 0zM182 -80q0 -83 -47 -125q-42 -37 -115 -37q-18 0 -45 3v72q21 -3 35 -3q47 0 68 19q23 21 23 71v580h81v-580z" />
    <glyph glyph-name="k" unicode="k" horiz-adv-x="599" 
d="M171 0h-83v730h83v-451l279 221h119l-299 -232l329 -268h-122l-306 256v-256z" />
    <glyph glyph-name="l" unicode="l" horiz-adv-x="257" 
d="M169 0h-81v730h81v-730z" />
    <glyph glyph-name="m" unicode="m" horiz-adv-x="994" 
d="M720 512q192 0 192 -179v-333h-80v313q0 64 -26 92q-31 33 -107 33q-81 0 -168 -41q9 -29 9 -64v-333h-80v313q0 64 -26 92q-30 33 -106 33q-79 0 -159 -28v-410h-81v491q0 21 19 21q14 0 28 -18l28 -30q102 48 188 48q106 0 153 -60q115 60 216 60z" />
    <glyph glyph-name="n" unicode="n" horiz-adv-x="668" 
d="M88 491q0 21 19 21q14 0 28 -18l28 -30q102 48 210 48q109 0 163 -49q50 -45 50 -130v-333h-81v313q0 63 -32 92q-36 33 -123 33q-114 -4 -181 -28v-410h-81v491z" />
    <glyph glyph-name="o" unicode="o" horiz-adv-x="680" 
d="M303 -12q-116 0 -181 69q-66 70 -66 193q0 122 66 192t181 70h74q115 0 181 -70t66 -192q0 -123 -66 -193q-65 -69 -181 -69h-74zM372 60q82 0 125 47q44 48 44 143q0 190 -169 190h-65q-82 0 -125 -47q-44 -48 -44 -143t44 -143q43 -47 125 -47h65z" />
    <glyph glyph-name="p" unicode="p" horiz-adv-x="681" 
d="M88 491q0 21 19 21q12 0 28 -18l28 -32q98 50 205 50q123 0 188 -62q69 -66 69 -200q0 -135 -75 -201q-68 -60 -194 -60q-102 0 -188 43v-262h-80v721zM350 62q94 0 141 43q51 46 51 145q0 100 -48 146q-45 44 -139 44q-103 0 -188 -35v-309q55 -28 183 -34z" />
    <glyph glyph-name="q" unicode="q" horiz-adv-x="683" 
d="M577 512q18 0 18 -21v-721h-80v269q-90 -51 -202 -51q-123 0 -188 62q-69 66 -69 201q0 134 75 200q69 61 194 61q105 0 195 -48l28 30q15 18 29 18zM515 405q-24 12 -74 22q-58 12 -110 12q-94 0 -141 -43q-51 -47 -51 -146q0 -98 49 -145q46 -44 139 -44q103 0 188 35
v309z" />
    <glyph glyph-name="r" unicode="r" horiz-adv-x="447" 
d="M88 491q0 21 19 21q13 0 28 -18l30 -33q125 51 254 51v-80q-152 -4 -250 -22v-410h-81v491z" />
    <glyph glyph-name="s" unicode="s" horiz-adv-x="535" 
d="M267 -12q-126 0 -212 30v73q94 -32 207 -32q85 0 120 18q33 17 33 56q0 35 -25 52q-20 14 -71 23l-118 21q-76 14 -111 43q-39 33 -39 97q0 72 53 107q55 36 171 36q112 0 185 -22v-73q-81 24 -180 24q-84 0 -118 -18q-30 -16 -30 -51q-1 -60 93 -71l115 -20
q77 -13 113 -42q43 -34 43 -101q0 -78 -55 -114t-174 -36z" />
    <glyph glyph-name="t" unicode="t" horiz-adv-x="469" 
d="M316 -12q-95 0 -139 38q-45 39 -45 125v279h-106v70h106v146h79v-146h219v-70h-219v-267q0 -56 26 -79q27 -24 93 -24q49 0 105 14v-71q-52 -15 -119 -15z" />
    <glyph glyph-name="u" unicode="u" horiz-adv-x="653" 
d="M328 -12q-133 0 -193 58q-54 52 -54 158v296h79v-290q0 -77 36 -112q39 -38 132 -38t131 38q34 34 34 112v290h79v-296q0 -104 -51 -156q-59 -60 -193 -60z" />
    <glyph glyph-name="v" unicode="v" horiz-adv-x="630" 
d="M315 -12q-36 0 -57 18q-16 14 -31 46l-207 448h89l185 -418q7 -16 21 -16t21 16l186 418h88l-208 -448q-14 -31 -31 -46q-21 -18 -56 -18z" />
    <glyph glyph-name="w" unicode="w" horiz-adv-x="887" 
d="M250 -12q-49 0 -68 57l-156 455h83l142 -439l136 365q17 49 57 47q42 0 57 -47l138 -365l140 439h82l-154 -455q-19 -57 -68 -57q-26 0 -43 16q-15 14 -25 41l-127 340l-131 -340q-11 -30 -22 -41q-15 -16 -41 -16z" />
    <glyph glyph-name="x" unicode="x" horiz-adv-x="607" 
d="M28 500h95l159 -190q11 -12 21 -12q11 0 20 12l159 190h93l-204 -243l208 -257h-95l-161 199q-9 13 -20 13q-12 0 -21 -13l-161 -199h-94l208 256z" />
    <glyph glyph-name="y" unicode="y" horiz-adv-x="671" 
d="M304 -242q-128 0 -207 29v73q92 -30 207 -30q108 0 155 38q44 36 44 110v71q-95 -45 -207 -45q-215 0 -215 179v317h79v-297q0 -63 33 -92q37 -33 126 -33q118 4 184 28v394h80v-529q0 -213 -279 -213z" />
    <glyph glyph-name="z" unicode="z" horiz-adv-x="577" 
d="M85 0q-16 0 -26 11q-9 10 -9 25q0 22 19 42l350 351h-346v71h419q16 0 26 -11q9 -10 9 -26q0 -21 -20 -41l-349 -351h360v-71h-433z" />
    <glyph glyph-name="braceleft" unicode="{" horiz-adv-x="464" 
d="M305 -140q-82 0 -119 34q-39 35 -39 116v154q0 41 -6 69q-9 50 -65 50h-18v72h18q43 0 58 30q13 25 13 87v149q0 80 39 115q37 34 118 34h103v-71h-90q-51 0 -71 -19t-20 -75v-144q0 -58 -15 -90q-16 -35 -58 -52q41 -18 58 -53q15 -32 15 -90v-150q0 -56 21 -76
q19 -18 71 -18h89v-72h-102z" />
    <glyph glyph-name="bar" unicode="|" horiz-adv-x="258" 
d="M170 730v-854h-82v854h82z" />
    <glyph glyph-name="braceright" unicode="}" horiz-adv-x="464" 
d="M58 -68h89q52 0 71 18q21 20 21 76v150q0 60 14 90q16 35 58 53q-42 17 -58 52q-14 30 -14 90v144q0 56 -20 75t-71 19h-90v71h102q81 0 119 -34q39 -35 39 -115v-149q0 -62 13 -87q15 -30 58 -30h18v-72h-18q-56 0 -65 -50q-6 -28 -6 -69v-154q0 -80 -40 -116
q-38 -34 -119 -34h-101v72z" />
    <glyph glyph-name="asciitilde" unicode="~" horiz-adv-x="519" 
d="M357 238q-23 0 -83 16q-68 19 -100 19q-55 0 -118 -28v74q64 27 119 27q34 0 110 -20q53 -15 75 -15q57 0 103 31v-75q-56 -29 -106 -29z" />
    <glyph glyph-name="uni00A0" unicode="&#xa0;" horiz-adv-x="242" vert-adv-y="0" 
 />
    <glyph glyph-name="exclamdown" unicode="&#xa1;" horiz-adv-x="331" 
d="M151 571q14 14 28 0l43 -43q14 -14 0 -28l-43 -43q-14 -14 -28 0l-43 43q-14 14 0 28zM210 -160h-88l14 532h59z" />
    <glyph glyph-name="cent" unicode="&#xa2;" horiz-adv-x="541" 
d="M489 106q-46 -15 -134 -19v-110h-73v112q-109 10 -165 70q-61 65 -61 190q0 124 61 189q56 59 165 70v119h73v-117q75 -3 130 -18v-73q-71 19 -148 19q-99 0 -145 -39q-52 -44 -52 -150q0 -107 51 -151q45 -39 146 -39q84 0 152 21v-74z" />
    <glyph glyph-name="sterling" unicode="&#xa3;" horiz-adv-x="813" 
d="M98 0q-15 0 -15 11t14 21l61 40v251h-63q-15 1 -15 11q-1 10 12 18l66 43v73q0 127 69 179q72 54 254 54q132 0 224 -23v-77q-101 26 -225 26q-67 0 -113 -5t-73 -21q-54 -30 -52 -130v-75h327v-73h-327v-251h451v-72h-595z" />
    <glyph glyph-name="currency" unicode="&#xa4;" horiz-adv-x="715" 
d="M619 349q0 -94 -44 -153l84 -76l-48 -52l-88 80q-55 -35 -137 -35h-65q-78 0 -132 31l-83 -76l-50 52l79 72q-47 59 -47 157q0 97 48 159l-80 72l50 53l84 -79q54 31 131 31h65q80 0 136 -34l89 82l48 -53l-85 -77q45 -62 45 -154zM382 178q156 0 156 171q0 88 -40 130
q-39 41 -116 41h-56q-158 0 -158 -171t158 -171h56z" />
    <glyph glyph-name="yen" unicode="&#xa5;" horiz-adv-x="813" 
d="M365 160h-243v60h243v73h-243v60h200l-2 3l-232 334h77l219 -311q11 -15 18 -15q10 0 16 14l220 312h77l-231 -334l-2 -3h215v-60h-259v-73h258v-60h-258v-160h-73v160z" />
    <glyph glyph-name="brokenbar" unicode="&#xa6;" horiz-adv-x="258" 
d="M170 772v-340h-82v340h82zM170 258v-340h-82v340h82z" />
    <glyph glyph-name="section" unicode="&#xa7;" horiz-adv-x="665" 
d="M317 -161q-116 0 -200 29v75q95 -34 201 -34q76 0 111 16q33 15 33 45t-34 53q-16 11 -82 42l-128 60q-84 39 -113 64q-47 39 -47 96q0 53 47 93q39 33 123 66q-56 29 -80 55q-29 31 -29 71q0 132 227 132q116 0 203 -29v-75q-112 34 -203 34q-144 0 -144 -61
q0 -29 33 -52q19 -13 83 -43l127 -60q93 -43 119 -65q43 -36 43 -95q0 -54 -48 -94q-38 -32 -123 -65q56 -31 80 -56q29 -31 29 -70q0 -132 -228 -132zM368 134q84 34 116 56q41 28 41 62q0 30 -32 56q-24 19 -74 42l-123 56q-75 -29 -115 -56q-41 -26 -41 -61q0 -30 32 -55
q22 -17 73 -42z" />
    <glyph glyph-name="dieresis" unicode="&#xa8;" horiz-adv-x="518" 
d="M148 709q7 7 15 7t15 -7l41 -41q7 -7 7 -15q0 -7 -7 -15l-41 -41q-7 -7 -15 -7t-15 7l-41 41q-7 8 -7 15q0 8 7 15zM340 709q7 7 15 7t15 -7l41 -41q7 -7 7 -15q0 -7 -7 -15l-41 -41q-7 -7 -15 -7t-15 7l-41 41q-7 8 -7 15q0 8 7 15z" />
    <glyph glyph-name="copyright" unicode="&#xa9;" horiz-adv-x="610" 
d="M305 194q-122 0 -187 64q-66 65 -66 189q0 116 63 183q67 71 190 71t190 -71q63 -67 63 -183q0 -125 -65 -189t-188 -64zM305 248q91 0 141 45q56 50 56 154q0 100 -56 152q-51 47 -141 48q-89 1 -141 -48q-55 -52 -55 -152q0 -104 55 -154q50 -45 141 -45zM319 317
q-58 0 -88 24q-39 31 -39 105q0 71 36 102q31 27 93 27q40 0 61 -7v-48q-22 10 -61 10q-44 0 -62 -19t-18 -64q0 -49 24 -69q18 -15 57 -15q29 0 59 12v-48q-22 -10 -62 -10z" />
    <glyph glyph-name="ordfeminine" unicode="&#xaa;" horiz-adv-x="612" 
d="M255 178q-89 0 -139 36q-56 40 -56 123q0 156 206 156q107 0 183 -26v39q0 64 -34 92q-39 32 -131 32q-95 0 -176 -23v73q86 22 191 22q127 0 184 -54q47 -45 47 -131v-319q0 -20 -18 -20q-12 0 -29 18l-32 33q-43 -23 -76 -34q-54 -17 -120 -17zM273 249q122 5 176 35
v120q-66 20 -164 20q-73 0 -105 -17q-36 -19 -36 -71q0 -45 30 -66q31 -21 99 -21z" />
    <glyph glyph-name="guillemotleft" unicode="&#xab;" horiz-adv-x="537" 
d="M225 519l53 -41l-131 -196l131 -194l-53 -42l-169 236zM428 506l53 -39l-131 -185l131 -184l-53 -40l-169 224z" />
    <glyph glyph-name="logicalnot" unicode="&#xac;" horiz-adv-x="582" 
d="M56 267v72h470v-339h-75v267h-395z" />
    <glyph glyph-name="uni00AD" unicode="&#xad;" horiz-adv-x="453" 
d="M397 324v-70h-341v70h341z" />
    <glyph glyph-name="registered" unicode="&#xae;" horiz-adv-x="610" 
d="M305 194q-122 0 -187 64q-66 65 -66 189q0 116 63 183q67 71 190 71t190 -71q63 -67 63 -183q0 -125 -65 -189t-188 -64zM305 248q91 0 141 45q56 50 56 154q0 100 -56 152q-51 47 -141 48q-89 1 -141 -48q-55 -52 -55 -152q0 -104 55 -154q50 -45 141 -45zM211 325v243
h101q45 0 67 -15q26 -18 26 -61q0 -54 -54 -69l66 -98h-55l-57 92h-47v-92h-47zM258 456h55q42 0 42 35q0 19 -9 27q-10 9 -33 9h-55v-71z" />
    <glyph glyph-name="macron" unicode="&#xaf;" horiz-adv-x="510" 
d="M410 688v-65h-310v65h310z" />
    <glyph glyph-name="degree" unicode="&#xb0;" horiz-adv-x="512" 
d="M256 398q-99 0 -151 46q-49 43 -49 121q0 79 49 122q52 46 151 46q199 0 199 -168q0 -78 -48 -121q-52 -46 -151 -46zM256 459q125 0 125 106q0 51 -25 77q-30 31 -100 31q-65 0 -97 -31q-28 -27 -28 -77q0 -49 28 -76q32 -30 97 -30z" />
    <glyph glyph-name="plusminus" unicode="&#xb1;" horiz-adv-x="568" 
d="M59 325v74h190v189h73v-189h190v-74h-190v-189h-73v189h-190zM509 65v-65h-453v65h453z" />
    <glyph glyph-name="uni00B2" unicode="&#xb2;" horiz-adv-x="400" 
d="M49 453q-4 76 81 114l79 34q38 17 51 29q18 17 18 45q0 27 -22 38q-21 11 -67 11q-66 0 -135 -23v67q45 17 140 21q79 0 119 -25q42 -27 42 -85q0 -49 -27 -81q-22 -27 -68 -47l-83 -36q-30 -14 -41 -27q-11 -14 -11 -38v-23h227v-65h-303v91z" />
    <glyph glyph-name="uni00B3" unicode="&#xb3;" horiz-adv-x="385" 
d="M169 356q-63 0 -138 23v69q66 -26 138 -26q49 0 74 15q28 17 28 57q0 39 -24 56q-23 16 -76 16h-62v47l115 105h-188v64h274q24 0 30 -19q7 -20 -13 -37l-121 -110h3q59 -1 95 -27q43 -31 43 -95q0 -68 -46 -103t-132 -35z" />
    <glyph glyph-name="acute" unicode="&#xb4;" horiz-adv-x="416" 
d="M158 599q-25 -25 -46 -16q-22 10 -5 39l62 108h115z" />
    <glyph glyph-name="mu" unicode="&#xb5;" horiz-adv-x="653" 
d="M572 164q0 -83 -48 -128q-52 -48 -157 -48q-97 0 -198 45v-263h-81v730h82v-410q78 -28 173 -28q83 0 117 32q30 28 30 90v316h82v-336z" />
    <glyph glyph-name="paragraph" unicode="&#xb6;" horiz-adv-x="605" 
d="M264 303q-102 0 -156 54q-52 52 -52 146q0 93 55 143q60 54 181 54h80v-910h-75v513h-33zM503 700v-910h-75v910h75z" />
    <glyph glyph-name="periodcentered" unicode="&#xb7;" horiz-adv-x="307" 
d="M97 298q-7 7 -7 14q0 5 7 14l42 42q6 7 14 7q7 0 14 -7l43 -42q7 -7 7 -14t-7 -14l-43 -42q-9 -7 -14 -7q-7 0 -14 7z" />
    <glyph glyph-name="cedilla" unicode="&#xb8;" horiz-adv-x="455" 
d="M190 -242q-62 0 -90 5v57q32 -4 79 -4q93 0 93 33q0 18 -28 25q-32 8 -116 7l38 138h70l-19 -87q138 -6 138 -83q0 -43 -40 -66q-43 -25 -125 -25z" />
    <glyph glyph-name="uni00B9" unicode="&#xb9;" horiz-adv-x="258" 
d="M25 682v67l132 29q41 8 42 -32v-384h-74v341z" />
    <glyph glyph-name="ordmasculine" unicode="&#xba;" horiz-adv-x="666" 
d="M300 178q-116 0 -180 68t-64 194t64 194t180 68h66q116 0 180 -68t64 -194t-64 -194t-180 -68h-66zM362 250q164 0 164 190q0 98 -42 145q-40 45 -122 45h-57q-165 0 -165 -190t165 -190h57z" />
    <glyph glyph-name="guillemotright" unicode="&#xbb;" horiz-adv-x="537" 
d="M390 282l-131 196l53 41l169 -237l-169 -236l-53 42zM187 282l-131 185l53 39l169 -224l-169 -224l-53 40z" />
    <glyph glyph-name="onequarter" unicode="&#xbc;" horiz-adv-x="887" 
d="M127 0l520 700h82l-517 -700h-85zM204 659q18 4 30 -4t12 -25v-348h-74v309l-101 -19v61zM488 70q-24 0 -31 21q-6 20 10 40l207 247h86l-211 -251h152v76h75v-76h40v-57h-40v-70h-75v70h-213z" />
    <glyph glyph-name="onehalf" unicode="&#xbd;" horiz-adv-x="934" 
d="M717 700l-516 -700h-85l520 700h81zM71 572v61l133 26q19 5 30 -3q12 -8 12 -26v-348h-74v309zM556 82q-4 69 81 103l79 30q38 15 51 26q18 15 18 40t-22 35q-21 10 -67 10q-72 0 -135 -21v60q51 19 140 19q80 0 119 -22q42 -24 42 -77q0 -44 -27 -73q-21 -23 -68 -42
l-82 -32q-31 -12 -42 -24t-11 -34v-22h227v-58h-303v82z" />
    <glyph glyph-name="threequarters" unicode="&#xbe;" horiz-adv-x="939" 
d="M291 0h-85l520 700h82zM210 282q-59 0 -137 21v63q61 -24 137 -24q50 0 74 13q28 15 28 52q0 35 -24 50q-23 14 -75 14h-63v42l116 95h-188v58h274q23 0 30 -18q6 -17 -13 -33l-122 -99h6q58 0 93 -24q42 -28 42 -86q0 -60 -46 -92t-132 -32zM539 70q-24 0 -31 21
q-6 20 10 40l207 247h86l-211 -251h152v76h75v-76h40v-57h-40v-70h-75v70h-213z" />
    <glyph glyph-name="questiondown" unicode="&#xbf;" horiz-adv-x="604" 
d="M327 571q14 14 28 0l43 -43q14 -14 0 -28l-43 -43q-14 -14 -28 0l-43 43q-14 14 0 28zM383 196q-149 -8 -208 -34q-67 -30 -67 -102q0 -68 63 -94q51 -21 171 -21t244 32v-79q-115 -30 -245 -30q-164 0 -239 41q-84 46 -84 154q0 95 75 144q68 45 204 57v109h86v-177z
" />
    <glyph glyph-name="Agrave" unicode="&#xc0;" 
d="M418 812q15 -31 -4 -39q-20 -9 -47 16l-126 131h115zM595 190h-410l-79 -190h-88l270 637q28 65 103 65q73 3 102 -65l271 -637h-89zM218 268h344l-138 331q-10 25 -33 25q-25 0 -35 -25z" />
    <glyph glyph-name="Aacute" unicode="&#xc1;" 
d="M418 789q-25 -25 -46 -16q-22 10 -5 39l63 108h114zM595 190h-410l-79 -190h-88l270 637q28 65 103 65q73 3 102 -65l271 -637h-89zM218 268h344l-138 331q-10 25 -33 25q-25 0 -35 -25z" />
    <glyph glyph-name="Acircumflex" unicode="&#xc2;" 
d="M209 768l134 146q19 20 48 20q28 0 46 -20l133 -146h-87l-93 103l-93 -103h-88zM595 190h-410l-79 -190h-88l270 637q28 65 103 65q73 3 102 -65l271 -637h-89zM218 268h344l-138 331q-10 25 -33 25q-25 0 -35 -25z" />
    <glyph glyph-name="Atilde" unicode="&#xc3;" 
d="M319 832q-19 0 -36 -12q-15 -11 -22 -23l-48 40q13 25 37 41q29 20 66 20t84 -28q32 -19 50 -19q19 0 39 16q16 13 27 31l49 -40q-16 -26 -45 -46q-34 -24 -66 -24q-26 0 -47 8q-10 4 -36 18q-34 18 -52 18zM595 190h-410l-79 -190h-88l270 637q28 65 103 65
q73 3 102 -65l271 -637h-89zM218 268h344l-138 331q-10 25 -33 25q-25 0 -35 -25z" />
    <glyph glyph-name="Adieresis" unicode="&#xc4;" 
d="M238 828q-7 8 -7 15q0 8 7 15l41 41q7 7 15 7t15 -7l41 -41q7 -7 7 -15q0 -7 -7 -15l-41 -41q-7 -7 -15 -7t-15 7zM430 828q-7 8 -7 15q0 8 7 15l41 41q7 7 15 7t15 -7l41 -41q7 -7 7 -15q0 -7 -7 -15l-41 -41q-7 -7 -15 -7t-15 7zM595 190h-410l-79 -190h-88l270 637
q28 65 103 65q73 3 102 -65l271 -637h-89zM218 268h344l-138 331q-10 25 -33 25q-25 0 -35 -25z" />
    <glyph glyph-name="Aring" unicode="&#xc5;" 
d="M391 762q-64 0 -97 26q-30 24 -30 66q0 44 30 68q32 25 97 25q63 0 94 -25q30 -24 30 -68t-29 -67q-31 -25 -95 -25zM391 896q-39 0 -54 -12q-12 -10 -12 -30q0 -42 66 -42q36 0 51 13q12 10 12 29q0 20 -12 30q-14 12 -51 12zM595 190h-410l-79 -190h-88l270 637
q28 65 103 65q73 3 102 -65l271 -637h-89zM218 268h344l-138 331q-10 25 -33 25q-25 0 -35 -25z" />
    <glyph glyph-name="AE" unicode="&#xc6;" horiz-adv-x="1129" 
d="M634 388h402v-77h-402v-234h426v-77h-509v213h-352l-92 -213h-89l276 622q16 36 40 51q26 17 73 17h653v-77h-426v-225zM551 612h-142q-35 0 -45 -23l-130 -298h317v321z" />
    <glyph glyph-name="Ccedilla" unicode="&#xc7;" horiz-adv-x="706" 
d="M651 11q-56 -12 -75 -15q-52 -7 -129 -8l-12 -56q138 -6 138 -83q0 -42 -41 -66q-43 -25 -124 -25q-62 0 -90 5v57q32 -4 79 -4q92 0 92 33q0 18 -28 25q-32 8 -115 7l29 109q-158 13 -235 96q-82 88 -82 260q0 192 99 278q90 78 279 78q112 0 209 -23v-78
q-98 24 -206 24q-152 0 -220 -60q-74 -65 -74 -219q0 -148 74 -216q71 -65 220 -65q112 0 212 25v-79z" />
    <glyph glyph-name="Egrave" unicode="&#xc8;" horiz-adv-x="704" 
d="M412 812q16 -31 -4 -39q-20 -9 -46 16l-126 131h114zM612 388v-77h-429v-234h453v-77h-535v690h535v-78h-453v-224h429z" />
    <glyph glyph-name="Eacute" unicode="&#xc9;" horiz-adv-x="702" 
d="M402 789q-26 -25 -46 -16q-19 8 -4 39l62 108h115zM185 388h425v-77h-425v-234h449v-77h-533v690h533v-77h-449v-225z" />
    <glyph glyph-name="Ecircumflex" unicode="&#xca;" horiz-adv-x="704" 
d="M194 768l134 146q18 20 47 20q28 0 46 -20l134 -146h-88l-93 103l-93 -103h-87zM612 388v-77h-429v-234h453v-77h-535v690h535v-78h-453v-224h429z" />
    <glyph glyph-name="Edieresis" unicode="&#xcb;" horiz-adv-x="704" 
d="M223 828q-8 8 -8 15t8 15l40 41q8 7 16 7q7 0 15 -7l40 -41q8 -7 8 -15q0 -7 -8 -15l-40 -41q-9 -7 -15 -7q-8 0 -16 7zM415 828q-8 8 -8 15t8 15l40 41q8 7 15 7q8 0 16 -7l40 -41q8 -7 8 -15q0 -7 -8 -15l-40 -41q-9 -7 -16 -7t-15 7zM612 388v-77h-429v-234h453v-77
h-535v690h535v-78h-453v-224h429z" />
    <glyph glyph-name="Igrave" unicode="&#xcc;" horiz-adv-x="283" 
d="M108 920l62 -108q15 -31 -4 -39q-20 -9 -47 16l-126 131h115zM184 690v-690h-84v690h84z" />
    <glyph glyph-name="Iacute" unicode="&#xcd;" horiz-adv-x="283" 
d="M170 789q-25 -25 -46 -16q-22 10 -5 39l63 108h114zM99 690h85v-690h-85v690z" />
    <glyph glyph-name="Icircumflex" unicode="&#xce;" horiz-adv-x="283" 
d="M95 914q19 20 48 20q28 0 46 -20l133 -146h-87l-93 103l-93 -103h-88zM184 690v-690h-84v690h84z" />
    <glyph glyph-name="Idieresis" unicode="&#xcf;" horiz-adv-x="283" 
d="M31 899q7 7 15 7t15 -7l41 -41q7 -7 7 -15q0 -7 -7 -15l-41 -41q-7 -7 -15 -7t-15 7l-41 41q-7 8 -7 15q0 8 7 15zM223 899q7 7 15 7t15 -7l41 -41q7 -7 7 -15q0 -7 -7 -15l-41 -41q-7 -7 -15 -7t-15 7l-41 41q-7 8 -7 15q0 8 7 15zM184 690v-690h-84v690h84z" />
    <glyph glyph-name="Eth" unicode="&#xd0;" horiz-adv-x="813" 
d="M444 690q143 0 223 -81q88 -89 88 -262q0 -175 -88 -265q-80 -82 -223 -82h-343v312h-62v64h62v314h343zM434 77q233 0 233 270q0 266 -234 266h-248v-237h168v-64h-168v-235h249z" />
    <glyph glyph-name="Ntilde" unicode="&#xd1;" horiz-adv-x="851" 
d="M489 788q-38 0 -82 26q-34 18 -52 18q-19 0 -37 -12q-14 -9 -22 -23l-47 40q11 24 37 41q29 20 65 20q38 0 85 -28q32 -19 50 -19q20 0 39 16q15 12 26 31l50 -40q-16 -26 -45 -46q-34 -24 -67 -24zM712 -12q-19 0 -30 5t-23 18l-476 555v-566h-82v668q0 34 37 34
q18 0 30 -5t23 -18l475 -555v567h83v-670q0 -33 -37 -33z" />
    <glyph glyph-name="Ograve" unicode="&#xd2;" horiz-adv-x="839" 
d="M384 920l62 -108q15 -31 -4 -39q-20 -9 -47 16l-126 131h115zM484 702q138 0 218 -96q79 -95 79 -261q0 -167 -79 -262t-218 -95h-130q-138 0 -217 95t-79 262q0 165 79 261t217 96h130zM473 65q103 0 160 66q62 71 62 214t-62 214q-57 66 -160 66h-107q-103 0 -160 -66
q-62 -72 -62 -214t62 -214q57 -66 160 -66h107z" />
    <glyph glyph-name="Oacute" unicode="&#xd3;" horiz-adv-x="839" 
d="M446 789q-25 -25 -46 -16q-22 10 -5 39l63 108h114zM484 702q138 0 218 -96q79 -95 79 -261q0 -167 -79 -262t-218 -95h-130q-138 0 -217 95t-79 262q0 165 79 261t217 96h130zM473 65q103 0 160 66q62 71 62 214t-62 214q-57 66 -160 66h-107q-103 0 -160 -66
q-62 -72 -62 -214t62 -214q57 -66 160 -66h107z" />
    <glyph glyph-name="Ocircumflex" unicode="&#xd4;" horiz-adv-x="839" 
d="M371 914q19 20 48 20q28 0 46 -20l133 -146h-87l-93 103l-93 -103h-88zM484 702q138 0 218 -96q79 -95 79 -261q0 -167 -79 -262t-218 -95h-130q-138 0 -217 95t-79 262q0 165 79 261t217 96h130zM473 65q103 0 160 66q62 71 62 214t-62 214q-57 66 -160 66h-107
q-103 0 -160 -66q-62 -72 -62 -214t62 -214q57 -66 160 -66h107z" />
    <glyph glyph-name="Otilde" unicode="&#xd5;" horiz-adv-x="839" 
d="M482 788q-26 0 -47 8q-10 4 -36 18q-34 18 -52 18q-19 0 -36 -12q-15 -11 -22 -23l-48 40q13 25 37 41q29 20 66 20t84 -28q32 -19 50 -19q19 0 39 16q16 13 27 31l49 -40q-16 -26 -45 -46q-34 -24 -66 -24zM484 702q138 0 218 -96q79 -95 79 -261q0 -167 -79 -262
t-218 -95h-130q-138 0 -217 95t-79 262q0 165 79 261t217 96h130zM473 65q103 0 160 66q62 71 62 214t-62 214q-57 66 -160 66h-107q-103 0 -160 -66q-62 -72 -62 -214t62 -214q57 -66 160 -66h107z" />
    <glyph glyph-name="Odieresis" unicode="&#xd6;" horiz-adv-x="839" 
d="M307 899q7 7 15 7t15 -7l41 -41q7 -7 7 -15q0 -7 -7 -15l-41 -41q-7 -7 -15 -7t-15 7l-41 41q-7 8 -7 15q0 8 7 15zM499 899q7 7 15 7t15 -7l41 -41q7 -7 7 -15q0 -7 -7 -15l-41 -41q-7 -7 -15 -7t-15 7l-41 41q-7 8 -7 15q0 8 7 15zM484 702q138 0 218 -96
q79 -95 79 -261q0 -167 -79 -262t-218 -95h-130q-138 0 -217 95t-79 262q0 165 79 261t217 96h130zM473 65q103 0 160 66q62 71 62 214t-62 214q-57 66 -160 66h-107q-103 0 -160 -66q-62 -72 -62 -214t62 -214q57 -66 160 -66h107z" />
    <glyph glyph-name="multiply" unicode="&#xd7;" horiz-adv-x="485" 
d="M56 450l52 53l134 -135l134 135l53 -53l-135 -134l135 -133l-53 -52l-134 133l-134 -133l-52 52l134 133z" />
    <glyph glyph-name="Oslash" unicode="&#xd8;" horiz-adv-x="834" 
d="M686 619q90 -95 90 -274q0 -168 -80 -263q-79 -94 -219 -94h-120q-77 0 -139 31l-72 -93l-66 48l73 92q-95 93 -95 279q0 168 80 263q79 94 219 94h120q82 0 143 -33l75 96l66 -49zM466 65q104 0 161 65q62 71 62 215t-62 215q-57 65 -161 65h-98q-104 0 -161 -65
q-62 -71 -62 -215t62 -215q57 -65 161 -65h98z" />
    <glyph glyph-name="Ugrave" unicode="&#xd9;" horiz-adv-x="806" 
d="M369 920l63 -108q15 -31 -4 -39q-20 -9 -47 16l-126 131h114zM403 -12q-312 0 -312 251v451h82v-442q0 -91 49 -134q55 -49 181 -49q128 0 182 49q48 43 48 134v442h82v-451q0 -117 -64 -178q-77 -73 -248 -73z" />
    <glyph glyph-name="Uacute" unicode="&#xda;" horiz-adv-x="806" 
d="M431 789q-26 -25 -46 -16q-20 8 -4 39l62 108h115zM403 -12q-312 0 -312 251v451h82v-442q0 -91 49 -134q55 -49 181 -49q128 0 182 49q48 43 48 134v442h82v-451q0 -117 -64 -178q-77 -73 -248 -73z" />
    <glyph glyph-name="Ucircumflex" unicode="&#xdb;" horiz-adv-x="806" 
d="M357 914q18 20 47 20q28 0 46 -20l134 -146h-88l-92 103l-94 -103h-87zM403 -12q-312 0 -312 251v451h82v-442q0 -91 49 -134q55 -49 181 -49q128 0 182 49q48 43 48 134v442h82v-451q0 -117 -64 -178q-77 -73 -248 -73z" />
    <glyph glyph-name="Udieresis" unicode="&#xdc;" horiz-adv-x="806" 
d="M292 899q8 7 16 7q7 0 15 -7l40 -41q8 -7 8 -15q0 -7 -8 -15l-40 -41q-9 -7 -15 -7q-8 0 -16 7l-40 41q-8 8 -8 15t8 15zM484 899q8 7 16 7q7 0 15 -7l40 -41q8 -7 8 -15q0 -7 -8 -15l-40 -41q-9 -7 -15 -7q-8 0 -16 7l-40 41q-8 8 -8 15t8 15zM403 -12q-312 0 -312 251
v451h82v-442q0 -91 49 -134q55 -49 181 -49q128 0 182 49q48 43 48 134v442h82v-451q0 -117 -64 -178q-77 -73 -248 -73z" />
    <glyph glyph-name="Yacute" unicode="&#xdd;" horiz-adv-x="735" 
d="M395 789q-26 -25 -46 -16q-20 8 -4 39l62 108h115zM327 296q-28 11 -59 53l-257 341h97l227 -306q16 -22 33 -22q18 0 33 21l226 307h97l-256 -341q-33 -43 -59 -53v-296h-82v296z" />
    <glyph glyph-name="Thorn" unicode="&#xde;" horiz-adv-x="708" 
d="M441 575q105 0 169 -56q66 -58 66 -157q0 -100 -67 -158q-64 -56 -168 -56h-256v-148h-84v690h84v-115h256zM436 225q72 0 112 35t40 102t-40 102q-39 34 -112 34h-251v-273h251z" />
    <glyph glyph-name="germandbls" unicode="&#xdf;" horiz-adv-x="739" 
d="M88 511q0 103 64 157q70 59 220 59q143 0 214 -49q70 -48 70 -139q0 -70 -37 -111q-30 -34 -92 -54q73 -13 108 -44q48 -43 48 -135q0 -111 -87 -158q-69 -37 -211 -37h-140v70h140q114 0 160 25q54 29 54 107t-64 110q-50 25 -152 25h-86v73h65q102 0 154 28
q56 30 56 97q0 60 -42 88q-48 32 -159 32q-110 0 -158 -39q-43 -35 -43 -108v-508h-82v511z" />
    <glyph glyph-name="agrave" unicode="&#xe0;" horiz-adv-x="627" 
d="M278 730l63 -108q15 -31 -4 -39q-20 -9 -47 16l-126 131h114zM262 -12q-92 0 -144 36q-58 40 -58 123q0 157 214 157q109 0 191 -28v38q0 66 -35 94q-40 32 -139 32q-95 0 -183 -23v73q86 22 198 22q133 0 191 -54q48 -45 48 -133v-317q0 -20 -18 -20q-12 0 -29 18
l-30 33q-93 -51 -206 -51zM280 59q126 5 185 35v120q-68 20 -173 20q-77 0 -111 -17q-38 -19 -38 -70q0 -46 32 -67q33 -21 105 -21z" />
    <glyph glyph-name="aacute" unicode="&#xe1;" horiz-adv-x="627" 
d="M341 599q-25 -25 -46 -16q-22 10 -5 39l62 108h115zM262 -12q-92 0 -144 36q-58 40 -58 123q0 157 214 157q109 0 191 -28v38q0 66 -35 94q-40 32 -139 32q-95 0 -183 -23v73q86 22 198 22q133 0 191 -54q48 -45 48 -133v-317q0 -20 -18 -20q-12 0 -29 18l-30 33
q-93 -51 -206 -51zM280 59q126 5 185 35v120q-68 20 -173 20q-77 0 -111 -17q-38 -19 -38 -70q0 -46 32 -67q33 -21 105 -21z" />
    <glyph glyph-name="acircumflex" unicode="&#xe2;" horiz-adv-x="627" 
d="M266 724q17 19 47 19t46 -19l134 -146h-87l-93 103l-94 -103h-87zM262 -12q-92 0 -144 36q-58 40 -58 123q0 157 214 157q109 0 191 -28v38q0 66 -35 94q-40 32 -139 32q-95 0 -183 -23v73q86 22 198 22q133 0 191 -54q48 -45 48 -133v-317q0 -20 -18 -20q-12 0 -29 18
l-30 33q-93 -51 -206 -51zM280 59q126 5 185 35v120q-68 20 -173 20q-77 0 -111 -17q-38 -19 -38 -70q0 -46 32 -67q33 -21 105 -21z" />
    <glyph glyph-name="atilde" unicode="&#xe3;" horiz-adv-x="627" 
d="M377 598q-26 0 -47 8q-10 4 -36 18q-34 18 -52 18q-19 0 -36 -12q-15 -11 -22 -23l-48 40q13 24 37 41q29 20 65 20q38 0 85 -28q32 -19 50 -19q19 0 39 16q16 13 27 31l49 -40q-16 -26 -45 -46q-34 -24 -66 -24zM262 -12q-92 0 -144 36q-58 40 -58 123q0 157 214 157
q109 0 191 -28v38q0 66 -35 94q-40 32 -139 32q-95 0 -183 -23v73q86 22 198 22q133 0 191 -54q48 -45 48 -133v-317q0 -20 -18 -20q-12 0 -29 18l-30 33q-93 -51 -206 -51zM280 59q126 5 185 35v120q-68 20 -173 20q-77 0 -111 -17q-38 -19 -38 -70q0 -46 32 -67
q33 -21 105 -21z" />
    <glyph glyph-name="adieresis" unicode="&#xe4;" horiz-adv-x="627" 
d="M202 709q7 7 15 7t15 -7l41 -41q7 -7 7 -15q0 -7 -7 -15l-41 -41q-7 -7 -15 -7t-15 7l-41 41q-7 8 -7 15q0 8 7 15zM394 709q7 7 15 7q7 0 15 -7l40 -41q8 -7 8 -15q0 -7 -8 -15l-40 -41q-9 -7 -15 -7q-8 0 -15 7l-41 41q-7 8 -7 15q0 8 7 15zM262 -12q-92 0 -144 36
q-58 40 -58 123q0 157 214 157q109 0 191 -28v38q0 66 -35 94q-40 32 -139 32q-95 0 -183 -23v73q86 22 198 22q133 0 191 -54q48 -45 48 -133v-317q0 -20 -18 -20q-12 0 -29 18l-30 33q-93 -51 -206 -51zM280 59q126 5 185 35v120q-68 20 -173 20q-77 0 -111 -17
q-38 -19 -38 -70q0 -46 32 -67q33 -21 105 -21z" />
    <glyph glyph-name="aring" unicode="&#xe5;" horiz-adv-x="627" 
d="M314 572q-64 0 -97 26q-30 24 -30 66q0 43 30 67q33 26 97 26q62 0 94 -26q30 -24 30 -67q0 -44 -29 -67q-31 -25 -95 -25zM314 622q63 0 63 42q0 20 -12 30q-15 12 -51 12q-39 0 -54 -12q-12 -10 -12 -30q0 -42 66 -42zM262 -12q-92 0 -144 36q-58 40 -58 123
q0 157 214 157q109 0 191 -28v38q0 66 -35 94q-40 32 -139 32q-95 0 -183 -23v73q86 22 198 22q133 0 191 -54q48 -45 48 -133v-317q0 -20 -18 -20q-12 0 -29 18l-30 33q-93 -51 -206 -51zM280 59q126 5 185 35v120q-68 20 -173 20q-77 0 -111 -17q-38 -19 -38 -70
q0 -46 32 -67q33 -21 105 -21z" />
    <glyph glyph-name="ae" unicode="&#xe6;" horiz-adv-x="992" 
d="M255 -12q-89 0 -139 36q-56 40 -56 123q0 156 206 156q107 0 183 -26v38q0 64 -36 93q-39 32 -132 32q-95 0 -176 -23v73q86 22 190 22q83 0 131 -22q47 -22 71 -68q54 90 203 90q125 0 185 -64q51 -54 51 -147q0 -47 -6 -80h-403q7 -89 54 -125t158 -36q90 0 166 26v-73
q-68 -25 -173 -25q-168 0 -229 74q-62 -39 -113 -55q-59 -19 -135 -19zM855 288q3 78 -34 115q-38 38 -121 38q-85 0 -126 -36q-42 -37 -47 -117h328zM273 59q111 0 201 49q-19 41 -25 106q-66 20 -164 20q-73 0 -105 -17q-36 -19 -36 -71q0 -45 30 -66q31 -21 99 -21z" />
    <glyph glyph-name="ccedilla" unicode="&#xe7;" horiz-adv-x="544" 
d="M300 -242q-63 0 -91 5v57q32 -4 79 -4q93 0 93 33q0 18 -28 25q-32 8 -116 7l31 111q-212 26 -212 258q0 138 75 203q68 59 200 59q88 0 157 -19v-73q-75 20 -151 20q-99 0 -145 -39q-52 -44 -52 -151t51 -151q45 -39 146 -39q87 0 155 21v-74q-60 -18 -154 -19l-12 -56
q139 -6 139 -83q0 -42 -41 -66q-43 -25 -124 -25z" />
    <glyph glyph-name="egrave" unicode="&#xe8;" horiz-adv-x="618" 
d="M337 622q15 -31 -4 -39q-20 -9 -47 16l-126 131h115zM559 300q0 -49 -5 -79h-418q7 -90 55 -126q47 -35 163 -35q96 0 175 28v-74q-65 -26 -181 -26q-156 0 -225 64q-67 62 -67 202q0 258 261 258q128 0 190 -65q52 -54 52 -147zM480 288q3 78 -36 115q-40 38 -128 38
t-131 -37t-49 -116h344z" />
    <glyph glyph-name="eacute" unicode="&#xe9;" horiz-adv-x="618" 
d="M337 599q-25 -25 -46 -16q-22 10 -5 39l63 108h114zM559 300q0 -49 -5 -79h-418q7 -90 55 -126q47 -35 163 -35q96 0 175 28v-74q-65 -26 -181 -26q-156 0 -225 64q-67 62 -67 202q0 258 261 258q128 0 190 -65q52 -54 52 -147zM480 288q3 78 -36 115q-40 38 -128 38
t-131 -37t-49 -116h344z" />
    <glyph glyph-name="ecircumflex" unicode="&#xea;" horiz-adv-x="618" 
d="M133 578l134 146q18 19 48 19q29 0 46 -19l133 -146h-87l-93 103l-93 -103h-88zM559 300q0 -49 -5 -79h-418q7 -90 55 -126q47 -35 163 -35q96 0 175 28v-74q-65 -26 -181 -26q-156 0 -225 64q-67 62 -67 202q0 258 261 258q128 0 190 -65q52 -54 52 -147zM480 288
q3 78 -36 115q-40 38 -128 38t-131 -37t-49 -116h344z" />
    <glyph glyph-name="edieresis" unicode="&#xeb;" horiz-adv-x="618" 
d="M157 638q-7 8 -7 15q0 8 7 15l41 41q7 7 15 7t15 -7l41 -41q7 -7 7 -15q0 -7 -7 -15l-41 -41q-7 -7 -15 -7t-15 7zM349 638q-7 8 -7 15q0 8 7 15l41 41q7 7 15 7t15 -7l41 -41q7 -7 7 -15q0 -7 -7 -15l-41 -41q-7 -7 -15 -7t-15 7zM559 300q0 -49 -5 -79h-418
q7 -90 55 -126q47 -35 163 -35q96 0 175 28v-74q-65 -26 -181 -26q-156 0 -225 64q-67 62 -67 202q0 258 261 258q128 0 190 -65q52 -54 52 -147zM480 288q3 78 -36 115q-40 38 -128 38t-131 -37t-49 -116h344z" />
    <glyph glyph-name="igrave" unicode="&#xec;" horiz-adv-x="258" 
d="M95 730l62 -108q15 -31 -4 -39q-20 -9 -47 16l-126 131h115zM170 500v-500h-82v500h82z" />
    <glyph glyph-name="iacute" unicode="&#xed;" horiz-adv-x="258" 
d="M157 599q-25 -25 -46 -16q-22 10 -5 39l63 108h114zM170 500v-500h-82v500h82z" />
    <glyph glyph-name="icircumflex" unicode="&#xee;" horiz-adv-x="258" 
d="M82 724q18 19 48 19q29 0 46 -19l133 -146h-87l-93 103l-93 -103h-88zM170 500v-500h-82v500h82z" />
    <glyph glyph-name="idieresis" unicode="&#xef;" horiz-adv-x="258" 
d="M18 709q7 7 15 7t15 -7l41 -41q7 -7 7 -15q0 -7 -7 -15l-41 -41q-7 -7 -15 -7t-15 7l-41 41q-7 8 -7 15q0 8 7 15zM210 709q7 7 15 7t15 -7l41 -41q7 -7 7 -15q0 -7 -7 -15l-41 -41q-7 -7 -15 -7t-15 7l-41 41q-7 8 -7 15q0 8 7 15zM170 500v-500h-82v500h82z" />
    <glyph glyph-name="eth" unicode="&#xf0;" horiz-adv-x="647" 
d="M384 662q206 -126 206 -373q0 -142 -59 -218q-64 -83 -196 -83q-139 0 -211 71q-68 67 -68 186q0 105 67 166q65 59 175 59t199 -53q-31 118 -162 196l-73 -74l-39 32l65 67q-55 25 -120 44l24 61q83 -24 145 -55l67 68l40 -32zM334 56q88 0 133 62q42 58 42 162
q0 34 -3 67q-90 54 -193 54q-86 0 -133 -47q-42 -42 -42 -109q0 -189 196 -189z" />
    <glyph glyph-name="ntilde" unicode="&#xf1;" horiz-adv-x="664" 
d="M407 598q-38 0 -82 26q-34 18 -52 18q-19 0 -37 -12q-14 -9 -22 -23l-47 40q11 24 37 41q29 20 65 20q38 0 85 -28q32 -19 50 -19q20 0 39 16q15 12 26 31l50 -40q-16 -26 -45 -46q-34 -24 -67 -24zM88 492q0 20 19 20q12 0 29 -17l28 -30q103 47 208 47q107 0 160 -48
q50 -45 50 -128v-336h-82v316q0 60 -32 89q-37 33 -120 33q-100 0 -178 -28v-410h-82v492z" />
    <glyph glyph-name="ograve" unicode="&#xf2;" horiz-adv-x="680" 
d="M305 730l62 -108q16 -31 -4 -39q-20 -9 -46 16l-127 131h115zM303 -12q-116 0 -181 69q-66 70 -66 193q0 122 66 192t181 70h74q115 0 181 -70t66 -192q0 -123 -66 -193q-65 -69 -181 -69h-74zM372 60q82 0 125 47q44 48 44 143q0 190 -169 190h-65q-82 0 -125 -47
q-44 -48 -44 -143t44 -143q43 -47 125 -47h65z" />
    <glyph glyph-name="oacute" unicode="&#xf3;" horiz-adv-x="680" 
d="M367 599q-26 -25 -46 -16q-20 8 -4 39l62 108h114zM303 -12q-116 0 -181 69q-66 70 -66 193q0 122 66 192t181 70h74q115 0 181 -70t66 -192q0 -123 -66 -193q-65 -69 -181 -69h-74zM372 60q82 0 125 47q44 48 44 143q0 190 -169 190h-65q-82 0 -125 -47
q-44 -48 -44 -143t44 -143q43 -47 125 -47h65z" />
    <glyph glyph-name="ocircumflex" unicode="&#xf4;" horiz-adv-x="680" 
d="M293 724q17 19 47 19q29 0 46 -19l133 -146h-87l-93 103l-93 -103h-87zM303 -12q-116 0 -181 69q-66 70 -66 193q0 122 66 192t181 70h74q115 0 181 -70t66 -192q0 -123 -66 -193q-65 -69 -181 -69h-74zM372 60q82 0 125 47q44 48 44 143q0 190 -169 190h-65
q-82 0 -125 -47q-44 -48 -44 -143t44 -143q43 -47 125 -47h65z" />
    <glyph glyph-name="otilde" unicode="&#xf5;" horiz-adv-x="680" 
d="M403 598q-26 0 -47 8q-10 4 -36 18q-34 18 -52 18q-43 -6 -58 -35l-47 40q12 24 36 41q29 20 66 20q38 0 85 -28q32 -19 50 -19q20 0 39 16q15 12 26 31l50 -40q-18 -27 -45 -46q-34 -24 -67 -24zM303 -12q-116 0 -181 69q-66 70 -66 193q0 122 66 192t181 70h74
q115 0 181 -70t66 -192q0 -123 -66 -193q-65 -69 -181 -69h-74zM372 60q82 0 125 47q44 48 44 143q0 190 -169 190h-65q-82 0 -125 -47q-44 -48 -44 -143t44 -143q43 -47 125 -47h65z" />
    <glyph glyph-name="odieresis" unicode="&#xf6;" horiz-adv-x="680" 
d="M228 709q8 7 15 7q8 0 15 -7l41 -41q7 -7 7 -15q0 -7 -7 -15l-41 -41q-7 -7 -15 -7q-7 0 -15 7l-40 41q-8 8 -8 15t8 15zM420 709q7 7 15 7t15 -7l41 -41q7 -7 7 -15q0 -7 -7 -15l-41 -41q-7 -7 -15 -7t-15 7l-41 41q-7 8 -7 15q0 8 7 15zM303 -12q-116 0 -181 69
q-66 70 -66 193q0 122 66 192t181 70h74q115 0 181 -70t66 -192q0 -123 -66 -193q-65 -69 -181 -69h-74zM372 60q82 0 125 47q44 48 44 143q0 190 -169 190h-65q-82 0 -125 -47q-44 -48 -44 -143t44 -143q43 -47 125 -47h65z" />
    <glyph glyph-name="divide" unicode="&#xf7;" horiz-adv-x="537" 
d="M320 514l-51 -51l-50 51l50 51zM481 360v-73h-425v73h425zM320 133l-51 -51l-50 51l50 51z" />
    <glyph glyph-name="oslash" unicode="&#xf8;" horiz-adv-x="676" 
d="M546 453q74 -69 74 -203q0 -126 -64 -194t-180 -68h-76q-54 0 -100 16l-71 -94l-62 44l67 90q-78 69 -78 206q0 126 64 194t180 68h76q59 0 104 -18l73 94l62 -46zM372 60q164 0 164 190q0 98 -42 145q-40 45 -122 45h-67q-165 0 -165 -190t165 -190h67z" />
    <glyph glyph-name="ugrave" unicode="&#xf9;" horiz-adv-x="653" 
d="M293 730l62 -108q15 -31 -4 -39q-20 -9 -47 16l-126 131h115zM328 -12q-133 0 -193 58q-54 52 -54 158v296h79v-290q0 -77 36 -112q39 -38 132 -38t131 38q34 34 34 112v290h79v-296q0 -104 -51 -156q-59 -60 -193 -60z" />
    <glyph glyph-name="uacute" unicode="&#xfa;" horiz-adv-x="653" 
d="M355 599q-25 -25 -46 -16q-22 10 -5 39l63 108h114zM328 -12q-133 0 -193 58q-54 52 -54 158v296h79v-290q0 -77 36 -112q39 -38 132 -38t131 38q34 34 34 112v290h79v-296q0 -104 -51 -156q-59 -60 -193 -60z" />
    <glyph glyph-name="ucircumflex" unicode="&#xfb;" horiz-adv-x="653" 
d="M280 724q18 19 48 19q29 0 46 -19l133 -146h-87l-93 103l-93 -103h-88zM328 -12q-133 0 -193 58q-54 52 -54 158v296h79v-290q0 -77 36 -112q39 -38 132 -38t131 38q34 34 34 112v290h79v-296q0 -104 -51 -156q-59 -60 -193 -60z" />
    <glyph glyph-name="udieresis" unicode="&#xfc;" horiz-adv-x="653" 
d="M216 709q7 7 15 7t15 -7l41 -41q7 -7 7 -15q0 -7 -7 -15l-41 -41q-7 -7 -15 -7t-15 7l-41 41q-7 8 -7 15q0 8 7 15zM408 709q7 7 15 7t15 -7l41 -41q7 -7 7 -15q0 -7 -7 -15l-41 -41q-7 -7 -15 -7t-15 7l-41 41q-7 8 -7 15q0 8 7 15zM328 -12q-133 0 -193 58
q-54 52 -54 158v296h79v-290q0 -77 36 -112q39 -38 132 -38t131 38q34 34 34 112v290h79v-296q0 -104 -51 -156q-59 -60 -193 -60z" />
    <glyph glyph-name="yacute" unicode="&#xfd;" horiz-adv-x="671" 
d="M364 599q-25 -25 -46 -16q-22 10 -5 39l62 108h115zM304 -242q-128 0 -207 29v73q92 -30 207 -30q108 0 155 38q44 36 44 110v71q-95 -45 -207 -45q-215 0 -215 179v317h79v-297q0 -63 33 -92q37 -33 126 -33q118 4 184 28v394h80v-529q0 -213 -279 -213z" />
    <glyph glyph-name="thorn" unicode="&#xfe;" horiz-adv-x="670" 
d="M363 512q119 0 183 -62q68 -66 68 -200q0 -135 -74 -201q-67 -60 -189 -60q-92 0 -180 43v-262h-83v961h82v-267q98 48 193 48zM344 62q90 0 135 42q49 46 49 146t-46 146q-44 44 -133 44q-94 0 -179 -35v-310q27 -13 69 -22q51 -11 105 -11z" />
    <glyph glyph-name="ydieresis" unicode="&#xff;" horiz-adv-x="671" 
d="M225 709q7 7 15 7q7 0 15 -7l41 -41q7 -7 7 -15q0 -7 -7 -15l-41 -41q-9 -7 -15 -7q-8 0 -15 7l-41 41q-7 8 -7 15q0 8 7 15zM417 709q7 7 15 7q7 0 15 -7l40 -41q8 -7 8 -15q0 -7 -8 -15l-40 -41q-9 -7 -15 -7q-8 0 -15 7l-41 41q-8 8 -8 15t8 15zM304 -242
q-128 0 -207 29v73q92 -30 207 -30q108 0 155 38q44 36 44 110v71q-95 -45 -207 -45q-215 0 -215 179v317h79v-297q0 -63 33 -92q37 -33 126 -33q118 4 184 28v394h80v-529q0 -213 -279 -213z" />
    <glyph glyph-name="Amacron" unicode="&#x100;" 
d="M234 813v65h311v-65h-311zM595 190h-410l-79 -190h-88l270 637q28 65 103 65q73 3 102 -65l271 -637h-89zM218 268h344l-138 331q-10 25 -33 25q-25 0 -35 -25z" />
    <glyph glyph-name="amacron" unicode="&#x101;" horiz-adv-x="627" 
d="M467 688v-65h-310v65h310zM262 -12q-92 0 -144 36q-58 40 -58 123q0 157 214 157q109 0 191 -28v38q0 66 -35 94q-40 32 -139 32q-95 0 -183 -23v73q86 22 198 22q133 0 191 -54q48 -45 48 -133v-317q0 -20 -18 -20q-12 0 -29 18l-30 33q-93 -51 -206 -51zM280 59
q126 5 185 35v120q-68 20 -173 20q-77 0 -111 -17q-38 -19 -38 -70q0 -46 32 -67q33 -21 105 -21z" />
    <glyph glyph-name="Abreve" unicode="&#x102;" 
d="M390 769q-161 0 -166 151h73q2 -46 23 -68q22 -24 70 -24q46 0 68 22q21 21 23 70h75q-5 -151 -166 -151zM595 190h-410l-79 -190h-88l270 637q28 65 103 65q73 3 102 -65l271 -637h-89zM218 268h344l-138 331q-10 25 -33 25q-25 0 -35 -25z" />
    <glyph glyph-name="abreve" unicode="&#x103;" horiz-adv-x="627" 
d="M313 579q-161 0 -166 151h73q2 -47 22 -68q22 -24 71 -24q46 0 68 22q21 21 23 70h75q-5 -151 -166 -151zM262 -12q-92 0 -144 36q-58 40 -58 123q0 157 214 157q109 0 191 -28v38q0 66 -35 94q-40 32 -139 32q-95 0 -183 -23v73q86 22 198 22q133 0 191 -54
q48 -45 48 -133v-317q0 -20 -18 -20q-12 0 -29 18l-30 33q-93 -51 -206 -51zM280 59q126 5 185 35v120q-68 20 -173 20q-77 0 -111 -17q-38 -19 -38 -70q0 -46 32 -67q33 -21 105 -21z" />
    <glyph glyph-name="Aogonek" unicode="&#x104;" 
d="M624 -128q0 -23 16 -32q14 -8 45 -8q29 0 68 9v-72q-40 -11 -76 -11q-137 0 -137 99q0 80 124 143l-79 191h-401l-78 -191h-88l266 637q27 65 102 65q74 1 101 -65l266 -637q-45 -17 -84 -52q-45 -40 -45 -76zM417 602q-10 22 -32 22t-33 -22l-136 -334h337z" />
    <glyph glyph-name="aogonek" unicode="&#x105;" horiz-adv-x="625" 
d="M465 -242q-141 0 -141 99q0 44 35 81q38 40 122 82l-14 19q-95 -51 -206 -51q-91 0 -143 36q-58 40 -58 123q0 156 212 156q115 0 193 -26v39q0 63 -38 92q-42 32 -137 32q-96 0 -181 -23v73q90 22 197 22q131 0 189 -54q48 -45 48 -131v-308q0 -14 -9 -23q-5 -5 -22 -14
q-39 -18 -67 -45q-34 -33 -34 -64q0 -23 17 -33q14 -8 47 -8q29 0 68 9v-73q-36 -10 -78 -10zM279 59q128 5 186 35v120q-68 20 -174 20q-76 0 -110 -17q-40 -20 -40 -71q0 -45 33 -66t105 -21z" />
    <glyph glyph-name="Cacute" unicode="&#x106;" horiz-adv-x="707" 
d="M441 789q-25 -25 -46 -16q-22 10 -5 39l63 108h114zM422 -12q-180 0 -269 82q-95 88 -95 275q0 192 96 278q88 79 271 79q129 0 221 -24v-78q-102 25 -217 25q-148 0 -214 -61q-71 -65 -71 -219q0 -147 71 -215q68 -65 214 -65q119 0 223 26v-79q-103 -24 -230 -24z" />
    <glyph glyph-name="cacute" unicode="&#x107;" horiz-adv-x="546" 
d="M324 599q-25 -25 -46 -16q-22 10 -5 39l63 108h114zM334 -12q-134 0 -203 59q-75 64 -75 203q0 138 76 203q70 59 204 59q84 0 155 -19v-74q-72 21 -149 21q-102 0 -150 -40q-54 -45 -54 -150t53 -150q48 -40 151 -40q81 0 152 22v-74q-62 -20 -160 -20z" />
    <glyph glyph-name="Ccircumflex" unicode="&#x108;" horiz-adv-x="707" 
d="M367 914q18 20 47 20q28 0 46 -20l133 -146h-87l-93 103l-93 -103h-87zM422 -12q-180 0 -269 82q-95 88 -95 275q0 192 96 278q88 79 271 79q129 0 221 -24v-78q-102 25 -217 25q-148 0 -214 -61q-71 -65 -71 -219q0 -147 71 -215q68 -65 214 -65q119 0 223 26v-79
q-103 -24 -230 -24z" />
    <glyph glyph-name="ccircumflex" unicode="&#x109;" horiz-adv-x="546" 
d="M249 724q18 19 48 19q29 0 46 -19l133 -146h-87l-93 103l-93 -103h-88zM334 -12q-134 0 -203 59q-75 64 -75 203q0 138 76 203q70 59 204 59q84 0 155 -19v-74q-72 21 -149 21q-102 0 -150 -40q-54 -45 -54 -150t53 -150q48 -40 151 -40q81 0 152 22v-74
q-62 -20 -160 -20z" />
    <glyph glyph-name="Cdotaccent" unicode="&#x10a;" horiz-adv-x="707" 
d="M398 897q15 14 30 0l38 -38q15 -15 0 -30l-38 -38q-15 -15 -30 0l-37 38q-15 15 0 30zM422 -12q-180 0 -269 82q-95 88 -95 275q0 192 96 278q88 79 271 79q129 0 221 -24v-78q-102 25 -217 25q-148 0 -214 -61q-71 -65 -71 -219q0 -147 71 -215q68 -65 214 -65
q119 0 223 26v-79q-103 -24 -230 -24z" />
    <glyph glyph-name="cdotaccent" unicode="&#x10b;" horiz-adv-x="546" 
d="M281 707q15 13 30 0l38 -38q14 -15 0 -30l-38 -38q-15 -15 -30 0l-38 38q-13 15 0 30zM334 -12q-134 0 -203 59q-75 64 -75 203q0 138 76 203q70 59 204 59q84 0 155 -19v-74q-72 21 -149 21q-102 0 -150 -40q-54 -45 -54 -150t53 -150q48 -40 151 -40q81 0 152 22v-74
q-62 -20 -160 -20z" />
    <glyph glyph-name="Ccaron" unicode="&#x10c;" horiz-adv-x="707" 
d="M324 916l89 -99l89 99h91l-133 -142q-19 -20 -47 -20t-46 20l-134 142h91zM422 -12q-180 0 -269 82q-95 88 -95 275q0 192 96 278q88 79 271 79q129 0 221 -24v-78q-102 25 -217 25q-148 0 -214 -61q-71 -65 -71 -219q0 -147 71 -215q68 -65 214 -65q119 0 223 26v-79
q-103 -24 -230 -24z" />
    <glyph glyph-name="ccaron" unicode="&#x10d;" horiz-adv-x="546" 
d="M207 726l89 -99l89 99h91l-133 -142q-19 -20 -48 -20q-28 0 -46 20l-134 142h92zM334 -12q-134 0 -203 59q-75 64 -75 203q0 138 76 203q70 59 204 59q84 0 155 -19v-74q-72 21 -149 21q-102 0 -150 -40q-54 -45 -54 -150t53 -150q48 -40 151 -40q81 0 152 22v-74
q-62 -20 -160 -20z" />
    <glyph glyph-name="Dcaron" unicode="&#x10e;" horiz-adv-x="810" 
d="M441 774q-19 -20 -47 -20t-46 20l-134 142h91l90 -99l89 99h91zM448 690q139 0 218 -82q86 -89 86 -262t-86 -263q-79 -83 -218 -83h-347v690h347zM437 77q229 0 229 269q0 266 -230 266h-253v-535h254z" />
    <glyph glyph-name="dcaron" unicode="&#x10f;" horiz-adv-x="695" 
d="M595 8q0 -20 -18 -20q-12 0 -29 18l-32 33q-90 -51 -203 -51q-121 0 -186 62q-71 67 -71 201q0 133 77 200q70 61 192 61q100 0 190 -44v262h80v-722zM699 564q-2 -14 -28 -14t-28 14l-15 166h86zM515 405q-24 12 -74 22q-58 12 -110 12q-192 0 -192 -189
q0 -190 188 -190q101 0 188 36v309z" />
    <glyph glyph-name="Dcroat" unicode="&#x110;" horiz-adv-x="812" 
d="M443 690q143 0 223 -81q88 -89 88 -262q0 -175 -88 -265q-80 -82 -223 -82h-342v312h-62v64h62v314h342zM433 77q233 0 233 270q0 266 -234 266h-247v-237h168v-64h-168v-235h248z" />
    <glyph glyph-name="dcroat" unicode="&#x111;" horiz-adv-x="681" 
d="M649 652v-64h-54v-580q0 -20 -18 -20q-12 0 -29 18l-32 33q-90 -51 -203 -51q-121 0 -186 62q-71 67 -71 201q0 133 77 200q70 61 192 61q100 0 190 -44v120h-191v64h191v78h80v-78h54zM515 405q-24 12 -74 22q-58 12 -110 12q-192 0 -192 -189q0 -190 188 -190
q101 0 188 36v309z" />
    <glyph glyph-name="Emacron" unicode="&#x112;" horiz-adv-x="704" 
d="M219 813v65h310v-65h-310zM612 388v-77h-429v-234h453v-77h-535v690h535v-78h-453v-224h429z" />
    <glyph glyph-name="emacron" unicode="&#x113;" horiz-adv-x="618" 
d="M153 623v65h311v-65h-311zM559 300q0 -49 -5 -79h-418q7 -90 55 -126q47 -35 163 -35q96 0 175 28v-74q-65 -26 -181 -26q-156 0 -225 64q-67 62 -67 202q0 258 261 258q128 0 190 -65q52 -54 52 -147zM480 288q3 78 -36 115q-40 38 -128 38t-131 -37t-49 -116h344z" />
    <glyph glyph-name="Ebreve" unicode="&#x114;" horiz-adv-x="702" 
d="M375 769q-162 0 -167 151h74q2 -47 22 -68q22 -24 71 -24q45 0 67 22t24 70h74q-5 -151 -165 -151zM185 388h425v-77h-425v-234h449v-77h-533v690h533v-77h-449v-225z" />
    <glyph glyph-name="ebreve" unicode="&#x115;" horiz-adv-x="618" 
d="M309 579q-161 0 -166 151h73q2 -46 23 -68q22 -24 70 -24q46 0 68 22q21 21 23 70h75q-5 -151 -166 -151zM559 300q0 -49 -5 -79h-418q7 -90 55 -126q47 -35 163 -35q96 0 175 28v-74q-65 -26 -181 -26q-156 0 -225 64q-67 62 -67 202q0 258 261 258q128 0 190 -65
q52 -54 52 -147zM480 288q3 78 -36 115q-40 38 -128 38t-131 -37t-49 -116h344z" />
    <glyph glyph-name="Edotaccent" unicode="&#x116;" horiz-adv-x="704" 
d="M322 829q-15 15 0 30l38 38q14 14 29 0l38 -38q15 -15 0 -30l-38 -38q-15 -15 -29 0zM612 388v-77h-429v-234h453v-77h-535v690h535v-78h-453v-224h429z" />
    <glyph glyph-name="edotaccent" unicode="&#x117;" horiz-adv-x="618" 
d="M256 639q-13 15 0 30l38 38q15 13 30 0l38 -38q14 -15 0 -30l-38 -38q-15 -15 -30 0zM559 300q0 -49 -5 -79h-418q7 -90 55 -126q47 -35 163 -35q96 0 175 28v-74q-65 -26 -181 -26q-156 0 -225 64q-67 62 -67 202q0 258 261 258q128 0 190 -65q52 -54 52 -147zM480 288
q3 78 -36 115q-40 38 -128 38t-131 -37t-49 -116h344z" />
    <glyph glyph-name="Eogonek" unicode="&#x118;" horiz-adv-x="702" 
d="M185 388h425v-77h-425v-234h449v-77q-46 -18 -84 -52q-45 -40 -45 -75q0 -23 16 -33q13 -8 45 -8q29 0 68 9v-73q-36 -10 -76 -10q-138 0 -138 99q0 86 134 143h-453v690h533v-77h-449v-225z" />
    <glyph glyph-name="eogonek" unicode="&#x119;" horiz-adv-x="615" 
d="M556 301q0 -53 -5 -80h-413q7 -89 55 -125t161 -36q91 0 171 26v-70q-48 -25 -87 -63q-46 -44 -46 -78q0 -24 16 -34q14 -9 43 -9q28 0 67 9v-73q-36 -10 -76 -10q-68 0 -102 27q-32 25 -32 72q0 73 116 137q-36 -6 -76 -6q-155 0 -224 64q-68 63 -68 202q0 129 67 194
q66 64 193 64q125 0 187 -64q53 -55 53 -147zM475 288q4 78 -35 115q-40 38 -125 38q-166 2 -177 -153h337z" />
    <glyph glyph-name="Ecaron" unicode="&#x11a;" horiz-adv-x="704" 
d="M421 774q-19 -20 -47 -20t-46 20l-134 142h91l89 -99l90 99h91zM612 388v-77h-429v-234h453v-77h-535v690h535v-78h-453v-224h429z" />
    <glyph glyph-name="ecaron" unicode="&#x11b;" horiz-adv-x="618" 
d="M361 584q-19 -20 -48 -20q-28 0 -46 20l-134 142h91l90 -99l89 99h91zM559 300q0 -49 -5 -79h-418q7 -90 55 -126q47 -35 163 -35q96 0 175 28v-74q-65 -26 -181 -26q-156 0 -225 64q-67 62 -67 202q0 258 261 258q128 0 190 -65q52 -54 52 -147zM480 288q3 78 -36 115
q-40 38 -128 38t-131 -37t-49 -116h344z" />
    <glyph glyph-name="Gcircumflex" unicode="&#x11c;" horiz-adv-x="785" 
d="M410 871l-94 -103h-87l134 146q18 20 47 20q28 0 46 -20l134 -146h-88zM417 387h289v-380q0 -19 -16 -19q-9 0 -32 21l-25 23q-122 -44 -215 -44q-172 0 -260 76q-100 87 -100 280q0 195 101 281q90 77 281 77q123 0 249 -33v-79q-120 35 -248 35q-150 0 -219 -59
q-78 -66 -78 -222q0 -157 74 -222q65 -57 211 -57q101 0 196 26v221h-208v75z" />
    <glyph glyph-name="gcircumflex" unicode="&#x11d;" horiz-adv-x="683" 
d="M294 724q17 19 47 19t46 -19l134 -146h-87l-93 103l-93 -103h-88zM317 -242q-131 0 -210 29v73q92 -30 210 -30q107 0 155 40q43 36 43 111v58q-90 -51 -202 -51q-123 0 -188 62q-69 66 -69 201q0 134 75 200q69 61 194 61q105 0 195 -48l28 30q18 18 29 18q18 0 18 -21
v-514q0 -110 -72 -165q-71 -54 -206 -54zM327 61q103 0 188 35v309q-24 12 -74 22q-58 12 -110 12q-94 0 -141 -43q-51 -47 -51 -146q0 -98 49 -145q46 -44 139 -44z" />
    <glyph glyph-name="Gbreve" unicode="&#x11e;" horiz-adv-x="785" 
d="M410 769q-161 0 -166 151h73q2 -47 22 -68q22 -24 71 -24q46 0 68 22q21 21 23 70h75q-5 -151 -166 -151zM417 387h289v-380q0 -19 -16 -19q-9 0 -32 21l-25 23q-122 -44 -215 -44q-172 0 -260 76q-100 87 -100 280q0 195 101 281q90 77 281 77q123 0 249 -33v-79
q-120 35 -248 35q-150 0 -219 -59q-78 -66 -78 -222q0 -157 74 -222q65 -57 211 -57q101 0 196 26v221h-208v75z" />
    <glyph glyph-name="gbreve" unicode="&#x11f;" horiz-adv-x="683" 
d="M346 579q-161 0 -166 151h73q2 -47 22 -68q22 -24 71 -24q46 0 68 22q21 21 23 70h75q-5 -151 -166 -151zM317 -242q-131 0 -210 29v73q92 -30 210 -30q107 0 155 40q43 36 43 111v58q-90 -51 -202 -51q-123 0 -188 62q-69 66 -69 201q0 134 75 200q69 61 194 61
q105 0 195 -48l28 30q18 18 29 18q18 0 18 -21v-514q0 -110 -72 -165q-71 -54 -206 -54zM327 61q103 0 188 35v309q-24 12 -74 22q-58 12 -110 12q-94 0 -141 -43q-51 -47 -51 -146q0 -98 49 -145q46 -44 139 -44z" />
    <glyph glyph-name="Gdotaccent" unicode="&#x120;" horiz-adv-x="785" 
d="M357 829q-15 15 0 30l38 38q15 14 29 0l38 -38q15 -15 0 -30l-38 -38q-14 -15 -29 0zM417 387h289v-380q0 -19 -16 -19q-9 0 -32 21l-25 23q-122 -44 -215 -44q-172 0 -260 76q-100 87 -100 280q0 195 101 281q90 77 281 77q123 0 249 -33v-79q-120 35 -248 35
q-150 0 -219 -59q-78 -66 -78 -222q0 -157 74 -222q65 -57 211 -57q101 0 196 26v221h-208v75z" />
    <glyph glyph-name="gdotaccent" unicode="&#x121;" horiz-adv-x="683" 
d="M326 707q15 13 30 0l37 -38q15 -15 0 -30l-37 -38q-15 -15 -30 0l-38 38q-15 15 0 30zM317 -242q-131 0 -210 29v73q92 -30 210 -30q107 0 155 40q43 36 43 111v58q-90 -51 -202 -51q-123 0 -188 62q-69 66 -69 201q0 134 75 200q69 61 194 61q105 0 195 -48l28 30
q18 18 29 18q18 0 18 -21v-514q0 -110 -72 -165q-71 -54 -206 -54zM327 61q103 0 188 35v309q-24 12 -74 22q-58 12 -110 12q-94 0 -141 -43q-51 -47 -51 -146q0 -98 49 -145q46 -44 139 -44z" />
    <glyph glyph-name="uni0122" unicode="&#x122;" horiz-adv-x="785" 
d="M417 387h289v-380q0 -19 -16 -19q-9 0 -32 21l-25 23q-122 -44 -215 -44q-172 0 -260 76q-100 87 -100 280q0 195 101 281q90 77 281 77q123 0 249 -33v-79q-120 35 -248 35q-150 0 -219 -59q-78 -66 -78 -222q0 -157 74 -222q65 -57 211 -57q101 0 196 26v221h-208v75z
M357 -66h95l-71 -150q-15 -27 -37 -24t-18 33z" />
    <glyph glyph-name="uni0123" unicode="&#x123;" horiz-adv-x="683" 
d="M360 737q13 25 32 20q18 -5 14 -33l-25 -143h-103zM317 -242q-131 0 -210 29v73q92 -30 210 -30q107 0 155 40q43 36 43 111v58q-90 -51 -202 -51q-123 0 -188 62q-69 66 -69 201q0 134 75 200q69 61 194 61q105 0 195 -48l28 30q18 18 29 18q18 0 18 -21v-514
q0 -110 -72 -165q-71 -54 -206 -54zM327 61q103 0 188 35v309q-24 12 -74 22q-58 12 -110 12q-94 0 -141 -43q-51 -47 -51 -146q0 -98 49 -145q46 -44 139 -44z" />
    <glyph glyph-name="Hcircumflex" unicode="&#x124;" horiz-adv-x="833" 
d="M370 914q19 20 48 20q28 0 46 -20l133 -146h-87l-93 103l-93 -103h-88zM185 690v-302h463v302h84v-690h-84v311h-463v-311h-84v690h84z" />
    <glyph glyph-name="hcircumflex" unicode="&#x125;" horiz-adv-x="666" 
d="M38 808h-88l134 146q18 20 47 20t46 -20l134 -146h-87l-93 103zM371 512q109 0 163 -49q50 -45 50 -130v-333h-81v313q0 63 -32 92q-36 33 -123 33q-114 -4 -181 -28v-410h-81v730h81v-263q99 45 204 45z" />
    <glyph glyph-name="Hbar" unicode="&#x126;" horiz-adv-x="833" 
d="M732 0h-84v311h-463v-311h-84v690h84v-94h463v94h84v-690zM648 526h-463v-138h463v138z" />
    <glyph glyph-name="hbar" unicode="&#x127;" horiz-adv-x="664" 
d="M372 512q107 0 160 -48q50 -45 50 -128v-336h-82v316q0 59 -34 89q-38 33 -118 33q-100 0 -178 -28v-410h-82v586h-44v64h44v80h82v-80h188v-64h-188v-119q95 45 202 45z" />
    <glyph glyph-name="Itilde" unicode="&#x128;" horiz-adv-x="283" 
d="M206 788q-26 0 -47 8q-10 4 -36 18q-34 18 -52 18q-19 0 -36 -12q-15 -11 -22 -23l-48 40q13 25 37 41q29 20 66 20t84 -28q32 -19 50 -19q19 0 39 16q16 13 27 31l49 -40q-16 -26 -45 -46q-34 -24 -66 -24zM184 690v-690h-84v690h84z" />
    <glyph glyph-name="itilde" unicode="&#x129;" horiz-adv-x="258" 
d="M193 598q-26 0 -47 8q-10 4 -36 18q-34 18 -52 18q-19 0 -36 -12q-15 -11 -22 -23l-48 40q13 25 37 41q29 20 66 20t84 -28q32 -19 50 -19q19 0 39 16q16 13 27 31l49 -40q-16 -26 -45 -46q-34 -24 -66 -24zM170 500v-500h-82v500h82z" />
    <glyph glyph-name="Imacron" unicode="&#x12a;" horiz-adv-x="283" 
d="M297 878v-65h-311v65h311zM184 690v-690h-84v690h84z" />
    <glyph glyph-name="imacron" unicode="&#x12b;" horiz-adv-x="258" 
d="M284 688v-65h-311v65h311zM170 500v-500h-82v500h82z" />
    <glyph glyph-name="Ibreve" unicode="&#x12c;" horiz-adv-x="283" 
d="M142 769q-161 0 -166 151h73q2 -46 23 -68q22 -24 70 -24q46 0 68 22q21 21 23 70h75q-5 -151 -166 -151zM184 690v-690h-84v690h84z" />
    <glyph glyph-name="ibreve" unicode="&#x12d;" horiz-adv-x="258" 
d="M129 579q-161 0 -166 151h73q2 -46 23 -68q22 -24 70 -24q46 0 68 22q21 21 23 70h75q-5 -151 -166 -151zM170 500v-500h-82v500h82z" />
    <glyph glyph-name="Iogonek" unicode="&#x12e;" horiz-adv-x="283" 
d="M184 0q-46 -19 -85 -52q-46 -40 -46 -75q0 -23 15 -32q17 -9 47 -9q28 0 67 9v-73q-36 -10 -76 -10q-138 0 -138 99q0 87 132 143v690h84v-690z" />
    <glyph glyph-name="iogonek" unicode="&#x12f;" horiz-adv-x="258" 
d="M182 669q14 -15 0 -30l-38 -38q-15 -15 -30 0l-38 38q-13 15 0 30l38 38q15 13 30 0zM170 500v-500q-46 -19 -84 -52q-45 -40 -45 -75q0 -23 16 -33q13 -8 45 -8q29 0 68 9v-73q-36 -10 -76 -10q-138 0 -138 99q0 87 132 143v500h82z" />
    <glyph glyph-name="Idotaccent" unicode="&#x130;" horiz-adv-x="283" 
d="M127 897q15 14 30 0l38 -38q14 -15 0 -30l-38 -38q-15 -15 -30 0l-38 38q-13 15 0 30zM184 690v-690h-84v690h84z" />
    <glyph glyph-name="dotlessi" unicode="&#x131;" horiz-adv-x="258" 
d="M170 500v-500h-82v500h82z" />
    <glyph glyph-name="Jcircumflex" unicode="&#x134;" horiz-adv-x="549" 
d="M367 914q18 20 47 20t46 -20l134 -146h-87l-93 103l-93 -103h-88zM188 -12q-86 0 -168 22v78q76 -23 168 -23q99 0 140 36q37 32 37 105v484h82v-486q0 -102 -51 -153q-63 -63 -208 -63z" />
    <glyph glyph-name="jcircumflex" unicode="&#x135;" horiz-adv-x="272" 
d="M90 724q17 19 47 19q29 0 46 -19l133 -146h-87l-93 103l-93 -103h-87zM184 -81q0 -83 -47 -124q-42 -37 -116 -37q-33 0 -46 3v72q21 -3 36 -3q47 0 68 19q23 21 23 69v582h82v-581z" />
    <glyph glyph-name="uni0136" unicode="&#x136;" horiz-adv-x="697" 
d="M180 0h-79v690h79v-316l372 316h108l-387 -330l427 -360h-120l-400 342v-342zM423 -66l-72 -150q-15 -27 -36 -24q-22 3 -18 33l31 141h95z" />
    <glyph glyph-name="uni0137" unicode="&#x137;" horiz-adv-x="599" 
d="M171 0h-83v730h83v-451l279 221h119l-299 -232l329 -268h-122l-306 256v-256zM367 -66l-72 -150q-15 -27 -37 -24t-17 33l31 141h95z" />
    <glyph glyph-name="kgreenlandic" unicode="&#x138;" horiz-adv-x="595" 
d="M172 256v-256h-84v500h84v-221l275 221h120l-295 -232l323 -268h-123z" />
    <glyph glyph-name="Lacute" unicode="&#x139;" horiz-adv-x="649" 
d="M183 789q-27 -25 -47 -16q-20 8 -4 39l62 108h115zM101 0v690h82v-613h426v-77h-508z" />
    <glyph glyph-name="lacute" unicode="&#x13a;" horiz-adv-x="258" 
d="M157 869q-25 -25 -46 -16q-22 10 -5 39l63 108h114zM170 731v-731h-82v731h82z" />
    <glyph glyph-name="uni013B" unicode="&#x13b;" horiz-adv-x="649" 
d="M101 0v690h82v-613h426v-77h-508zM404 -66l-71 -150q-15 -27 -37 -24t-18 33l31 141h95z" />
    <glyph glyph-name="uni013C" unicode="&#x13c;" horiz-adv-x="258" 
d="M170 731v-731h-82v731h82zM179 -66l-72 -150q-15 -27 -37 -24t-17 33l31 141h95z" />
    <glyph glyph-name="Lcaron" unicode="&#x13d;" horiz-adv-x="649" 
d="M397 564q-1 -9 -9 -14t-19 -5q-27 0 -29 19l-14 166h85zM101 0v690h82v-613h426v-77h-508z" />
    <glyph glyph-name="lcaron" unicode="&#x13e;" horiz-adv-x="278" 
d="M170 731v-731h-82v731h82zM274 564q-2 -14 -28 -14t-28 14l-15 166h86z" />
    <glyph glyph-name="Ldot" unicode="&#x13f;" horiz-adv-x="649" 
d="M101 0v690h82v-613h426v-77h-508zM307 367q-13 13 0 28l42 42q13 15 28 0l43 -42q14 -14 0 -28l-43 -42q-14 -14 -28 0z" />
    <glyph glyph-name="ldot" unicode="&#x140;" horiz-adv-x="308" 
d="M170 731v-731h-82v731h82zM262 420q14 16 28 0l38 -39q13 -15 0 -28l-38 -36q-14 -14 -28 0l-38 36q-13 13 0 28z" />
    <glyph glyph-name="Lslash" unicode="&#x141;" horiz-adv-x="672" 
d="M632 0h-502v314l-72 -23v73l72 23v303h84v-277l195 60v-73l-195 -60v-263h418v-77z" />
    <glyph glyph-name="lslash" unicode="&#x142;" horiz-adv-x="258" 
d="M170 396v-396h-82v371l-60 -18v74l60 18v286h82v-261l61 19v-74z" />
    <glyph glyph-name="Nacute" unicode="&#x143;" horiz-adv-x="851" 
d="M453 789q-26 -25 -46 -16q-20 8 -4 39l62 108h115zM712 -12q-19 0 -30 5t-23 18l-476 555v-566h-82v668q0 34 37 34q18 0 30 -5t23 -18l475 -555v567h83v-670q0 -33 -37 -33z" />
    <glyph glyph-name="nacute" unicode="&#x144;" horiz-adv-x="668" 
d="M368 599q-26 -25 -46 -16q-19 8 -4 39l62 108h115zM88 491q0 21 19 21q14 0 28 -18l28 -30q102 48 210 48q109 0 163 -49q50 -45 50 -130v-333h-81v313q0 63 -32 92q-36 33 -123 33q-114 -4 -181 -28v-410h-81v491z" />
    <glyph glyph-name="uni0145" unicode="&#x145;" horiz-adv-x="851" 
d="M712 -12q-19 0 -30 5t-23 18l-476 555v-566h-82v668q0 34 37 34q18 0 30 -5t23 -18l475 -555v567h83v-670q0 -33 -37 -33zM475 -66l-71 -150q-15 -27 -37 -24t-18 33l31 141h95z" />
    <glyph glyph-name="uni0146" unicode="&#x146;" horiz-adv-x="668" 
d="M88 491q0 21 19 21q14 0 28 -18l28 -30q102 48 210 48q109 0 163 -49q50 -45 50 -130v-333h-81v313q0 63 -32 92q-36 33 -123 33q-114 -4 -181 -28v-410h-81v491zM379 -66l-71 -150q-15 -27 -37 -24t-18 33l31 141h95z" />
    <glyph glyph-name="Ncaron" unicode="&#x147;" horiz-adv-x="851" 
d="M336 916l89 -99l90 99h91l-134 -142q-19 -20 -47 -20t-46 20l-134 142h91zM712 -12q-19 0 -30 5t-23 18l-476 555v-566h-82v668q0 34 37 34q18 0 30 -5t23 -18l475 -555v567h83v-670q0 -33 -37 -33z" />
    <glyph glyph-name="ncaron" unicode="&#x148;" horiz-adv-x="668" 
d="M251 726l89 -99l90 99h91l-134 -142q-19 -20 -47 -20t-46 20l-134 142h91zM88 491q0 21 19 21q14 0 28 -18l28 -30q102 48 210 48q109 0 163 -49q50 -45 50 -130v-333h-81v313q0 63 -32 92q-36 33 -123 33q-114 -4 -181 -28v-410h-81v491z" />
    <glyph glyph-name="napostrophe" unicode="&#x149;" horiz-adv-x="666" 
d="M94 676l-52 -147q-4 -10 -15 -14t-22 -3q-20 2 -19 19l28 145h80zM86 491q0 21 19 21q14 0 28 -18l28 -30q102 48 210 48q109 0 163 -49q50 -45 50 -130v-333h-81v313q0 63 -32 92q-36 33 -123 33q-114 -4 -181 -28v-410h-81v491z" />
    <glyph glyph-name="Eng" unicode="&#x14a;" horiz-adv-x="859" 
d="M571 -242q-66 0 -108 14v78q45 -15 108 -15q51 0 74 20q28 24 28 82v72l-488 554v-563h-84v670q0 32 38 32q34 1 52 -24l482 -551v564h84v-756q0 -88 -42 -131q-45 -46 -144 -46z" />
    <glyph glyph-name="eng" unicode="&#x14b;" horiz-adv-x="664" 
d="M372 512q107 0 160 -48q50 -45 50 -128v-417q0 -83 -48 -124q-43 -37 -120 -37q-32 0 -46 3v72q21 -3 36 -3q50 0 72 19q24 21 24 69v398q0 60 -32 89q-37 33 -120 33q-100 0 -178 -28v-410h-82v492q0 20 19 20q12 0 29 -17l28 -30q103 47 208 47z" />
    <glyph glyph-name="Omacron" unicode="&#x14c;" horiz-adv-x="839" 
d="M573 878v-65h-311v65h311zM484 702q138 0 218 -96q79 -95 79 -261q0 -167 -79 -262t-218 -95h-130q-138 0 -217 95t-79 262q0 165 79 261t217 96h130zM473 65q103 0 160 66q62 71 62 214t-62 214q-57 66 -160 66h-107q-103 0 -160 -66q-62 -72 -62 -214t62 -214
q57 -66 160 -66h107z" />
    <glyph glyph-name="omacron" unicode="&#x14d;" horiz-adv-x="680" 
d="M494 688v-65h-310v65h310zM303 -12q-116 0 -181 69q-66 70 -66 193q0 122 66 192t181 70h74q115 0 181 -70t66 -192q0 -123 -66 -193q-65 -69 -181 -69h-74zM372 60q82 0 125 47q44 48 44 143q0 190 -169 190h-65q-82 0 -125 -47q-44 -48 -44 -143t44 -143
q43 -47 125 -47h65z" />
    <glyph glyph-name="Obreve" unicode="&#x14e;" horiz-adv-x="839" 
d="M418 769q-161 0 -166 151h73q2 -46 23 -68q22 -24 70 -24q46 0 68 22q21 21 23 70h75q-5 -151 -166 -151zM484 702q138 0 218 -96q79 -95 79 -261q0 -167 -79 -262t-218 -95h-130q-138 0 -217 95t-79 262q0 165 79 261t217 96h130zM473 65q103 0 160 66q62 71 62 214
t-62 214q-57 66 -160 66h-107q-103 0 -160 -66q-62 -72 -62 -214t62 -214q57 -66 160 -66h107z" />
    <glyph glyph-name="obreve" unicode="&#x14f;" horiz-adv-x="680" 
d="M339 579q-161 0 -166 151h74q2 -46 22 -68q22 -24 70 -24q46 0 68 22q21 21 23 70h75q-5 -151 -166 -151zM303 -12q-116 0 -181 69q-66 70 -66 193q0 122 66 192t181 70h74q115 0 181 -70t66 -192q0 -123 -66 -193q-65 -69 -181 -69h-74zM372 60q82 0 125 47
q44 48 44 143q0 190 -169 190h-65q-82 0 -125 -47q-44 -48 -44 -143t44 -143q43 -47 125 -47h65z" />
    <glyph glyph-name="Ohungarumlaut" unicode="&#x150;" horiz-adv-x="839" 
d="M350 789q-19 -25 -37 -16q-17 8 -8 39l39 108h96zM511 789q-18 -25 -37 -16t-8 39l39 108h96zM484 702q138 0 218 -96q79 -95 79 -261q0 -167 -79 -262t-218 -95h-130q-138 0 -217 95t-79 262q0 165 79 261t217 96h130zM473 65q103 0 160 66q62 71 62 214t-62 214
q-57 66 -160 66h-107q-103 0 -160 -66q-62 -72 -62 -214t62 -214q57 -66 160 -66h107z" />
    <glyph glyph-name="ohungarumlaut" unicode="&#x151;" horiz-adv-x="680" 
d="M272 599q-18 -25 -37 -16t-9 39l40 108h95zM432 599q-18 -25 -37 -16t-8 39l39 108h96zM303 -12q-116 0 -181 69q-66 70 -66 193q0 122 66 192t181 70h74q115 0 181 -70t66 -192q0 -123 -66 -193q-65 -69 -181 -69h-74zM372 60q82 0 125 47q44 48 44 143q0 190 -169 190
h-65q-82 0 -125 -47q-44 -48 -44 -143t44 -143q43 -47 125 -47h65z" />
    <glyph glyph-name="OE" unicode="&#x152;" horiz-adv-x="1276" 
d="M357 -12q-140 0 -219 94q-80 95 -80 263t80 263q79 94 219 94h118q143 0 214 -112v100h519v-77h-437v-225h413v-77h-413v-234h437v-77h-519v106q-32 -55 -83 -85q-56 -33 -131 -33h-118zM465 65q103 0 160 65q62 71 62 215t-62 215q-57 65 -160 65h-97q-104 0 -161 -65
q-62 -71 -62 -215t62 -215q57 -65 161 -65h97z" />
    <glyph glyph-name="oe" unicode="&#x153;" horiz-adv-x="1088" 
d="M1029 301q0 -47 -6 -80h-407q6 -89 53 -125q48 -36 160 -36q86 0 169 26v-73q-68 -25 -176 -25q-100 0 -157 26q-62 29 -93 96q-56 -122 -201 -122h-71q-116 0 -180 68t-64 194t64 194t180 68h71q146 0 201 -123q30 66 86 96q51 27 132 27q127 0 188 -64q51 -54 51 -147z
M948 288q4 78 -34 115q-39 38 -124 38t-127 -37t-47 -116h332zM367 60q164 0 164 190q0 98 -42 145q-40 45 -122 45h-62q-165 0 -165 -190t165 -190h62z" />
    <glyph glyph-name="Racute" unicode="&#x154;" horiz-adv-x="755" 
d="M379 789q-25 -25 -46 -16q-22 10 -5 39l63 108h114zM183 0h-82v690h348q101 0 162 -56q63 -57 63 -154q0 -86 -50 -141q-48 -53 -130 -65l231 -274h-105l-222 270h-215v-270zM445 347q67 0 104 31q40 34 40 102q0 67 -41 101q-38 31 -104 31h-261v-265h262z" />
    <glyph glyph-name="racute" unicode="&#x155;" horiz-adv-x="447" 
d="M255 599q-26 -25 -46 -16q-20 8 -4 39l62 108h115zM88 491q0 21 19 21q13 0 28 -18l30 -33q125 51 254 51v-80q-152 -4 -250 -22v-410h-81v491z" />
    <glyph glyph-name="uni0156" unicode="&#x156;" horiz-adv-x="755" 
d="M183 0h-82v690h348q101 0 162 -56q63 -57 63 -154q0 -86 -50 -141q-48 -53 -130 -65l231 -274h-105l-222 270h-215v-270zM445 347q67 0 104 31q40 34 40 102q0 67 -41 101q-38 31 -104 31h-261v-265h262zM434 -66l-71 -150q-15 -27 -37 -24t-18 33l31 141h95z" />
    <glyph glyph-name="uni0157" unicode="&#x157;" horiz-adv-x="445" 
d="M86 491q0 21 19 21q13 0 28 -18l30 -33q125 51 254 51v-80q-152 -4 -250 -22v-410h-81v491zM176 -66l-71 -150q-15 -27 -37 -24t-18 33l31 141h95z" />
    <glyph glyph-name="Rcaron" unicode="&#x158;" horiz-adv-x="755" 
d="M398 774q-19 -20 -47 -20t-47 20l-133 142h91l89 -99l89 99h91zM183 0h-82v690h348q101 0 162 -56q63 -57 63 -154q0 -86 -50 -141q-48 -53 -130 -65l231 -274h-105l-222 270h-215v-270zM445 347q67 0 104 31q40 34 40 102q0 67 -41 101q-38 31 -104 31h-261v-265h262z
" />
    <glyph glyph-name="rcaron" unicode="&#x159;" horiz-adv-x="445" 
d="M136 726l89 -99l90 99h91l-134 -142q-19 -20 -47 -20t-46 20l-134 142h91zM86 491q0 21 19 21q13 0 28 -18l30 -33q125 51 254 51v-80q-152 -4 -250 -22v-410h-81v491z" />
    <glyph glyph-name="Sacute" unicode="&#x15a;" horiz-adv-x="674" 
d="M363 789q-25 -25 -46 -16q-22 10 -5 39l63 108h114zM321 -12q-142 0 -256 35v79q97 -31 254 -37q116 0 163 27q46 26 46 88q0 50 -33 76q-30 24 -105 42l-145 35q-92 23 -135 63q-47 44 -47 121q0 96 66 140q68 45 221 45q126 0 232 -25v-79q-110 27 -227 27
q-153 0 -185 -40q-22 -25 -21 -65q0 -49 33 -74q28 -21 102 -39l142 -34q96 -23 139 -63q50 -46 50 -127q0 -101 -73 -149q-71 -46 -221 -46z" />
    <glyph glyph-name="sacute" unicode="&#x15b;" horiz-adv-x="535" 
d="M295 599q-25 -25 -46 -16q-22 10 -5 39l63 108h114zM267 -12q-126 0 -212 30v73q94 -32 207 -32q85 0 120 18q33 17 33 56q0 35 -25 52q-20 14 -71 23l-118 21q-76 14 -111 43q-39 33 -39 97q0 72 53 107q55 36 171 36q112 0 185 -22v-73q-81 24 -180 24q-84 0 -118 -18
q-30 -16 -30 -51q-1 -60 93 -71l115 -20q77 -13 113 -42q43 -34 43 -101q0 -78 -55 -114t-174 -36z" />
    <glyph glyph-name="Scircumflex" unicode="&#x15c;" horiz-adv-x="674" 
d="M288 914q19 20 48 20q28 0 46 -20l133 -146h-87l-93 103l-93 -103h-88zM321 -12q-142 0 -256 35v79q97 -31 254 -37q116 0 163 27q46 26 46 88q0 50 -33 76q-30 24 -105 42l-145 35q-92 23 -135 63q-47 44 -47 121q0 96 66 140q68 45 221 45q126 0 232 -25v-79
q-110 27 -227 27q-153 0 -185 -40q-22 -25 -21 -65q0 -49 33 -74q28 -21 102 -39l142 -34q96 -23 139 -63q50 -46 50 -127q0 -101 -73 -149q-71 -46 -221 -46z" />
    <glyph glyph-name="scircumflex" unicode="&#x15d;" horiz-adv-x="535" 
d="M221 724q17 19 47 19q29 0 46 -19l133 -146h-87l-93 103l-93 -103h-87zM267 -12q-126 0 -212 30v73q94 -32 207 -32q85 0 120 18q33 17 33 56q0 35 -25 52q-20 14 -71 23l-118 21q-76 14 -111 43q-39 33 -39 97q0 72 53 107q55 36 171 36q112 0 185 -22v-73
q-81 24 -180 24q-84 0 -118 -18q-30 -16 -30 -51q-1 -60 93 -71l115 -20q77 -13 113 -42q43 -34 43 -101q0 -78 -55 -114t-174 -36z" />
    <glyph glyph-name="Scedilla" unicode="&#x15e;" horiz-adv-x="678" 
d="M619 182q0 -93 -64 -140q-63 -46 -194 -53l-12 -57q135 -6 135 -83q0 -42 -40 -66q-42 -25 -121 -25q-61 0 -89 5v57q32 -4 77 -4q91 0 91 33q0 18 -27 25q-31 8 -113 7l29 107q-136 6 -225 34v78q95 -29 253 -35q117 0 166 27q48 26 48 87q0 48 -33 75q-28 22 -103 44
l-154 38q-94 27 -134 64q-46 43 -46 119q0 96 68 139q69 44 222 44q132 0 234 -25v-78q-104 26 -228 26q-123 0 -169 -25q-41 -22 -41 -78q0 -47 33 -72q27 -21 100 -41l152 -38q95 -26 136 -64q49 -45 49 -125z" />
    <glyph glyph-name="scedilla" unicode="&#x15f;" horiz-adv-x="535" 
d="M496 138q0 -73 -48 -109q-49 -36 -153 -40l-13 -57q139 -6 139 -83q0 -42 -41 -66q-43 -25 -124 -25q-63 0 -91 5v57q32 -4 79 -4q93 0 93 33q0 18 -28 25q-32 8 -116 7l30 108q-101 5 -168 29v73q94 -32 207 -32q85 0 120 18q33 17 33 56q0 35 -25 52q-20 14 -71 23
l-118 21q-76 14 -111 43q-39 33 -39 97q0 72 53 107q55 36 171 36q112 0 185 -22v-73q-81 24 -180 24q-84 0 -118 -18q-30 -16 -30 -51q-1 -60 93 -71l115 -20q77 -13 113 -42q43 -34 43 -101z" />
    <glyph glyph-name="Scaron" unicode="&#x160;" horiz-adv-x="674" 
d="M246 916l89 -99l89 99h91l-133 -142q-19 -20 -48 -20q-28 0 -46 20l-134 142h92zM321 -12q-142 0 -256 35v79q97 -31 254 -37q116 0 163 27q46 26 46 88q0 50 -33 76q-30 24 -105 42l-145 35q-92 23 -135 63q-47 44 -47 121q0 96 66 140q68 45 221 45q126 0 232 -25v-79
q-110 27 -227 27q-153 0 -185 -40q-22 -25 -21 -65q0 -49 33 -74q28 -21 102 -39l142 -34q96 -23 139 -63q50 -46 50 -127q0 -101 -73 -149q-71 -46 -221 -46z" />
    <glyph glyph-name="scaron" unicode="&#x161;" horiz-adv-x="535" 
d="M179 726l89 -99l89 99h91l-133 -142q-19 -20 -47 -20t-46 20l-134 142h91zM267 -12q-126 0 -212 30v73q94 -32 207 -32q85 0 120 18q33 17 33 56q0 35 -25 52q-20 14 -71 23l-118 21q-76 14 -111 43q-39 33 -39 97q0 72 53 107q55 36 171 36q112 0 185 -22v-73
q-81 24 -180 24q-84 0 -118 -18q-30 -16 -30 -51q-1 -60 93 -71l115 -20q77 -13 113 -42q43 -34 43 -101q0 -78 -55 -114t-174 -36z" />
    <glyph glyph-name="uni0162" unicode="&#x162;" horiz-adv-x="711" 
d="M376 -68q138 -6 138 -83q0 -42 -41 -66q-43 -25 -124 -25q-62 0 -90 5v57q32 -4 79 -4q92 0 92 33q0 18 -28 25q-32 8 -115 7l32 119h-5v613h-283v77h649v-77h-283v-613h-6z" />
    <glyph glyph-name="uni0163" unicode="&#x163;" horiz-adv-x="464" 
d="M278 -242q-62 0 -90 5v57q32 -4 79 -4q92 0 92 33q1 16 -22 24q-27 9 -121 8l32 114q-59 13 -87 50q-28 38 -28 105v281h-107v69h107v146h82v-146h210v-69h-210v-268q0 -56 26 -79q27 -24 94 -24q36 0 95 14v-71q-51 -15 -113 -15l-12 -56q138 -6 138 -83q0 -43 -40 -66
q-43 -25 -125 -25z" />
    <glyph glyph-name="Tcaron" unicode="&#x164;" horiz-adv-x="712" 
d="M268 916l90 -99l89 99h91l-134 -142q-19 -20 -47 -20t-46 20l-134 142h91zM31 690h650v-78h-284v-612h-82v612h-284v78z" />
    <glyph glyph-name="tcaron" unicode="&#x165;" horiz-adv-x="464" 
d="M343 559q-4 -14 -28 -14q-23 0 -28 14l-15 171h86zM320 -12q-95 0 -140 38q-47 40 -47 124v281h-107v69h107v146h82v-146h210v-69h-210v-268q0 -56 26 -79q27 -24 94 -24q36 0 95 14v-71q-52 -15 -110 -15z" />
    <glyph glyph-name="Tbar" unicode="&#x166;" horiz-adv-x="711" 
d="M397 376h116v-64h-116v-312h-83v312h-116v64h116v237h-283v77h649v-77h-283v-237z" />
    <glyph glyph-name="tbar" unicode="&#x167;" horiz-adv-x="464" 
d="M320 -12q-95 0 -140 38q-47 40 -47 124v88h-104v69h104v124h-107v69h107v146h82v-146h210v-69h-210v-124h212v-69h-212v-75q0 -56 26 -79q27 -24 94 -24q36 0 95 14v-71q-52 -15 -110 -15z" />
    <glyph glyph-name="Utilde" unicode="&#x168;" horiz-adv-x="806" 
d="M467 788q-38 0 -82 26q-34 18 -52 18q-19 0 -37 -12q-14 -9 -22 -23l-47 40q11 24 37 41q29 20 65 20q38 0 85 -28q32 -19 50 -19q20 0 39 16q15 12 26 31l50 -40q-16 -26 -45 -46q-34 -24 -67 -24zM403 -12q-312 0 -312 251v451h82v-442q0 -91 49 -134q55 -49 181 -49
q128 0 182 49q48 43 48 134v442h82v-451q0 -117 -64 -178q-77 -73 -248 -73z" />
    <glyph glyph-name="utilde" unicode="&#x169;" horiz-adv-x="653" 
d="M391 598q-26 0 -47 8q-10 4 -36 18q-34 18 -52 18q-19 0 -36 -12q-15 -11 -22 -23l-48 40q13 25 37 41q29 20 66 20t84 -28q32 -19 50 -19q19 0 39 16q16 13 27 31l49 -40q-16 -26 -45 -46q-34 -24 -66 -24zM328 -12q-133 0 -193 58q-54 52 -54 158v296h79v-290
q0 -77 36 -112q39 -38 132 -38t131 38q34 34 34 112v290h79v-296q0 -104 -51 -156q-59 -60 -193 -60z" />
    <glyph glyph-name="Umacron" unicode="&#x16a;" horiz-adv-x="806" 
d="M558 878v-65h-310v65h310zM403 -12q-312 0 -312 251v451h82v-442q0 -91 49 -134q55 -49 181 -49q128 0 182 49q48 43 48 134v442h82v-451q0 -117 -64 -178q-77 -73 -248 -73z" />
    <glyph glyph-name="umacron" unicode="&#x16b;" horiz-adv-x="653" 
d="M482 688v-65h-311v65h311zM328 -12q-133 0 -193 58q-54 52 -54 158v296h79v-290q0 -77 36 -112q39 -38 132 -38t131 38q34 34 34 112v290h79v-296q0 -104 -51 -156q-59 -60 -193 -60z" />
    <glyph glyph-name="Ubreve" unicode="&#x16c;" horiz-adv-x="806" 
d="M404 769q-161 0 -166 151h73q2 -47 22 -68q22 -24 71 -24q46 0 68 22q21 21 23 70h75q-5 -151 -166 -151zM403 -12q-312 0 -312 251v451h82v-442q0 -91 49 -134q55 -49 181 -49q128 0 182 49q48 43 48 134v442h82v-451q0 -117 -64 -178q-77 -73 -248 -73z" />
    <glyph glyph-name="ubreve" unicode="&#x16d;" horiz-adv-x="653" 
d="M327 579q-161 0 -166 151h73q2 -46 23 -68q22 -24 70 -24q46 0 68 22q21 21 23 70h75q-5 -151 -166 -151zM328 -12q-133 0 -193 58q-54 52 -54 158v296h79v-290q0 -77 36 -112q39 -38 132 -38t131 38q34 34 34 112v290h79v-296q0 -104 -51 -156q-59 -60 -193 -60z" />
    <glyph glyph-name="Uring" unicode="&#x16e;" horiz-adv-x="806" 
d="M401 762q-65 0 -98 26q-29 23 -29 66q0 93 127 93q63 0 94 -25q30 -24 30 -68t-29 -67q-31 -25 -95 -25zM401 812q63 0 63 42q0 20 -12 30q-15 12 -51 12q-39 0 -54 -12q-12 -10 -12 -30q0 -42 66 -42zM403 -12q-312 0 -312 251v451h82v-442q0 -91 49 -134
q55 -49 181 -49q128 0 182 49q48 43 48 134v442h82v-451q0 -117 -64 -178q-77 -73 -248 -73z" />
    <glyph glyph-name="uring" unicode="&#x16f;" horiz-adv-x="653" 
d="M328 572q-64 0 -97 26q-30 24 -30 66q0 43 30 67q33 26 97 26q62 0 94 -26q30 -24 30 -67q0 -44 -29 -67q-31 -25 -95 -25zM328 622q36 0 51 13q12 10 12 29q0 20 -12 30q-14 12 -51 12q-39 0 -54 -12q-12 -10 -12 -30q0 -42 66 -42zM328 -12q-133 0 -193 58
q-54 52 -54 158v296h79v-290q0 -77 36 -112q39 -38 132 -38t131 38q34 34 34 112v290h79v-296q0 -104 -51 -156q-59 -60 -193 -60z" />
    <glyph glyph-name="Uhungarumlaut" unicode="&#x170;" horiz-adv-x="806" 
d="M336 789q-18 -25 -37 -16t-8 39l39 108h96zM496 789q-17 -25 -36 -16q-19 10 -9 39l40 108h95zM403 -12q-312 0 -312 251v451h82v-442q0 -91 49 -134q55 -49 181 -49q128 0 182 49q48 43 48 134v442h82v-451q0 -117 -64 -178q-77 -73 -248 -73z" />
    <glyph glyph-name="uhungarumlaut" unicode="&#x171;" horiz-adv-x="653" 
d="M259 599q-19 -25 -37 -16q-17 8 -8 39l39 108h96zM420 599q-18 -25 -37 -16t-8 39l39 108h96zM328 -12q-133 0 -193 58q-54 52 -54 158v296h79v-290q0 -77 36 -112q39 -38 132 -38t131 38q34 34 34 112v290h79v-296q0 -104 -51 -156q-59 -60 -193 -60z" />
    <glyph glyph-name="Uogonek" unicode="&#x172;" horiz-adv-x="805" 
d="M714 235q0 -96 -39 -150q-45 -63 -150 -85q-53 -12 -96 -51t-43 -76q0 -23 16 -33q13 -8 45 -8q29 0 68 9v-73q-36 -10 -76 -10q-138 0 -138 99q0 37 28 70q26 30 78 61q-175 1 -252 72q-64 59 -64 175v455h84v-445q0 -89 48 -132q54 -48 180 -48q128 0 181 48
q46 42 46 132v445h84v-455z" />
    <glyph glyph-name="uogonek" unicode="&#x173;" horiz-adv-x="648" 
d="M567 202q0 -77 -29 -125q-28 -47 -88 -70q-67 -27 -107 -60q-46 -38 -46 -74q0 -23 16 -33q13 -8 45 -8q29 0 68 9v-73q-36 -10 -76 -10q-138 0 -138 99q0 76 106 131q-126 1 -184 58q-53 52 -53 156v298h82v-291q0 -78 35 -112q38 -37 127 -37t126 37q34 34 34 112v291
h82v-298z" />
    <glyph glyph-name="Wcircumflex" unicode="&#x174;" horiz-adv-x="1095" 
d="M505 914q19 20 48 20q28 0 46 -20l133 -146h-87l-93 103l-93 -103h-87zM297 -12q-30 0 -47 17q-14 14 -26 52l-202 633h86l190 -622l191 536q13 46 58 47q24 0 39 -13q12 -10 20 -34l192 -536l190 622h85l-202 -633q-12 -37 -27 -52q-17 -17 -47 -17q-29 0 -46 16
q-15 14 -26 48l-178 504l-177 -504q-12 -34 -27 -48q-17 -16 -46 -16z" />
    <glyph glyph-name="wcircumflex" unicode="&#x175;" horiz-adv-x="887" 
d="M401 724q18 19 48 19q29 0 46 -19l133 -146h-87l-93 103l-93 -103h-87zM250 -12q-49 0 -68 57l-156 455h83l142 -439l136 365q17 49 57 47q42 0 57 -47l138 -365l140 439h82l-154 -455q-19 -57 -68 -57q-26 0 -43 16q-15 14 -25 41l-127 340l-131 -340q-11 -30 -22 -41
q-15 -16 -41 -16z" />
    <glyph glyph-name="Ycircumflex" unicode="&#x176;" horiz-adv-x="735" 
d="M321 914q18 20 47 20q28 0 46 -20l133 -146h-87l-93 103l-93 -103h-87zM327 296q-28 11 -59 53l-257 341h97l227 -306q16 -22 33 -22q18 0 33 21l226 307h97l-256 -341q-33 -43 -59 -53v-296h-82v296z" />
    <glyph glyph-name="ycircumflex" unicode="&#x177;" horiz-adv-x="671" 
d="M289 724q17 19 47 19t46 -19l134 -146h-87l-93 103l-94 -103h-87zM304 -242q-128 0 -207 29v73q92 -30 207 -30q108 0 155 38q44 36 44 110v71q-95 -45 -207 -45q-215 0 -215 179v317h79v-297q0 -63 33 -92q37 -33 126 -33q118 4 184 28v394h80v-529q0 -213 -279 -213z
" />
    <glyph glyph-name="Ydieresis" unicode="&#x178;" horiz-adv-x="735" 
d="M271 780q-7 0 -15 7l-40 41q-8 8 -8 15t8 15l40 41q8 7 15 7q8 0 15 -7l41 -41q8 -7 8 -15q0 -7 -8 -15l-41 -41q-7 -7 -15 -7zM463 780q-7 0 -15 7l-41 41q-7 8 -7 15q0 8 7 15l41 41q8 7 15 7q8 0 15 -7l41 -41q7 -7 7 -15q0 -7 -7 -15l-41 -41q-7 -7 -15 -7zM327 296
q-16 6 -32 22q-9 9 -27 31l-257 341h97l227 -306q16 -22 33 -22q18 0 33 21l226 307h97l-256 -341q-33 -43 -59 -53v-296h-82v296z" />
    <glyph glyph-name="Zacute" unicode="&#x179;" horiz-adv-x="688" 
d="M372 789q-25 -25 -46 -16q-22 10 -5 39l62 108h115zM87 0q-36 0 -36 35q0 22 21 48l453 530h-457v77h538q18 0 27 -10t9 -25q0 -20 -23 -48l-452 -531h467v-76h-547z" />
    <glyph glyph-name="zacute" unicode="&#x17a;" horiz-adv-x="577" 
d="M335 599q-25 -25 -46 -16q-22 10 -5 39l63 108h114zM85 0q-16 0 -26 11q-9 10 -9 25q0 22 19 42l350 351h-346v71h419q16 0 26 -11q9 -10 9 -26q0 -21 -20 -41l-349 -351h360v-71h-433z" />
    <glyph glyph-name="Zdotaccent" unicode="&#x17b;" horiz-adv-x="688" 
d="M339 897q15 14 29 0l38 -38q15 -15 0 -30l-38 -38q-14 -15 -29 0l-38 38q-15 15 0 30zM87 0q-36 0 -36 35q0 22 21 48l453 530h-457v77h538q18 0 27 -10t9 -25q0 -20 -23 -48l-452 -531h467v-76h-547z" />
    <glyph glyph-name="zdotaccent" unicode="&#x17c;" horiz-adv-x="577" 
d="M292 707q15 13 30 0l38 -38q14 -15 0 -30l-38 -38q-15 -15 -30 0l-38 38q-13 15 0 30zM85 0q-16 0 -26 11q-9 10 -9 25q0 22 19 42l350 351h-346v71h419q16 0 26 -11q9 -10 9 -26q0 -21 -20 -41l-349 -351h360v-71h-433z" />
    <glyph glyph-name="Zcaron" unicode="&#x17d;" horiz-adv-x="688" 
d="M264 916l90 -99l89 99h91l-134 -142q-19 -20 -47 -20t-46 20l-134 142h91zM87 0q-36 0 -36 35q0 22 21 48l453 530h-457v77h538q18 0 27 -10t9 -25q0 -20 -23 -48l-452 -531h467v-76h-547z" />
    <glyph glyph-name="zcaron" unicode="&#x17e;" horiz-adv-x="577" 
d="M217 726l90 -99l89 99h91l-133 -142q-19 -20 -48 -20q-28 0 -46 20l-134 142h91zM85 0q-16 0 -26 11q-9 10 -9 25q0 22 19 42l350 351h-346v71h419q16 0 26 -11q9 -10 9 -26q0 -21 -20 -41l-349 -351h360v-71h-433z" />
    <glyph glyph-name="uni018F" unicode="&#x18f;" horiz-adv-x="765" 
d="M324 702q201 0 292 -87t91 -278q-2 -349 -339 -349q-169 0 -247 89q-63 72 -63 193q0 65 7 100h558q-7 140 -78 197q-69 56 -226 56q-105 0 -219 -35v79q96 35 224 35zM368 64q123 0 186 58q62 57 69 176h-483q-5 -121 48 -177q54 -57 180 -57z" />
    <glyph glyph-name="florin" unicode="&#x192;" horiz-adv-x="463" 
d="M77 -242q-31 0 -45 3v72q21 -3 35 -3q47 0 69 19q23 20 23 69v513h-108v69h108v84q0 81 39 118q42 40 140 40q55 0 98 -9v-72q-42 9 -89 9q-59 0 -81 -15q-26 -18 -26 -69v-86h195v-69h-195v-512q0 -83 -47 -124q-42 -37 -116 -37z" />
    <glyph glyph-name="uni019D" unicode="&#x19d;" horiz-adv-x="859" 
d="M757 20q0 -32 -37 -32q-20 0 -30 5q-9 4 -22 19l-483 551v-638q0 -87 -38 -126q-40 -41 -131 -41q-56 0 -89 11v77q34 -12 88 -12q44 0 62 15q24 20 24 78v743q0 32 38 32q34 1 52 -24l482 -551v564h84v-671z" />
    <glyph glyph-name="Ohorn" unicode="&#x1a0;" horiz-adv-x="839" vert-adv-y="0" 
d="M484 702q70 0 125 -25q49 1 63 18q17 20 17 100h62q0 -115 -35 -150v1q-13 -13 -31 -22q9 -8 17 -18q79 -95 79 -261q0 -167 -79 -262t-218 -95h-130q-138 0 -217 95t-79 262q0 165 79 261t217 96h130zM473 65q103 0 160 66q62 71 62 214t-62 214q-57 66 -160 66h-107
q-103 0 -160 -66q-62 -72 -62 -214t62 -214q57 -66 160 -66h107z" />
    <glyph glyph-name="ohorn" unicode="&#x1a1;" horiz-adv-x="680" vert-adv-y="0" 
d="M303 -12q-116 0 -181 69q-66 70 -66 193q0 122 66 192t181 70h74q68 0 118 -25q40 3 52 18q17 20 17 100h62q0 -115 -35 -150v1q-13 -13 -28 -20q61 -69 61 -186q0 -123 -66 -193q-65 -69 -181 -69h-74zM372 60q82 0 125 47q44 48 44 143q0 190 -169 190h-65
q-82 0 -125 -47q-44 -48 -44 -143t44 -143q43 -47 125 -47h65z" />
    <glyph glyph-name="Uhorn" unicode="&#x1af;" horiz-adv-x="806" vert-adv-y="0" 
d="M403 -12q-312 0 -312 251v451h82v-442q0 -91 49 -134q55 -49 181 -49q128 0 182 49q48 43 48 134v442h63q25 4 34 15q17 20 17 100h62q0 -115 -35 -150v1q-21 -22 -59 -31v-386q0 -117 -64 -178q-77 -73 -248 -73z" />
    <glyph glyph-name="uhorn" unicode="&#x1b0;" horiz-adv-x="653" vert-adv-y="0" 
d="M328 -12q-133 0 -193 58q-54 52 -54 158v296h79v-290q0 -77 36 -112q39 -38 132 -38t131 38q34 34 34 112v290h18q60 0 75 18q17 20 17 100h62q0 -115 -35 -150v1q-19 -21 -58 -30v-235q0 -104 -51 -156q-59 -60 -193 -60z" />
    <glyph glyph-name="Gcaron" unicode="&#x1e6;" horiz-adv-x="785" 
d="M456 774q-19 -20 -47 -20t-46 20l-134 142h91l90 -99l89 99h91zM417 387h289v-380q0 -19 -16 -19q-9 0 -32 21l-25 23q-122 -44 -215 -44q-172 0 -260 76q-100 87 -100 280q0 195 101 281q90 77 281 77q123 0 249 -33v-79q-120 35 -248 35q-150 0 -219 -59
q-78 -66 -78 -222q0 -157 74 -222q65 -57 211 -57q101 0 196 26v221h-208v75z" />
    <glyph glyph-name="gcaron" unicode="&#x1e7;" horiz-adv-x="683" 
d="M256 726l90 -99l89 99h91l-134 -142q-19 -20 -47 -20t-46 20l-134 142h91zM317 -242q-131 0 -210 29v73q92 -30 210 -30q107 0 155 40q43 36 43 111v58q-90 -51 -202 -51q-123 0 -188 62q-69 66 -69 201q0 134 75 200q69 61 194 61q105 0 195 -48l28 30q18 18 29 18
q18 0 18 -21v-514q0 -110 -72 -165q-71 -54 -206 -54zM327 61q103 0 188 35v309q-24 12 -74 22q-58 12 -110 12q-94 0 -141 -43q-51 -47 -51 -146q0 -98 49 -145q46 -44 139 -44z" />
    <glyph glyph-name="uni01EA" unicode="&#x1ea;" horiz-adv-x="834" 
d="M474 -242q-138 0 -138 99q0 75 104 131h-86q-133 0 -212 89q-84 95 -84 268q0 168 80 263q79 94 219 94h120q140 0 219 -94q80 -95 80 -263q0 -147 -59 -237q-58 -88 -165 -112q-52 -11 -91 -47q-40 -37 -40 -76q0 -23 16 -33q13 -8 45 -8q29 0 68 9v-73q-36 -10 -76 -10
zM466 65q104 0 161 65q62 71 62 215t-62 215q-57 65 -161 65h-98q-104 0 -161 -65q-62 -71 -62 -215t62 -215q57 -65 161 -65h98z" />
    <glyph glyph-name="uni01EB" unicode="&#x1eb;" horiz-adv-x="677" 
d="M346 -242q-70 0 -105 27q-32 24 -32 69q0 77 135 134l-55 1q-110 2 -172 72q-61 69 -61 189q0 125 66 194q65 68 181 68h71q116 0 181 -68q66 -69 66 -194q0 -197 -166 -251q-61 -21 -108 -55q-53 -39 -53 -71q0 -23 16 -33q13 -8 45 -8q28 0 67 9v-73q-34 -10 -76 -10z
M370 60q167 0 167 190q0 98 -43 145q-42 45 -124 45h-62q-168 0 -168 -190t168 -190h62z" />
    <glyph glyph-name="Aringacute" unicode="&#x1fa;" 
d="M418 1006q-25 -25 -46 -15q-22 10 -5 39l63 108h114zM391 762q-64 0 -97 26q-30 24 -30 66q0 44 30 68q32 25 97 25q63 0 94 -25q30 -24 30 -68t-29 -67q-31 -25 -95 -25zM391 896q-39 0 -54 -12q-12 -10 -12 -30q0 -42 66 -42q36 0 51 13q12 10 12 29q0 20 -12 30
q-14 12 -51 12zM595 190h-410l-79 -190h-88l270 637q28 65 103 65q73 3 102 -65l271 -637h-89zM218 268h344l-138 331q-10 25 -33 25q-25 0 -35 -25z" />
    <glyph glyph-name="aringacute" unicode="&#x1fb;" horiz-adv-x="627" 
d="M341 816q-25 -25 -46 -15q-22 10 -5 39l62 108h115zM314 572q-64 0 -97 26q-30 24 -30 66q0 43 30 67q33 26 97 26q62 0 94 -26q30 -24 30 -67q0 -44 -29 -67q-31 -25 -95 -25zM314 622q63 0 63 42q0 20 -12 30q-15 12 -51 12q-39 0 -54 -12q-12 -10 -12 -30
q0 -42 66 -42zM262 -12q-92 0 -144 36q-58 40 -58 123q0 157 214 157q109 0 191 -28v38q0 66 -35 94q-40 32 -139 32q-95 0 -183 -23v73q86 22 198 22q133 0 191 -54q48 -45 48 -133v-317q0 -20 -18 -20q-12 0 -29 18l-30 33q-93 -51 -206 -51zM280 59q126 5 185 35v120
q-68 20 -173 20q-77 0 -111 -17q-38 -19 -38 -70q0 -46 32 -67q33 -21 105 -21z" />
    <glyph glyph-name="AEacute" unicode="&#x1fc;" horiz-adv-x="1129" 
d="M686 789q-26 -25 -46 -16q-19 8 -4 39l62 108h115zM634 388h402v-77h-402v-234h426v-77h-509v213h-352l-92 -213h-89l276 622q16 36 40 51q26 17 73 17h653v-77h-426v-225zM551 612h-142q-35 0 -45 -23l-130 -298h317v321z" />
    <glyph glyph-name="aeacute" unicode="&#x1fd;" horiz-adv-x="992" 
d="M522 599q-26 -25 -46 -16q-20 8 -4 39l62 108h114zM255 -12q-89 0 -139 36q-56 40 -56 123q0 156 206 156q107 0 183 -26v38q0 64 -36 93q-39 32 -132 32q-95 0 -176 -23v73q86 22 190 22q83 0 131 -22q47 -22 71 -68q54 90 203 90q125 0 185 -64q51 -54 51 -147
q0 -47 -6 -80h-403q7 -89 54 -125t158 -36q90 0 166 26v-73q-68 -25 -173 -25q-168 0 -229 74q-62 -39 -113 -55q-59 -19 -135 -19zM855 288q3 78 -34 115q-38 38 -121 38q-85 0 -126 -36q-42 -37 -47 -117h328zM273 59q111 0 201 49q-19 41 -25 106q-66 20 -164 20
q-73 0 -105 -17q-36 -19 -36 -71q0 -45 30 -66q31 -21 99 -21z" />
    <glyph glyph-name="Oslashacute" unicode="&#x1fe;" horiz-adv-x="834" 
d="M445 789q-25 -25 -46 -16q-22 10 -5 39l63 108h114zM686 619q90 -95 90 -274q0 -168 -80 -263q-79 -94 -219 -94h-120q-77 0 -139 31l-72 -93l-66 48l73 92q-95 93 -95 279q0 168 80 263q79 94 219 94h120q82 0 143 -33l75 96l66 -49zM466 65q104 0 161 65q62 71 62 215
t-62 215q-57 65 -161 65h-98q-104 0 -161 -65q-62 -71 -62 -215t62 -215q57 -65 161 -65h98z" />
    <glyph glyph-name="oslashacute" unicode="&#x1ff;" horiz-adv-x="676" 
d="M366 599q-26 -25 -46 -16q-19 8 -4 39l62 108h114zM546 453q74 -69 74 -203q0 -126 -64 -194t-180 -68h-76q-54 0 -100 16l-71 -94l-62 44l67 90q-78 69 -78 206q0 126 64 194t180 68h76q59 0 104 -18l73 94l62 -46zM372 60q164 0 164 190q0 98 -42 145q-40 45 -122 45
h-67q-165 0 -165 -190t165 -190h67z" />
    <glyph glyph-name="uni0218" unicode="&#x218;" horiz-adv-x="674" 
d="M321 -12q-142 0 -256 35v79q97 -31 254 -37q116 0 163 27q46 26 46 88q0 50 -33 76q-30 24 -105 42l-145 35q-92 23 -135 63q-47 44 -47 121q0 96 66 140q68 45 221 45q126 0 232 -25v-79q-110 27 -227 27q-153 0 -185 -40q-22 -25 -21 -65q0 -49 33 -74q28 -21 102 -39
l142 -34q96 -23 139 -63q50 -46 50 -127q0 -101 -73 -149q-71 -46 -221 -46zM374 -66l-71 -150q-15 -27 -37 -24t-18 33l31 141h95z" />
    <glyph glyph-name="uni0219" unicode="&#x219;" horiz-adv-x="535" 
d="M267 -12q-126 0 -212 30v73q94 -32 207 -32q85 0 120 18q33 17 33 56q0 35 -25 52q-20 14 -71 23l-118 21q-76 14 -111 43q-39 33 -39 97q0 72 53 107q55 36 171 36q112 0 185 -22v-73q-81 24 -180 24q-84 0 -118 -18q-30 -16 -30 -51q-1 -60 93 -71l115 -20
q77 -13 113 -42q43 -34 43 -101q0 -78 -55 -114t-174 -36zM317 -66l-72 -150q-15 -27 -36 -24q-22 3 -18 33l31 141h95z" />
    <glyph glyph-name="uni021A" unicode="&#x21a;" horiz-adv-x="712" 
d="M31 690h650v-78h-284v-612h-82v612h-284v78zM405 -66l-71 -150q-15 -27 -37 -24t-18 33l31 141h95z" />
    <glyph glyph-name="uni021B" unicode="&#x21b;" horiz-adv-x="464" 
d="M320 -12q-95 0 -140 38q-47 40 -47 124v281h-107v69h107v146h82v-146h210v-69h-210v-268q0 -56 26 -79q27 -24 94 -24q36 0 95 14v-71q-52 -15 -110 -15zM335 -66l-72 -150q-15 -27 -37 -24t-17 33l31 141h95z" />
    <glyph glyph-name="uni0232" unicode="&#x232;" horiz-adv-x="735" 
d="M212 878h310v-65h-310v65zM327 296q-28 11 -59 53l-257 341h97l227 -306q16 -22 33 -22q18 0 33 21l226 307h97l-256 -341q-33 -43 -59 -53v-296h-82v296z" />
    <glyph glyph-name="uni0233" unicode="&#x233;" horiz-adv-x="671" 
d="M490 688v-65h-310v65h310zM304 -242q-128 0 -207 29v73q92 -30 207 -30q108 0 155 38q44 36 44 110v71q-95 -45 -207 -45q-215 0 -215 179v317h79v-297q0 -63 33 -92q37 -33 126 -33q118 4 184 28v394h80v-529q0 -213 -279 -213z" />
    <glyph glyph-name="uni0237" unicode="&#x237;" horiz-adv-x="272" 
d="M184 -81q0 -83 -47 -124q-42 -37 -116 -37q-33 0 -46 3v72q21 -3 36 -3q47 0 68 19q23 21 23 69v582h82v-581z" />
    <glyph glyph-name="uni0259" unicode="&#x259;" horiz-adv-x="615" 
d="M268 512q155 0 224 -64q67 -62 67 -202q0 -129 -67 -194q-66 -64 -193 -64q-125 0 -187 64q-53 55 -53 147q0 47 6 80h412q-6 89 -55 125t-161 36q-88 0 -171 -26v73q68 25 178 25zM300 59q85 0 128 37t49 116h-337q-8 -155 160 -153z" />
    <glyph glyph-name="uni0272" unicode="&#x272;" horiz-adv-x="679" 
d="M386 512q107 0 160 -48q50 -45 50 -128v-336h-82v316q0 60 -32 89q-37 33 -120 33q-98 0 -178 -28v-491q0 -83 -47 -124q-42 -37 -116 -37q-33 0 -46 3v72q21 -3 36 -3q47 0 68 19q23 21 23 69v574q0 20 19 20q13 0 29 -17l28 -30q103 47 208 47z" />
    <glyph glyph-name="circumflex" unicode="&#x2c6;" horiz-adv-x="561" 
d="M234 724q17 19 47 19q29 0 46 -19l134 -146h-88l-92 103l-94 -103h-87z" />
    <glyph glyph-name="caron" unicode="&#x2c7;" horiz-adv-x="561" 
d="M191 726l90 -99l89 99h91l-134 -142q-19 -20 -47 -20t-46 20l-134 142h91z" />
    <glyph glyph-name="breve" unicode="&#x2d8;" horiz-adv-x="532" 
d="M266 579q-161 0 -166 151h74q2 -46 22 -68q22 -24 70 -24q46 0 68 22q21 21 23 70h75q-5 -151 -166 -151z" />
    <glyph glyph-name="dotaccent" unicode="&#x2d9;" horiz-adv-x="320" 
d="M145 707q15 13 30 0l38 -38q14 -15 0 -30l-38 -38q-15 -15 -30 0l-38 38q-13 15 0 30z" />
    <glyph glyph-name="ring" unicode="&#x2da;" horiz-adv-x="451" 
d="M227 572q-64 0 -97 26q-30 24 -30 66q0 43 30 67q33 26 97 26q62 0 94 -26q30 -24 30 -67q0 -44 -29 -67q-31 -25 -95 -25zM227 622q36 0 51 13q12 10 12 29q0 20 -12 30q-14 12 -51 12q-39 0 -54 -12q-12 -10 -12 -30q0 -42 66 -42z" />
    <glyph glyph-name="ogonek" unicode="&#x2db;" horiz-adv-x="414" 
d="M237 -242q-137 0 -137 99q0 86 134 143h80q-46 -18 -84 -52q-45 -40 -45 -75q0 -23 16 -33q13 -8 45 -8q29 0 68 9v-73q-36 -10 -77 -10z" />
    <glyph glyph-name="tilde" unicode="&#x2dc;" horiz-adv-x="552" 
d="M340 598q-38 0 -82 26q-34 18 -52 18q-19 0 -37 -12q-14 -9 -22 -23l-47 40q11 24 37 41q29 20 65 20q38 0 85 -28q32 -19 50 -19q20 0 39 16q15 12 26 31l50 -40q-16 -26 -45 -46q-34 -24 -67 -24z" />
    <glyph glyph-name="hungarumlaut" unicode="&#x2dd;" horiz-adv-x="527" 
d="M150 599q-18 -25 -37 -16t-9 39l40 108h96zM310 599q-19 -25 -37 -16q-17 8 -8 39l39 108h96z" />
    <glyph glyph-name="gravecomb" unicode="&#x300;" horiz-adv-x="0" 
d="M-169 730l62 -108q17 -29 -5 -39q-21 -9 -46 16l-126 131h115z" />
    <glyph glyph-name="acutecomb" unicode="&#x301;" horiz-adv-x="0" 
d="M-258 599q-27 -25 -47 -16q-19 8 -4 39l63 108h114z" />
    <glyph glyph-name="uni0302" unicode="&#x302;" horiz-adv-x="0" 
d="M-327 724q18 19 48 19q29 0 45 -19l134 -146h-87l-93 103l-93 -103h-88z" />
    <glyph glyph-name="tildecomb" unicode="&#x303;" horiz-adv-x="0" 
d="M-212 598q-38 0 -82 26q-34 18 -52 18q-19 0 -37 -12q-14 -9 -22 -23l-47 40q11 24 37 41q29 20 65 20q38 0 85 -28q32 -19 50 -19q19 0 38 16q17 14 27 31l50 -40q-16 -26 -45 -46q-34 -24 -67 -24z" />
    <glyph glyph-name="uni0304" unicode="&#x304;" horiz-adv-x="0" 
d="M-100 688v-65h-310v65h310z" />
    <glyph glyph-name="uni0306" unicode="&#x306;" horiz-adv-x="0" 
d="M-266 579q-161 0 -166 151h73q2 -47 22 -68q22 -24 71 -24q46 0 68 22q21 21 23 70h75q-5 -151 -166 -151z" />
    <glyph glyph-name="uni0307" unicode="&#x307;" horiz-adv-x="0" 
d="M-175 707q15 13 30 0l38 -38q13 -15 0 -30l-38 -38q-15 -15 -30 0l-38 38q-14 15 0 30z" />
    <glyph glyph-name="uni0308" unicode="&#x308;" horiz-adv-x="0" 
d="M-370 709q7 7 15 7t15 -7l41 -41q7 -7 7 -15q0 -7 -7 -15l-41 -41q-7 -7 -15 -7t-15 7l-41 41q-7 8 -7 15q0 8 7 15zM-178 709q7 7 15 7t15 -7l41 -41q7 -7 7 -15q0 -7 -7 -15l-41 -41q-7 -7 -15 -7t-15 7l-41 41q-7 8 -7 15q0 8 7 15z" />
    <glyph glyph-name="hookabovecomb" unicode="&#x309;" horiz-adv-x="437" vert-adv-y="0" 
d="M194 792q57 0 88 -20q28 -21 28 -57q0 -75 -107 -115h-65q16 6 31.5 15.5t30.5 21.5q41 34 41 61q0 17 -12 23q-7 4 -17.5 5t-26.5 1q-32 0 -59 -7v65q20 4 36.5 5.5t31.5 1.5z" />
    <glyph glyph-name="uni030A" unicode="&#x30a;" horiz-adv-x="0" 
d="M-224 572q-64 0 -97 26q-30 24 -30 66q0 43 30 67q33 26 97 26q62 0 94 -26q30 -24 30 -67q0 -44 -29 -67q-31 -25 -95 -25zM-224 622q36 0 51 13q12 10 12 29q0 20 -12 30q-14 12 -51 12q-38 0 -53 -12q-12 -10 -12 -30q0 -42 65 -42z" />
    <glyph glyph-name="uni030B" unicode="&#x30b;" horiz-adv-x="0" 
d="M-377 599q-18 -25 -37 -16t-8 39l39 108h96zM-216 599q-18 -25 -37 -16t-9 39l40 108h95z" />
    <glyph glyph-name="uni030C" unicode="&#x30c;" horiz-adv-x="0" 
d="M-370 726l90 -99l89 99h91l-134 -142q-19 -20 -47 -20t-46 20l-134 142h91z" />
    <glyph glyph-name="uni0312" unicode="&#x312;" horiz-adv-x="0" 
d="M-147 737q13 25 32 20t14 -33l-25 -143h-103z" />
    <glyph glyph-name="dotbelowcomb" unicode="&#x323;" horiz-adv-x="0" 
d="M-175 -121q14 12 26 0l43 -44q12 -14 0 -26l-43 -43q-12 -14 -26 0l-43 43q-15 13 0 26z" />
    <glyph glyph-name="uni0326" unicode="&#x326;" horiz-adv-x="0" 
d="M-100 -66l-72 -150q-15 -27 -36 -24q-22 3 -18 33l31 141h95z" />
    <glyph glyph-name="uni0327" unicode="&#x327;" horiz-adv-x="0" 
d="M-265 -242q-62 0 -90 5v57q32 -4 79 -4q92 0 92 33q0 18 -28 25q-32 8 -115 7l38 138h70l-19 -87q138 -6 138 -83q0 -42 -41 -66q-43 -25 -124 -25z" />
    <glyph glyph-name="uni0328" unicode="&#x328;" horiz-adv-x="0" 
d="M-176 -242q-138 0 -138 99q0 86 135 143h79q-46 -19 -84 -52q-45 -40 -45 -75q0 -23 15 -32q17 -9 47 -9q28 0 67 9v-73q-36 -10 -76 -10z" />
    <glyph glyph-name="uni0335" unicode="&#x335;" horiz-adv-x="0" 
d="M-100 334v-64h-314v64h314z" />
    <glyph glyph-name="uni0338" unicode="&#x338;" horiz-adv-x="0" 
d="M-100 675l-465 -700h-100l469 700h96z" />
    <glyph glyph-name="pi" unicode="&#x3c0;" horiz-adv-x="705" 
d="M620 59q10 0 45 5v-69q-19 -7 -56 -7q-63 0 -94 24q-37 29 -37 96v323h-263v-431h-81v431h-94v69h623v-69h-103v-315q0 -33 15 -46q13 -11 45 -11z" />
    <glyph glyph-name="uni0E3F" unicode="&#xe3f;" horiz-adv-x="813" 
d="M620 352q42 -11 74 -41q49 -45 49 -118q0 -90 -61 -142q-60 -51 -162 -51h-73v-138h-76v138h-239v690h239v138h76v-138h67q96 0 153 -46q60 -48 60 -136q0 -66 -41 -111q-28 -31 -66 -45zM215 389h291q60 0 95 26q40 30 40 89q0 56 -34 84q-33 27 -95 27h-297v-226z
M516 76q67 0 102 28q38 30 38 92t-42 92q-36 26 -97 26h-302v-238h301z" />
    <glyph glyph-name="Wgrave" unicode="&#x1e80;" horiz-adv-x="1095" 
d="M518 920l62 -108q16 -31 -4 -39q-20 -9 -47 16l-126 131h115zM297 -12q-30 0 -47 17q-14 14 -26 52l-202 633h86l190 -622l191 536q13 46 58 47q24 0 39 -13q12 -10 20 -34l192 -536l190 622h85l-202 -633q-12 -37 -27 -52q-17 -17 -47 -17q-29 0 -46 16q-15 14 -26 48
l-178 504l-177 -504q-12 -34 -27 -48q-17 -16 -46 -16z" />
    <glyph glyph-name="wgrave" unicode="&#x1e81;" horiz-adv-x="887" 
d="M414 730l62 -108q15 -31 -4 -39q-20 -9 -47 16l-126 131h115zM250 -12q-49 0 -68 57l-156 455h83l142 -439l136 365q17 49 57 47q42 0 57 -47l138 -365l140 439h82l-154 -455q-19 -57 -68 -57q-26 0 -43 16q-15 14 -25 41l-127 340l-131 -340q-11 -30 -22 -41
q-15 -16 -41 -16z" />
    <glyph glyph-name="Wacute" unicode="&#x1e82;" horiz-adv-x="1095" 
d="M580 789q-25 -25 -46 -16q-22 10 -5 39l63 108h114zM297 -12q-30 0 -47 17q-14 14 -26 52l-202 633h86l190 -622l191 536q9 24 21 35q14 12 37 12q24 0 39 -13q12 -10 20 -34l192 -536l190 622h85l-202 -633q-12 -37 -27 -52q-17 -17 -47 -17q-29 0 -46 16q-14 13 -26 48
l-178 504l-177 -504q-12 -34 -27 -48q-17 -16 -46 -16z" />
    <glyph glyph-name="wacute" unicode="&#x1e83;" horiz-adv-x="887" 
d="M476 599q-25 -25 -46 -16q-22 10 -5 39l63 108h114zM250 -12q-49 0 -68 57l-156 455h83l142 -439l136 365q17 49 57 47q42 0 57 -47l138 -365l140 439h82l-154 -455q-19 -57 -68 -57q-26 0 -43 16q-15 14 -25 41l-127 340l-131 -340q-11 -30 -22 -41q-15 -16 -41 -16z
" />
    <glyph glyph-name="Wdieresis" unicode="&#x1e84;" horiz-adv-x="1095" 
d="M441 899q7 7 15 7t15 -7l41 -41q7 -7 7 -15q0 -7 -7 -15l-41 -41q-7 -7 -15 -7t-15 7l-41 41q-7 8 -7 15q0 8 7 15zM633 899q7 7 15 7t15 -7l41 -41q7 -7 7 -15q0 -7 -7 -15l-41 -41q-7 -7 -15 -7t-15 7l-41 41q-7 8 -7 15q0 8 7 15zM297 -12q-30 0 -47 17q-14 14 -26 52
l-202 633h86l190 -622l191 536q13 46 58 47q24 0 39 -13q12 -10 20 -34l192 -536l190 622h85l-202 -633q-12 -37 -27 -52q-17 -17 -47 -17q-29 0 -46 16q-15 14 -26 48l-178 504l-177 -504q-12 -34 -27 -48q-17 -16 -46 -16z" />
    <glyph glyph-name="wdieresis" unicode="&#x1e85;" horiz-adv-x="887" 
d="M337 709q7 7 15 7t15 -7l41 -41q7 -7 7 -15q0 -7 -7 -15l-41 -41q-7 -7 -15 -7t-15 7l-41 41q-7 8 -7 15q0 8 7 15zM529 709q7 7 15 7t15 -7l41 -41q7 -7 7 -15q0 -7 -7 -15l-41 -41q-7 -7 -15 -7t-15 7l-41 41q-7 8 -7 15q0 8 7 15zM250 -12q-49 0 -68 57l-156 455h83
l142 -439l136 365q17 49 57 47q42 0 57 -47l138 -365l140 439h82l-154 -455q-19 -57 -68 -57q-26 0 -43 16q-15 14 -25 41l-127 340l-131 -340q-11 -30 -22 -41q-15 -16 -41 -16z" />
    <glyph glyph-name="uni1E9E" unicode="&#x1e9e;" horiz-adv-x="769" 
d="M462 403q146 0 210 -55q57 -49 57 -148q0 -109 -75 -162q-70 -50 -206 -50q-92 0 -199 20v76q109 -23 199 -23q92 0 143 34q53 36 53 104q0 71 -42 105q-51 41 -171 41q-38 0 -100 -4v59l223 196q-47 30 -151 34q-125 0 -178 -38q-51 -37 -51 -122v-470h-83v473
q0 124 88 180q76 49 223 49q95 0 176 -30q65 -24 101 -59l-237 -211q7 1 20 1z" />
    <glyph glyph-name="uni1EA0" unicode="&#x1ea0;" 
d="M595 190h-410l-79 -190h-88l270 637q28 65 103 65q73 3 102 -65l271 -637h-89zM218 268h344l-138 331q-10 25 -33 25q-25 0 -35 -25zM445 -165q14 -14 0 -26l-42 -43q-13 -13 -26 0l-43 43q-15 13 0 26l43 44q13 12 26 0z" />
    <glyph glyph-name="uni1EA1" unicode="&#x1ea1;" horiz-adv-x="627" 
d="M262 -12q-92 0 -144 36q-58 40 -58 123q0 157 214 157q109 0 191 -28v38q0 66 -35 94q-40 32 -139 32q-95 0 -183 -23v73q86 22 198 22q133 0 191 -54q48 -45 48 -133v-317q0 -20 -18 -20q-12 0 -29 18l-30 33q-93 -51 -206 -51zM280 59q126 5 185 35v120q-68 20 -173 20
q-77 0 -111 -17q-38 -19 -38 -70q0 -46 32 -67q33 -21 105 -21zM295 -121q13 12 25 0l43 -44q12 -14 0 -26l-43 -43q-12 -14 -25 0l-44 43q-13 13 0 26z" />
    <glyph glyph-name="uni1EA2" unicode="&#x1ea2;" vert-adv-y="0" 
d="M595 190h-410l-79 -190h-88l270 637q28 65 103 65q73 3 102 -65l271 -637h-89zM218 268h344l-138 331q-10 25 -33 25q-25 0 -35 -25zM397 965q57 0 88 -20q28 -21 28 -57q0 -75 -107 -115h-65q16 6 31.5 15.5t30.5 21.5q41 34 41 61q0 17 -12 23q-7 4 -17.5 5t-26.5 1
q-32 0 -59 -7v65q20 4 36.5 5.5t31.5 1.5z" />
    <glyph glyph-name="uni1EA3" unicode="&#x1ea3;" horiz-adv-x="627" vert-adv-y="0" 
d="M262 -12q-92 0 -144 36q-58 40 -58 123q0 157 214 157q109 0 191 -28v38q0 66 -35 94q-40 32 -139 32q-95 0 -183 -23v73q86 22 198 22q133 0 191 -54q48 -45 48 -133v-317q0 -20 -18 -20q-12 0 -29 18l-30 33q-93 -51 -206 -51zM280 59q126 5 185 35v120q-68 20 -173 20
q-77 0 -111 -17q-38 -19 -38 -70q0 -46 32 -67q33 -21 105 -21zM300 775q57 0 88 -20q28 -21 28 -57q0 -75 -107 -115h-65q16 6 31.5 15.5t30.5 21.5q41 34 41 61q0 17 -12 23q-7 4 -17.5 5t-26.5 1q-32 0 -59 -7v65q20 4 36.5 5.5t31.5 1.5z" />
    <glyph glyph-name="uni1EA4" unicode="&#x1ea4;" vert-adv-y="0" 
d="M209 768l134 146q19 20 48 20q28 0 46 -20l133 -146h-87l-93 103l-93 -103h-88zM595 190h-410l-79 -190h-88l270 637q28 65 103 65q73 3 102 -65l271 -637h-89zM218 268h344l-138 331q-10 25 -33 25q-25 0 -35 -25zM599 899q-27 -25 -47 -16q-19 8 -4 39l63 108h114z" />
    <glyph glyph-name="uni1EA5" unicode="&#x1ea5;" horiz-adv-x="627" vert-adv-y="0" 
d="M266 724q17 19 47 19t46 -19l134 -146h-87l-93 103l-94 -103h-87zM262 -12q-92 0 -144 36q-58 40 -58 123q0 157 214 157q109 0 191 -28v38q0 66 -35 94q-40 32 -139 32q-95 0 -183 -23v73q86 22 198 22q133 0 191 -54q48 -45 48 -133v-317q0 -20 -18 -20q-12 0 -29 18
l-30 33q-93 -51 -206 -51zM280 59q126 5 185 35v120q-68 20 -173 20q-77 0 -111 -17q-38 -19 -38 -70q0 -46 32 -67q33 -21 105 -21zM519 719q-27 -25 -47 -16q-19 8 -4 39l63 108h114z" />
    <glyph glyph-name="uni1EA6" unicode="&#x1ea6;" vert-adv-y="0" 
d="M209 768l134 146q19 20 48 20q28 0 46 -20l133 -146h-87l-93 103l-93 -103h-88zM595 190h-410l-79 -190h-88l270 637q28 65 103 65q73 3 102 -65l271 -637h-89zM218 268h344l-138 331q-10 25 -33 25q-25 0 -35 -25zM533 1030l62 -108q17 -29 -5 -39q-21 -9 -46 16
l-126 131h115z" />
    <glyph glyph-name="uni1EA7" unicode="&#x1ea7;" horiz-adv-x="627" vert-adv-y="0" 
d="M266 724q17 19 47 19t46 -19l134 -146h-87l-93 103l-94 -103h-87zM262 -12q-92 0 -144 36q-58 40 -58 123q0 157 214 157q109 0 191 -28v38q0 66 -35 94q-40 32 -139 32q-95 0 -183 -23v73q86 22 198 22q133 0 191 -54q48 -45 48 -133v-317q0 -20 -18 -20q-12 0 -29 18
l-30 33q-93 -51 -206 -51zM280 59q126 5 185 35v120q-68 20 -173 20q-77 0 -111 -17q-38 -19 -38 -70q0 -46 32 -67q33 -21 105 -21zM451 850l62 -108q17 -29 -5 -39q-21 -9 -46 16l-126 131h115z" />
    <glyph glyph-name="uni1EA8" unicode="&#x1ea8;" vert-adv-y="0" 
d="M209 768l134 146q19 20 48 20q28 0 46 -20l133 -146h-87l-93 103l-93 -103h-88zM595 190h-410l-79 -190h-88l270 637q28 65 103 65q73 3 102 -65l271 -637h-89zM218 268h344l-138 331q-10 25 -33 25q-25 0 -35 -25zM599 1062q57 0 88 -20q28 -21 28 -57q0 -75 -107 -115
h-65q16 6 31.5 15.5t30.5 21.5q41 34 41 61q0 17 -12 23q-7 4 -17.5 5t-26.5 1q-32 0 -59 -7v65q20 4 36.5 5.5t31.5 1.5z" />
    <glyph glyph-name="uni1EA9" unicode="&#x1ea9;" horiz-adv-x="627" vert-adv-y="0" 
d="M266 724q17 19 47 19t46 -19l134 -146h-87l-93 103l-94 -103h-87zM262 -12q-92 0 -144 36q-58 40 -58 123q0 157 214 157q109 0 191 -28v38q0 66 -35 94q-40 32 -139 32q-95 0 -183 -23v73q86 22 198 22q133 0 191 -54q48 -45 48 -133v-317q0 -20 -18 -20q-12 0 -29 18
l-30 33q-93 -51 -206 -51zM280 59q126 5 185 35v120q-68 20 -173 20q-77 0 -111 -17q-38 -19 -38 -70q0 -46 32 -67q33 -21 105 -21zM508 882q57 0 88 -20q28 -21 28 -57q0 -75 -107 -115h-65q16 6 31.5 15.5t30.5 21.5q41 34 41 61q0 17 -12 23q-7 4 -17.5 5t-26.5 1
q-32 0 -59 -7v65q20 4 36.5 5.5t31.5 1.5z" />
    <glyph glyph-name="uni1EAA" unicode="&#x1eaa;" vert-adv-y="0" 
d="M209 768l134 146q19 20 48 20q28 0 46 -20l133 -146h-87l-93 103l-93 -103h-88zM595 190h-410l-79 -190h-88l270 637q28 65 103 65q73 3 102 -65l271 -637h-89zM218 268h344l-138 331q-10 25 -33 25q-25 0 -35 -25zM455 968q-38 0 -82 26q-34 18 -52 18q-19 0 -37 -12
q-14 -9 -22 -23l-47 40q11 24 37 41q29 20 65 20q38 0 85 -28q32 -19 50 -19q19 0 38 16q17 14 27 31l50 -40q-16 -26 -45 -46q-34 -24 -67 -24z" />
    <glyph glyph-name="uni1EAB" unicode="&#x1eab;" horiz-adv-x="627" vert-adv-y="0" 
d="M266 724q17 19 47 19t46 -19l134 -146h-87l-93 103l-94 -103h-87zM262 -12q-92 0 -144 36q-58 40 -58 123q0 157 214 157q109 0 191 -28v38q0 66 -35 94q-40 32 -139 32q-95 0 -183 -23v73q86 22 198 22q133 0 191 -54q48 -45 48 -133v-317q0 -20 -18 -20q-12 0 -29 18
l-30 33q-93 -51 -206 -51zM280 59q126 5 185 35v120q-68 20 -173 20q-77 0 -111 -17q-38 -19 -38 -70q0 -46 32 -67q33 -21 105 -21zM377 788q-38 0 -82 26q-34 18 -52 18q-19 0 -37 -12q-14 -9 -22 -23l-47 40q11 24 37 41q29 20 65 20q38 0 85 -28q32 -19 50 -19
q19 0 38 16q17 14 27 31l50 -40q-16 -26 -45 -46q-34 -24 -67 -24z" />
    <glyph glyph-name="uni1EAC" unicode="&#x1eac;" vert-adv-y="0" 
d="M445 -165q14 -14 0 -26l-42 -43q-13 -13 -26 0l-43 43q-15 13 0 26l43 44q13 12 26 0zM209 768l134 146q19 20 48 20q28 0 46 -20l133 -146h-87l-93 103l-93 -103h-88zM595 190h-410l-79 -190h-88l270 637q28 65 103 65q73 3 102 -65l271 -637h-89zM218 268h344l-138 331
q-10 25 -33 25q-25 0 -35 -25z" />
    <glyph glyph-name="uni1EAD" unicode="&#x1ead;" horiz-adv-x="627" vert-adv-y="0" 
d="M295 -121q13 12 25 0l43 -44q12 -14 0 -26l-43 -43q-12 -14 -25 0l-44 43q-13 13 0 26zM266 724q17 19 47 19t46 -19l134 -146h-87l-93 103l-94 -103h-87zM262 -12q-92 0 -144 36q-58 40 -58 123q0 157 214 157q109 0 191 -28v38q0 66 -35 94q-40 32 -139 32
q-95 0 -183 -23v73q86 22 198 22q133 0 191 -54q48 -45 48 -133v-317q0 -20 -18 -20q-12 0 -29 18l-30 33q-93 -51 -206 -51zM280 59q126 5 185 35v120q-68 20 -173 20q-77 0 -111 -17q-38 -19 -38 -70q0 -46 32 -67q33 -21 105 -21z" />
    <glyph glyph-name="uni1EAE" unicode="&#x1eae;" vert-adv-y="0" 
d="M390 769q-161 0 -166 151h73q2 -46 23 -68q22 -24 70 -24q46 0 68 22q21 21 23 70h75q-5 -151 -166 -151zM595 190h-410l-79 -190h-88l270 637q28 65 103 65q73 3 102 -65l271 -637h-89zM218 268h344l-138 331q-10 25 -33 25q-25 0 -35 -25zM414 929q-27 -25 -47 -16
q-19 8 -4 39l63 108h114z" />
    <glyph glyph-name="uni1EAF" unicode="&#x1eaf;" horiz-adv-x="627" vert-adv-y="0" 
d="M313 579q-161 0 -166 151h73q2 -47 22 -68q22 -24 71 -24q46 0 68 22q21 21 23 70h75q-5 -151 -166 -151zM262 -12q-92 0 -144 36q-58 40 -58 123q0 157 214 157q109 0 191 -28v38q0 66 -35 94q-40 32 -139 32q-95 0 -183 -23v73q86 22 198 22q133 0 191 -54
q48 -45 48 -133v-317q0 -20 -18 -20q-12 0 -29 18l-30 33q-93 -51 -206 -51zM280 59q126 5 185 35v120q-68 20 -173 20q-77 0 -111 -17q-38 -19 -38 -70q0 -46 32 -67q33 -21 105 -21zM342 749q-27 -25 -47 -16q-19 8 -4 39l63 108h114z" />
    <glyph glyph-name="uni1EB0" unicode="&#x1eb0;" vert-adv-y="0" 
d="M390 769q-161 0 -166 151h73q2 -46 23 -68q22 -24 70 -24q46 0 68 22q21 21 23 70h75q-5 -151 -166 -151zM595 190h-410l-79 -190h-88l270 637q28 65 103 65q73 3 102 -65l271 -637h-89zM218 268h344l-138 331q-10 25 -33 25q-25 0 -35 -25zM357 1060l62 -108
q17 -29 -5 -39q-21 -9 -46 16l-126 131h115z" />
    <glyph glyph-name="uni1EB1" unicode="&#x1eb1;" horiz-adv-x="627" vert-adv-y="0" 
d="M313 579q-161 0 -166 151h73q2 -47 22 -68q22 -24 71 -24q46 0 68 22q21 21 23 70h75q-5 -151 -166 -151zM262 -12q-92 0 -144 36q-58 40 -58 123q0 157 214 157q109 0 191 -28v38q0 66 -35 94q-40 32 -139 32q-95 0 -183 -23v73q86 22 198 22q133 0 191 -54
q48 -45 48 -133v-317q0 -20 -18 -20q-12 0 -29 18l-30 33q-93 -51 -206 -51zM280 59q126 5 185 35v120q-68 20 -173 20q-77 0 -111 -17q-38 -19 -38 -70q0 -46 32 -67q33 -21 105 -21zM284 880l62 -108q17 -29 -5 -39q-21 -9 -46 16l-126 131h115z" />
    <glyph glyph-name="uni1EB2" unicode="&#x1eb2;" vert-adv-y="0" 
d="M390 769q-161 0 -166 151h73q2 -46 23 -68q22 -24 70 -24q46 0 68 22q21 21 23 70h75q-5 -151 -166 -151zM595 190h-410l-79 -190h-88l270 637q28 65 103 65q73 3 102 -65l271 -637h-89zM218 268h344l-138 331q-10 25 -33 25q-25 0 -35 -25zM397 1122q57 0 88 -20
q28 -21 28 -57q0 -75 -107 -115h-65q16 6 31.5 15.5t30.5 21.5q41 34 41 61q0 17 -12 23q-7 4 -17.5 5t-26.5 1q-32 0 -59 -7v65q20 4 36.5 5.5t31.5 1.5z" />
    <glyph glyph-name="uni1EB3" unicode="&#x1eb3;" horiz-adv-x="627" vert-adv-y="0" 
d="M313 579q-161 0 -166 151h73q2 -47 22 -68q22 -24 71 -24q46 0 68 22q21 21 23 70h75q-5 -151 -166 -151zM262 -12q-92 0 -144 36q-58 40 -58 123q0 157 214 157q109 0 191 -28v38q0 66 -35 94q-40 32 -139 32q-95 0 -183 -23v73q86 22 198 22q133 0 191 -54
q48 -45 48 -133v-317q0 -20 -18 -20q-12 0 -29 18l-30 33q-93 -51 -206 -51zM280 59q126 5 185 35v120q-68 20 -173 20q-77 0 -111 -17q-38 -19 -38 -70q0 -46 32 -67q33 -21 105 -21zM320 942q57 0 88 -20q28 -21 28 -57q0 -75 -107 -115h-65q16 6 31.5 15.5t30.5 21.5
q41 34 41 61q0 17 -12 23q-7 4 -17.5 5t-26.5 1q-32 0 -59 -7v65q20 4 36.5 5.5t31.5 1.5z" />
    <glyph glyph-name="uni1EB4" unicode="&#x1eb4;" vert-adv-y="0" 
d="M390 769q-161 0 -166 151h73q2 -46 23 -68q22 -24 70 -24q46 0 68 22q21 21 23 70h75q-5 -151 -166 -151zM595 190h-410l-79 -190h-88l270 637q28 65 103 65q73 3 102 -65l271 -637h-89zM218 268h344l-138 331q-10 25 -33 25q-25 0 -35 -25zM455 968q-38 0 -82 26
q-34 18 -52 18q-19 0 -37 -12q-14 -9 -22 -23l-47 40q11 24 37 41q29 20 65 20q38 0 85 -28q32 -19 50 -19q19 0 38 16q17 14 27 31l50 -40q-16 -26 -45 -46q-34 -24 -67 -24z" />
    <glyph glyph-name="uni1EB5" unicode="&#x1eb5;" horiz-adv-x="627" vert-adv-y="0" 
d="M313 579q-161 0 -166 151h73q2 -47 22 -68q22 -24 71 -24q46 0 68 22q21 21 23 70h75q-5 -151 -166 -151zM262 -12q-92 0 -144 36q-58 40 -58 123q0 157 214 157q109 0 191 -28v38q0 66 -35 94q-40 32 -139 32q-95 0 -183 -23v73q86 22 198 22q133 0 191 -54
q48 -45 48 -133v-317q0 -20 -18 -20q-12 0 -29 18l-30 33q-93 -51 -206 -51zM280 59q126 5 185 35v120q-68 20 -173 20q-77 0 -111 -17q-38 -19 -38 -70q0 -46 32 -67q33 -21 105 -21zM377 788q-38 0 -82 26q-34 18 -52 18q-19 0 -37 -12q-14 -9 -22 -23l-47 40q11 24 37 41
q29 20 65 20q38 0 85 -28q32 -19 50 -19q19 0 38 16q17 14 27 31l50 -40q-16 -26 -45 -46q-34 -24 -67 -24z" />
    <glyph glyph-name="uni1EB6" unicode="&#x1eb6;" vert-adv-y="0" 
d="M445 -165q14 -14 0 -26l-42 -43q-13 -13 -26 0l-43 43q-15 13 0 26l43 44q13 12 26 0zM390 769q-161 0 -166 151h73q2 -46 23 -68q22 -24 70 -24q46 0 68 22q21 21 23 70h75q-5 -151 -166 -151zM595 190h-410l-79 -190h-88l270 637q28 65 103 65q73 3 102 -65l271 -637
h-89zM218 268h344l-138 331q-10 25 -33 25q-25 0 -35 -25z" />
    <glyph glyph-name="uni1EB7" unicode="&#x1eb7;" horiz-adv-x="627" vert-adv-y="0" 
d="M295 -121q13 12 25 0l43 -44q12 -14 0 -26l-43 -43q-12 -14 -25 0l-44 43q-13 13 0 26zM313 579q-161 0 -166 151h73q2 -47 22 -68q22 -24 71 -24q46 0 68 22q21 21 23 70h75q-5 -151 -166 -151zM262 -12q-92 0 -144 36q-58 40 -58 123q0 157 214 157q109 0 191 -28v38
q0 66 -35 94q-40 32 -139 32q-95 0 -183 -23v73q86 22 198 22q133 0 191 -54q48 -45 48 -133v-317q0 -20 -18 -20q-12 0 -29 18l-30 33q-93 -51 -206 -51zM280 59q126 5 185 35v120q-68 20 -173 20q-77 0 -111 -17q-38 -19 -38 -70q0 -46 32 -67q33 -21 105 -21z" />
    <glyph glyph-name="uni1EB8" unicode="&#x1eb8;" horiz-adv-x="704" 
d="M612 388v-77h-429v-234h453v-77h-535v690h535v-78h-453v-224h429zM425 -165q12 -14 0 -26l-43 -43q-12 -14 -25 0l-44 43q-13 13 0 26l44 44q13 12 25 0z" />
    <glyph glyph-name="uni1EB9" unicode="&#x1eb9;" horiz-adv-x="618" 
d="M559 300q0 -49 -5 -79h-418q7 -90 55 -126q47 -35 163 -35q96 0 175 28v-74q-65 -26 -181 -26q-156 0 -225 64q-67 62 -67 202q0 258 261 258q128 0 190 -65q52 -54 52 -147zM480 288q3 78 -36 115q-40 38 -128 38t-131 -37t-49 -116h344zM364 -165q14 -14 0 -26l-42 -43
q-13 -13 -26 0l-43 43q-15 13 0 26l43 44q13 12 26 0z" />
    <glyph glyph-name="uni1EBA" unicode="&#x1eba;" horiz-adv-x="704" vert-adv-y="0" 
d="M612 388v-77h-429v-234h453v-77h-535v690h535v-78h-453v-224h429zM358 965q57 0 88 -20q28 -21 28 -57q0 -75 -107 -115h-65q16 6 31.5 15.5t30.5 21.5q41 34 41 61q0 17 -12 23q-7 4 -17.5 5t-26.5 1q-32 0 -59 -7v65q20 4 36.5 5.5t31.5 1.5z" />
    <glyph glyph-name="uni1EBB" unicode="&#x1ebb;" horiz-adv-x="618" vert-adv-y="0" 
d="M559 300q0 -49 -5 -79h-418q7 -90 55 -126q47 -35 163 -35q96 0 175 28v-74q-65 -26 -181 -26q-156 0 -225 64q-67 62 -67 202q0 258 261 258q128 0 190 -65q52 -54 52 -147zM480 288q3 78 -36 115q-40 38 -128 38t-131 -37t-49 -116h344zM315 775q57 0 88 -20
q28 -21 28 -57q0 -75 -107 -115h-65q16 6 31.5 15.5t30.5 21.5q41 34 41 61q0 17 -12 23q-7 4 -17.5 5t-26.5 1q-32 0 -59 -7v65q20 4 36.5 5.5t31.5 1.5z" />
    <glyph glyph-name="uni1EBC" unicode="&#x1ebc;" horiz-adv-x="702" 
d="M304 832q-19 0 -37 -12q-14 -9 -22 -23l-47 40q11 24 37 41q29 20 65 20q38 0 85 -28q32 -19 50 -19q20 0 39 16q15 12 26 31l50 -40q-16 -26 -45 -46q-34 -24 -67 -24q-38 0 -82 26q-34 18 -52 18zM185 388h425v-77h-425v-234h449v-77h-533v690h533v-77h-449v-225z" />
    <glyph glyph-name="uni1EBD" unicode="&#x1ebd;" horiz-adv-x="618" 
d="M243 642q-19 0 -36 -12q-15 -11 -22 -23l-48 40q13 25 37 41q29 20 66 20t84 -28q32 -19 50 -19q19 0 39 16q16 13 27 31l49 -40q-16 -26 -45 -46q-34 -24 -66 -24q-26 0 -47 8q-10 4 -36 18q-34 18 -52 18zM559 300q0 -49 -5 -79h-418q7 -90 55 -126q47 -35 163 -35
q96 0 175 28v-74q-65 -26 -181 -26q-156 0 -225 64q-67 62 -67 202q0 258 261 258q128 0 190 -65q52 -54 52 -147zM480 288q3 78 -36 115q-40 38 -128 38t-131 -37t-49 -116h344z" />
    <glyph glyph-name="uni1EBE" unicode="&#x1ebe;" horiz-adv-x="704" vert-adv-y="0" 
d="M194 768l134 146q18 20 47 20q28 0 46 -20l134 -146h-88l-93 103l-93 -103h-87zM612 388v-77h-429v-234h453v-77h-535v690h535v-78h-453v-224h429zM597 899q-27 -25 -47 -16q-19 8 -4 39l63 108h114z" />
    <glyph glyph-name="uni1EBF" unicode="&#x1ebf;" horiz-adv-x="618" vert-adv-y="0" 
d="M133 578l134 146q18 19 48 19q29 0 46 -19l133 -146h-87l-93 103l-93 -103h-88zM559 300q0 -49 -5 -79h-418q7 -90 55 -126q47 -35 163 -35q96 0 175 28v-74q-65 -26 -181 -26q-156 0 -225 64q-67 62 -67 202q0 258 261 258q128 0 190 -65q52 -54 52 -147zM480 288
q3 78 -36 115q-40 38 -128 38t-131 -37t-49 -116h344zM509 719q-27 -25 -47 -16q-19 8 -4 39l63 108h114z" />
    <glyph glyph-name="uni1EC0" unicode="&#x1ec0;" horiz-adv-x="704" vert-adv-y="0" 
d="M194 768l134 146q18 20 47 20q28 0 46 -20l134 -146h-88l-93 103l-93 -103h-87zM612 388v-77h-429v-234h453v-77h-535v690h535v-78h-453v-224h429zM529 1030l62 -108q17 -29 -5 -39q-21 -9 -46 16l-126 131h115z" />
    <glyph glyph-name="uni1EC1" unicode="&#x1ec1;" horiz-adv-x="618" vert-adv-y="0" 
d="M133 578l134 146q18 19 48 19q29 0 46 -19l133 -146h-87l-93 103l-93 -103h-88zM559 300q0 -49 -5 -79h-418q7 -90 55 -126q47 -35 163 -35q96 0 175 28v-74q-65 -26 -181 -26q-156 0 -225 64q-67 62 -67 202q0 258 261 258q128 0 190 -65q52 -54 52 -147zM480 288
q3 78 -36 115q-40 38 -128 38t-131 -37t-49 -116h344zM462 850l62 -108q17 -29 -5 -39q-21 -9 -46 16l-126 131h115z" />
    <glyph glyph-name="uni1EC2" unicode="&#x1ec2;" horiz-adv-x="704" vert-adv-y="0" 
d="M194 768l134 146q18 20 47 20q28 0 46 -20l134 -146h-88l-93 103l-93 -103h-87zM612 388v-77h-429v-234h453v-77h-535v690h535v-78h-453v-224h429zM585 1062q57 0 88 -20q28 -21 28 -57q0 -75 -107 -115h-65q16 6 31.5 15.5t30.5 21.5q41 34 41 61q0 17 -12 23
q-7 4 -17.5 5t-26.5 1q-32 0 -59 -7v65q20 4 36.5 5.5t31.5 1.5z" />
    <glyph glyph-name="uni1EC3" unicode="&#x1ec3;" horiz-adv-x="618" vert-adv-y="0" 
d="M133 578l134 146q18 19 48 19q29 0 46 -19l133 -146h-87l-93 103l-93 -103h-88zM559 300q0 -49 -5 -79h-418q7 -90 55 -126q47 -35 163 -35q96 0 175 28v-74q-65 -26 -181 -26q-156 0 -225 64q-67 62 -67 202q0 258 261 258q128 0 190 -65q52 -54 52 -147zM480 288
q3 78 -36 115q-40 38 -128 38t-131 -37t-49 -116h344zM512 882q57 0 88 -20q28 -21 28 -57q0 -75 -107 -115h-65q16 6 31.5 15.5t30.5 21.5q41 34 41 61q0 17 -12 23q-7 4 -17.5 5t-26.5 1q-32 0 -59 -7v65q20 4 36.5 5.5t31.5 1.5z" />
    <glyph glyph-name="uni1EC4" unicode="&#x1ec4;" horiz-adv-x="704" vert-adv-y="0" 
d="M194 768l134 146q18 20 47 20q28 0 46 -20l134 -146h-88l-93 103l-93 -103h-87zM612 388v-77h-429v-234h453v-77h-535v690h535v-78h-453v-224h429zM436 968q-38 0 -82 26q-34 18 -52 18q-19 0 -37 -12q-14 -9 -22 -23l-47 40q11 24 37 41q29 20 65 20q38 0 85 -28
q32 -19 50 -19q19 0 38 16q17 14 27 31l50 -40q-16 -26 -45 -46q-34 -24 -67 -24z" />
    <glyph glyph-name="uni1EC5" unicode="&#x1ec5;" horiz-adv-x="618" vert-adv-y="0" 
d="M133 578l134 146q18 19 48 19q29 0 46 -19l133 -146h-87l-93 103l-93 -103h-88zM559 300q0 -49 -5 -79h-418q7 -90 55 -126q47 -35 163 -35q96 0 175 28v-74q-65 -26 -181 -26q-156 0 -225 64q-67 62 -67 202q0 258 261 258q128 0 190 -65q52 -54 52 -147zM480 288
q3 78 -36 115q-40 38 -128 38t-131 -37t-49 -116h344zM373 788q-38 0 -82 26q-34 18 -52 18q-19 0 -37 -12q-14 -9 -22 -23l-47 40q11 24 37 41q29 20 65 20q38 0 85 -28q32 -19 50 -19q19 0 38 16q17 14 27 31l50 -40q-16 -26 -45 -46q-34 -24 -67 -24z" />
    <glyph glyph-name="uni1EC6" unicode="&#x1ec6;" horiz-adv-x="704" vert-adv-y="0" 
d="M425 -165q12 -14 0 -26l-43 -43q-12 -14 -25 0l-44 43q-13 13 0 26l44 44q13 12 25 0zM194 768l134 146q18 20 47 20q28 0 46 -20l134 -146h-88l-93 103l-93 -103h-87zM612 388v-77h-429v-234h453v-77h-535v690h535v-78h-453v-224h429z" />
    <glyph glyph-name="uni1EC7" unicode="&#x1ec7;" horiz-adv-x="618" vert-adv-y="0" 
d="M364 -165q14 -14 0 -26l-42 -43q-13 -13 -26 0l-43 43q-15 13 0 26l43 44q13 12 26 0zM133 578l134 146q18 19 48 19q29 0 46 -19l133 -146h-87l-93 103l-93 -103h-88zM559 300q0 -49 -5 -79h-418q7 -90 55 -126q47 -35 163 -35q96 0 175 28v-74q-65 -26 -181 -26
q-156 0 -225 64q-67 62 -67 202q0 258 261 258q128 0 190 -65q52 -54 52 -147zM480 288q3 78 -36 115q-40 38 -128 38t-131 -37t-49 -116h344z" />
    <glyph glyph-name="uni1EC8" unicode="&#x1ec8;" horiz-adv-x="283" vert-adv-y="0" 
d="M184 690v-690h-84v690h84zM148 965q57 0 88 -20q28 -21 28 -57q0 -75 -107 -115h-65q16 6 31.5 15.5t30.5 21.5q41 34 41 61q0 17 -12 23q-7 4 -17.5 5t-26.5 1q-32 0 -59 -7v65q20 4 36.5 5.5t31.5 1.5z" />
    <glyph glyph-name="uni1EC9" unicode="&#x1ec9;" horiz-adv-x="258" vert-adv-y="0" 
d="M170 500v-500h-82v500h82zM136 775q57 0 88 -20q28 -21 28 -57q0 -75 -107 -115h-65q16 6 31.5 15.5t30.5 21.5q41 34 41 61q0 17 -12 23q-7 4 -17.5 5t-26.5 1q-32 0 -59 -7v65q20 4 36.5 5.5t31.5 1.5z" />
    <glyph glyph-name="uni1ECA" unicode="&#x1eca;" horiz-adv-x="283" 
d="M100 690h84v-690h-84v690zM86 -191q-15 13 0 26l43 44q13 12 26 0l42 -44q14 -14 0 -26l-42 -43q-13 -13 -26 0z" />
    <glyph glyph-name="uni1ECB" unicode="&#x1ecb;" horiz-adv-x="259" 
d="M115 728q14 14 28 0l44 -44q14 -14 0 -28l-44 -42q-14 -14 -28 0l-44 42q-13 13 0 28zM170 500v-500h-81v500h81zM117 -121q13 12 25 0l43 -44q12 -14 0 -26l-43 -43q-12 -14 -25 0l-44 43q-13 13 0 26z" />
    <glyph glyph-name="uni1ECC" unicode="&#x1ecc;" horiz-adv-x="839" 
d="M484 702q138 0 218 -96q79 -95 79 -261q0 -167 -79 -262t-218 -95h-130q-138 0 -217 95t-79 262q0 165 79 261t217 96h130zM473 65q103 0 160 66q62 71 62 214t-62 214q-57 66 -160 66h-107q-103 0 -160 -66q-62 -72 -62 -214t62 -214q57 -66 160 -66h107zM405 -121
q13 12 26 0l42 -44q14 -14 0 -26l-42 -43q-13 -13 -26 0l-43 43q-15 13 0 26z" />
    <glyph glyph-name="uni1ECD" unicode="&#x1ecd;" horiz-adv-x="680" 
d="M303 -12q-116 0 -181 69q-66 70 -66 193q0 122 66 192t181 70h74q115 0 181 -70t66 -192q0 -123 -66 -193q-65 -69 -181 -69h-74zM372 60q82 0 125 47q44 48 44 143q0 190 -169 190h-65q-82 0 -125 -47q-44 -48 -44 -143t44 -143q43 -47 125 -47h65zM326 -121q14 12 26 0
l43 -44q12 -14 0 -26l-43 -43q-12 -14 -26 0l-43 43q-15 13 0 26z" />
    <glyph glyph-name="uni1ECE" unicode="&#x1ece;" horiz-adv-x="839" vert-adv-y="0" 
d="M484 702q138 0 218 -96q79 -95 79 -261q0 -167 -79 -262t-218 -95h-130q-138 0 -217 95t-79 262q0 165 79 261t217 96h130zM473 65q103 0 160 66q62 71 62 214t-62 214q-57 66 -160 66h-107q-103 0 -160 -66q-62 -72 -62 -214t62 -214q57 -66 160 -66h107zM426 965
q57 0 88 -20q28 -21 28 -57q0 -75 -107 -115h-65q16 6 31.5 15.5t30.5 21.5q41 34 41 61q0 17 -12 23q-7 4 -17.5 5t-26.5 1q-32 0 -59 -7v65q20 4 36.5 5.5t31.5 1.5z" />
    <glyph glyph-name="uni1ECF" unicode="&#x1ecf;" horiz-adv-x="680" vert-adv-y="0" 
d="M303 -12q-116 0 -181 69q-66 70 -66 193q0 122 66 192t181 70h74q115 0 181 -70t66 -192q0 -123 -66 -193q-65 -69 -181 -69h-74zM372 60q82 0 125 47q44 48 44 143q0 190 -169 190h-65q-82 0 -125 -47q-44 -48 -44 -143t44 -143q43 -47 125 -47h65zM346 775q57 0 88 -20
q28 -21 28 -57q0 -75 -107 -115h-65q16 6 31.5 15.5t30.5 21.5q41 34 41 61q0 17 -12 23q-7 4 -17.5 5t-26.5 1q-32 0 -59 -7v65q20 4 36.5 5.5t31.5 1.5z" />
    <glyph glyph-name="uni1ED0" unicode="&#x1ed0;" horiz-adv-x="839" vert-adv-y="0" 
d="M371 914q19 20 48 20q28 0 46 -20l133 -146h-87l-93 103l-93 -103h-88zM484 702q138 0 218 -96q79 -95 79 -261q0 -167 -79 -262t-218 -95h-130q-138 0 -217 95t-79 262q0 165 79 261t217 96h130zM473 65q103 0 160 66q62 71 62 214t-62 214q-57 66 -160 66h-107
q-103 0 -160 -66q-62 -72 -62 -214t62 -214q57 -66 160 -66h107zM638 899q-27 -25 -47 -16q-19 8 -4 39l63 108h114z" />
    <glyph glyph-name="uni1ED1" unicode="&#x1ed1;" horiz-adv-x="680" vert-adv-y="0" 
d="M293 724q17 19 47 19q29 0 46 -19l133 -146h-87l-93 103l-93 -103h-87zM303 -12q-116 0 -181 69q-66 70 -66 193q0 122 66 192t181 70h74q115 0 181 -70t66 -192q0 -123 -66 -193q-65 -69 -181 -69h-74zM372 60q82 0 125 47q44 48 44 143q0 190 -169 190h-65
q-82 0 -125 -47q-44 -48 -44 -143t44 -143q43 -47 125 -47h65zM542 719q-27 -25 -47 -16q-19 8 -4 39l63 108h114z" />
    <glyph glyph-name="uni1ED2" unicode="&#x1ed2;" horiz-adv-x="839" vert-adv-y="0" 
d="M371 914q19 20 48 20q28 0 46 -20l133 -146h-87l-93 103l-93 -103h-88zM484 702q138 0 218 -96q79 -95 79 -261q0 -167 -79 -262t-218 -95h-130q-138 0 -217 95t-79 262q0 165 79 261t217 96h130zM473 65q103 0 160 66q62 71 62 214t-62 214q-57 66 -160 66h-107
q-103 0 -160 -66q-62 -72 -62 -214t62 -214q57 -66 160 -66h107zM569 1030l62 -108q17 -29 -5 -39q-21 -9 -46 16l-126 131h115z" />
    <glyph glyph-name="uni1ED3" unicode="&#x1ed3;" horiz-adv-x="680" vert-adv-y="0" 
d="M293 724q17 19 47 19q29 0 46 -19l133 -146h-87l-93 103l-93 -103h-87zM303 -12q-116 0 -181 69q-66 70 -66 193q0 122 66 192t181 70h74q115 0 181 -70t66 -192q0 -123 -66 -193q-65 -69 -181 -69h-74zM372 60q82 0 125 47q44 48 44 143q0 190 -169 190h-65
q-82 0 -125 -47q-44 -48 -44 -143t44 -143q43 -47 125 -47h65zM480 850l62 -108q17 -29 -5 -39q-21 -9 -46 16l-126 131h115z" />
    <glyph glyph-name="uni1ED4" unicode="&#x1ed4;" horiz-adv-x="839" vert-adv-y="0" 
d="M371 914q19 20 48 20q28 0 46 -20l133 -146h-87l-93 103l-93 -103h-88zM484 702q138 0 218 -96q79 -95 79 -261q0 -167 -79 -262t-218 -95h-130q-138 0 -217 95t-79 262q0 165 79 261t217 96h130zM473 65q103 0 160 66q62 71 62 214t-62 214q-57 66 -160 66h-107
q-103 0 -160 -66q-62 -72 -62 -214t62 -214q57 -66 160 -66h107zM621 1062q57 0 88 -20q28 -21 28 -57q0 -75 -107 -115h-65q16 6 31.5 15.5t30.5 21.5q41 34 41 61q0 17 -12 23q-7 4 -17.5 5t-26.5 1q-32 0 -59 -7v65q20 4 36.5 5.5t31.5 1.5z" />
    <glyph glyph-name="uni1ED5" unicode="&#x1ed5;" horiz-adv-x="680" vert-adv-y="0" 
d="M293 724q17 19 47 19q29 0 46 -19l133 -146h-87l-93 103l-93 -103h-87zM303 -12q-116 0 -181 69q-66 70 -66 193q0 122 66 192t181 70h74q115 0 181 -70t66 -192q0 -123 -66 -193q-65 -69 -181 -69h-74zM372 60q82 0 125 47q44 48 44 143q0 190 -169 190h-65
q-82 0 -125 -47q-44 -48 -44 -143t44 -143q43 -47 125 -47h65zM536 882q57 0 88 -20q28 -21 28 -57q0 -75 -107 -115h-65q16 6 31.5 15.5t30.5 21.5q41 34 41 61q0 17 -12 23q-7 4 -17.5 5t-26.5 1q-32 0 -59 -7v65q20 4 36.5 5.5t31.5 1.5z" />
    <glyph glyph-name="uni1ED6" unicode="&#x1ed6;" horiz-adv-x="839" vert-adv-y="0" 
d="M371 914q19 20 48 20q28 0 46 -20l133 -146h-87l-93 103l-93 -103h-88zM484 702q138 0 218 -96q79 -95 79 -261q0 -167 -79 -262t-218 -95h-130q-138 0 -217 95t-79 262q0 165 79 261t217 96h130zM473 65q103 0 160 66q62 71 62 214t-62 214q-57 66 -160 66h-107
q-103 0 -160 -66q-62 -72 -62 -214t62 -214q57 -66 160 -66h107zM483 968q-38 0 -82 26q-34 18 -52 18q-19 0 -37 -12q-14 -9 -22 -23l-47 40q11 24 37 41q29 20 65 20q38 0 85 -28q32 -19 50 -19q19 0 38 16q17 14 27 31l50 -40q-16 -26 -45 -46q-34 -24 -67 -24z" />
    <glyph glyph-name="uni1ED7" unicode="&#x1ed7;" horiz-adv-x="680" vert-adv-y="0" 
d="M293 724q17 19 47 19q29 0 46 -19l133 -146h-87l-93 103l-93 -103h-87zM303 -12q-116 0 -181 69q-66 70 -66 193q0 122 66 192t181 70h74q115 0 181 -70t66 -192q0 -123 -66 -193q-65 -69 -181 -69h-74zM372 60q82 0 125 47q44 48 44 143q0 190 -169 190h-65
q-82 0 -125 -47q-44 -48 -44 -143t44 -143q43 -47 125 -47h65zM404 788q-38 0 -82 26q-34 18 -52 18q-19 0 -37 -12q-14 -9 -22 -23l-47 40q11 24 37 41q29 20 65 20q38 0 85 -28q32 -19 50 -19q19 0 38 16q17 14 27 31l50 -40q-16 -26 -45 -46q-34 -24 -67 -24z" />
    <glyph glyph-name="uni1ED8" unicode="&#x1ed8;" horiz-adv-x="839" vert-adv-y="0" 
d="M405 -121q13 12 26 0l42 -44q14 -14 0 -26l-42 -43q-13 -13 -26 0l-43 43q-15 13 0 26zM371 914q19 20 48 20q28 0 46 -20l133 -146h-87l-93 103l-93 -103h-88zM484 702q138 0 218 -96q79 -95 79 -261q0 -167 -79 -262t-218 -95h-130q-138 0 -217 95t-79 262
q0 165 79 261t217 96h130zM473 65q103 0 160 66q62 71 62 214t-62 214q-57 66 -160 66h-107q-103 0 -160 -66q-62 -72 -62 -214t62 -214q57 -66 160 -66h107z" />
    <glyph glyph-name="uni1ED9" unicode="&#x1ed9;" horiz-adv-x="680" vert-adv-y="0" 
d="M326 -121q14 12 26 0l43 -44q12 -14 0 -26l-43 -43q-12 -14 -26 0l-43 43q-15 13 0 26zM293 724q17 19 47 19q29 0 46 -19l133 -146h-87l-93 103l-93 -103h-87zM303 -12q-116 0 -181 69q-66 70 -66 193q0 122 66 192t181 70h74q115 0 181 -70t66 -192q0 -123 -66 -193
q-65 -69 -181 -69h-74zM372 60q82 0 125 47q44 48 44 143q0 190 -169 190h-65q-82 0 -125 -47q-44 -48 -44 -143t44 -143q43 -47 125 -47h65z" />
    <glyph glyph-name="uni1EDA" unicode="&#x1eda;" horiz-adv-x="839" vert-adv-y="0" 
d="M484 702q70 0 125 -25q49 1 63 18q17 20 17 100h62q0 -115 -35 -150v1q-13 -13 -31 -22q9 -8 17 -18q79 -95 79 -261q0 -167 -79 -262t-218 -95h-130q-138 0 -217 95t-79 262q0 165 79 261t217 96h130zM473 65q103 0 160 66q62 71 62 214t-62 214q-57 66 -160 66h-107
q-103 0 -160 -66q-62 -72 -62 -214t62 -214q57 -66 160 -66h107zM446 789q-27 -25 -47 -16q-19 8 -4 39l63 108h114z" />
    <glyph glyph-name="uni1EDB" unicode="&#x1edb;" horiz-adv-x="680" vert-adv-y="0" 
d="M303 -12q-116 0 -181 69q-66 70 -66 193q0 122 66 192t181 70h74q68 0 118 -25q40 3 52 18q17 20 17 100h62q0 -115 -35 -150v1q-13 -13 -28 -20q61 -69 61 -186q0 -123 -66 -193q-65 -69 -181 -69h-74zM372 60q82 0 125 47q44 48 44 143q0 190 -169 190h-65
q-82 0 -125 -47q-44 -48 -44 -143t44 -143q43 -47 125 -47h65zM367 599q-27 -25 -47 -16q-19 8 -4 39l63 108h114z" />
    <glyph glyph-name="uni1EDC" unicode="&#x1edc;" horiz-adv-x="839" vert-adv-y="0" 
d="M484 702q70 0 125 -25q49 1 63 18q17 20 17 100h62q0 -115 -35 -150v1q-13 -13 -31 -22q9 -8 17 -18q79 -95 79 -261q0 -167 -79 -262t-218 -95h-130q-138 0 -217 95t-79 262q0 165 79 261t217 96h130zM473 65q103 0 160 66q62 71 62 214t-62 214q-57 66 -160 66h-107
q-103 0 -160 -66q-62 -72 -62 -214t62 -214q57 -66 160 -66h107zM384 920l62 -108q17 -29 -5 -39q-21 -9 -46 16l-126 131h115z" />
    <glyph glyph-name="uni1EDD" unicode="&#x1edd;" horiz-adv-x="680" vert-adv-y="0" 
d="M303 -12q-116 0 -181 69q-66 70 -66 193q0 122 66 192t181 70h74q68 0 118 -25q40 3 52 18q17 20 17 100h62q0 -115 -35 -150v1q-13 -13 -28 -20q61 -69 61 -186q0 -123 -66 -193q-65 -69 -181 -69h-74zM372 60q82 0 125 47q44 48 44 143q0 190 -169 190h-65
q-82 0 -125 -47q-44 -48 -44 -143t44 -143q43 -47 125 -47h65zM305 730l62 -108q17 -29 -5 -39q-21 -9 -46 16l-126 131h115z" />
    <glyph glyph-name="uni1EDE" unicode="&#x1ede;" horiz-adv-x="839" vert-adv-y="0" 
d="M484 702q70 0 125 -25q49 1 63 18q17 20 17 100h62q0 -115 -35 -150v1q-13 -13 -31 -22q9 -8 17 -18q79 -95 79 -261q0 -167 -79 -262t-218 -95h-130q-138 0 -217 95t-79 262q0 165 79 261t217 96h130zM473 65q103 0 160 66q62 71 62 214t-62 214q-57 66 -160 66h-107
q-103 0 -160 -66q-62 -72 -62 -214t62 -214q57 -66 160 -66h107zM426 965q57 0 88 -20q28 -21 28 -57q0 -75 -107 -115h-65q16 6 31.5 15.5t30.5 21.5q41 34 41 61q0 17 -12 23q-7 4 -17.5 5t-26.5 1q-32 0 -59 -7v65q20 4 36.5 5.5t31.5 1.5z" />
    <glyph glyph-name="uni1EDF" unicode="&#x1edf;" horiz-adv-x="680" vert-adv-y="0" 
d="M303 -12q-116 0 -181 69q-66 70 -66 193q0 122 66 192t181 70h74q68 0 118 -25q40 3 52 18q17 20 17 100h62q0 -115 -35 -150v1q-13 -13 -28 -20q61 -69 61 -186q0 -123 -66 -193q-65 -69 -181 -69h-74zM372 60q82 0 125 47q44 48 44 143q0 190 -169 190h-65
q-82 0 -125 -47q-44 -48 -44 -143t44 -143q43 -47 125 -47h65zM346 775q57 0 88 -20q28 -21 28 -57q0 -75 -107 -115h-65q16 6 31.5 15.5t30.5 21.5q41 34 41 61q0 17 -12 23q-7 4 -17.5 5t-26.5 1q-32 0 -59 -7v65q20 4 36.5 5.5t31.5 1.5z" />
    <glyph glyph-name="uni1EE0" unicode="&#x1ee0;" horiz-adv-x="839" vert-adv-y="0" 
d="M484 702q70 0 125 -25q49 1 63 18q17 20 17 100h62q0 -115 -35 -150v1q-13 -13 -31 -22q9 -8 17 -18q79 -95 79 -261q0 -167 -79 -262t-218 -95h-130q-138 0 -217 95t-79 262q0 165 79 261t217 96h130zM473 65q103 0 160 66q62 71 62 214t-62 214q-57 66 -160 66h-107
q-103 0 -160 -66q-62 -72 -62 -214t62 -214q57 -66 160 -66h107zM482 788q-38 0 -82 26q-34 18 -52 18q-19 0 -37 -12q-14 -9 -22 -23l-47 40q11 24 37 41q29 20 65 20q38 0 85 -28q32 -19 50 -19q19 0 38 16q17 14 27 31l50 -40q-16 -26 -45 -46q-34 -24 -67 -24z" />
    <glyph glyph-name="uni1EE1" unicode="&#x1ee1;" horiz-adv-x="680" vert-adv-y="0" 
d="M303 -12q-116 0 -181 69q-66 70 -66 193q0 122 66 192t181 70h74q68 0 118 -25q40 3 52 18q17 20 17 100h62q0 -115 -35 -150v1q-13 -13 -28 -20q61 -69 61 -186q0 -123 -66 -193q-65 -69 -181 -69h-74zM372 60q82 0 125 47q44 48 44 143q0 190 -169 190h-65
q-82 0 -125 -47q-44 -48 -44 -143t44 -143q43 -47 125 -47h65zM403 598q-38 0 -82 26q-34 18 -52 18q-19 0 -37 -12q-14 -9 -22 -23l-47 40q11 24 37 41q29 20 65 20q38 0 85 -28q32 -19 50 -19q19 0 38 16q17 14 27 31l50 -40q-16 -26 -45 -46q-34 -24 -67 -24z" />
    <glyph glyph-name="uni1EE2" unicode="&#x1ee2;" horiz-adv-x="839" vert-adv-y="0" 
d="M484 702q70 0 125 -25q49 1 63 18q17 20 17 100h62q0 -115 -35 -150v1q-13 -13 -31 -22q9 -8 17 -18q79 -95 79 -261q0 -167 -79 -262t-218 -95h-130q-138 0 -217 95t-79 262q0 165 79 261t217 96h130zM473 65q103 0 160 66q62 71 62 214t-62 214q-57 66 -160 66h-107
q-103 0 -160 -66q-62 -72 -62 -214t62 -214q57 -66 160 -66h107zM408 -121q14 12 26 0l43 -44q12 -14 0 -26l-43 -43q-12 -14 -26 0l-43 43q-15 13 0 26z" />
    <glyph glyph-name="uni1EE3" unicode="&#x1ee3;" horiz-adv-x="680" vert-adv-y="0" 
d="M303 -12q-116 0 -181 69q-66 70 -66 193q0 122 66 192t181 70h74q68 0 118 -25q40 3 52 18q17 20 17 100h62q0 -115 -35 -150v1q-13 -13 -28 -20q61 -69 61 -186q0 -123 -66 -193q-65 -69 -181 -69h-74zM372 60q82 0 125 47q44 48 44 143q0 190 -169 190h-65
q-82 0 -125 -47q-44 -48 -44 -143t44 -143q43 -47 125 -47h65zM328 -121q14 12 26 0l43 -44q12 -14 0 -26l-43 -43q-12 -14 -26 0l-43 43q-15 13 0 26z" />
    <glyph glyph-name="uni1EE4" unicode="&#x1ee4;" horiz-adv-x="806" 
d="M403 -12q-312 0 -312 251v451h82v-442q0 -91 49 -134q55 -49 181 -49q128 0 182 49q48 43 48 134v442h82v-451q0 -117 -64 -178q-77 -73 -248 -73zM391 -121q13 12 25 0l43 -44q12 -14 0 -26l-43 -43q-12 -14 -25 0l-44 43q-13 13 0 26z" />
    <glyph glyph-name="uni1EE5" unicode="&#x1ee5;" horiz-adv-x="653" 
d="M328 -12q-133 0 -193 58q-54 52 -54 158v296h79v-290q0 -77 36 -112q39 -38 132 -38t131 38q34 34 34 112v290h79v-296q0 -104 -51 -156q-59 -60 -193 -60zM314 -121q13 12 26 0l42 -44q14 -14 0 -26l-42 -43q-13 -13 -26 0l-43 43q-15 13 0 26z" />
    <glyph glyph-name="uni1EE6" unicode="&#x1ee6;" horiz-adv-x="806" vert-adv-y="0" 
d="M403 -12q-312 0 -312 251v451h82v-442q0 -91 49 -134q55 -49 181 -49q128 0 182 49q48 43 48 134v442h82v-451q0 -117 -64 -178q-77 -73 -248 -73zM409 965q57 0 88 -20q28 -21 28 -57q0 -75 -107 -115h-65q16 6 31.5 15.5t30.5 21.5q41 34 41 61q0 17 -12 23
q-7 4 -17.5 5t-26.5 1q-32 0 -59 -7v65q20 4 36.5 5.5t31.5 1.5z" />
    <glyph glyph-name="uni1EE7" unicode="&#x1ee7;" horiz-adv-x="653" vert-adv-y="0" 
d="M328 -12q-133 0 -193 58q-54 52 -54 158v296h79v-290q0 -77 36 -112q39 -38 132 -38t131 38q34 34 34 112v290h79v-296q0 -104 -51 -156q-59 -60 -193 -60zM333 775q57 0 88 -20q28 -21 28 -57q0 -75 -107 -115h-65q16 6 31.5 15.5t30.5 21.5q41 34 41 61q0 17 -12 23
q-7 4 -17.5 5t-26.5 1q-32 0 -59 -7v65q20 4 36.5 5.5t31.5 1.5z" />
    <glyph glyph-name="uni1EE8" unicode="&#x1ee8;" horiz-adv-x="806" vert-adv-y="0" 
d="M403 -12q-312 0 -312 251v451h82v-442q0 -91 49 -134q55 -49 181 -49q128 0 182 49q48 43 48 134v442h63q25 4 34 15q17 20 17 100h62q0 -115 -35 -150v1q-21 -22 -59 -31v-386q0 -117 -64 -178q-77 -73 -248 -73zM431 789q-27 -25 -47 -16q-19 8 -4 39l63 108h114z" />
    <glyph glyph-name="uni1EE9" unicode="&#x1ee9;" horiz-adv-x="653" vert-adv-y="0" 
d="M328 -12q-133 0 -193 58q-54 52 -54 158v296h79v-290q0 -77 36 -112q39 -38 132 -38t131 38q34 34 34 112v290h18q60 0 75 18q17 20 17 100h62q0 -115 -35 -150v1q-19 -21 -58 -30v-235q0 -104 -51 -156q-59 -60 -193 -60zM355 599q-27 -25 -47 -16q-19 8 -4 39l63 108
h114z" />
    <glyph glyph-name="uni1EEA" unicode="&#x1eea;" horiz-adv-x="806" vert-adv-y="0" 
d="M403 -12q-312 0 -312 251v451h82v-442q0 -91 49 -134q55 -49 181 -49q128 0 182 49q48 43 48 134v442h63q25 4 34 15q17 20 17 100h62q0 -115 -35 -150v1q-21 -22 -59 -31v-386q0 -117 -64 -178q-77 -73 -248 -73zM370 920l62 -108q17 -29 -5 -39q-21 -9 -46 16l-126 131
h115z" />
    <glyph glyph-name="uni1EEB" unicode="&#x1eeb;" horiz-adv-x="653" vert-adv-y="0" 
d="M328 -12q-133 0 -193 58q-54 52 -54 158v296h79v-290q0 -77 36 -112q39 -38 132 -38t131 38q34 34 34 112v290h18q60 0 75 18q17 20 17 100h62q0 -115 -35 -150v1q-19 -21 -58 -30v-235q0 -104 -51 -156q-59 -60 -193 -60zM293 730l62 -108q17 -29 -5 -39q-21 -9 -46 16
l-126 131h115z" />
    <glyph glyph-name="uni1EEC" unicode="&#x1eec;" horiz-adv-x="806" vert-adv-y="0" 
d="M403 -12q-312 0 -312 251v451h82v-442q0 -91 49 -134q55 -49 181 -49q128 0 182 49q48 43 48 134v442h63q25 4 34 15q17 20 17 100h62q0 -115 -35 -150v1q-21 -22 -59 -31v-386q0 -117 -64 -178q-77 -73 -248 -73zM409 965q57 0 88 -20q28 -21 28 -57q0 -75 -107 -115
h-65q16 6 31.5 15.5t30.5 21.5q41 34 41 61q0 17 -12 23q-7 4 -17.5 5t-26.5 1q-32 0 -59 -7v65q20 4 36.5 5.5t31.5 1.5z" />
    <glyph glyph-name="uni1EED" unicode="&#x1eed;" horiz-adv-x="653" vert-adv-y="0" 
d="M328 -12q-133 0 -193 58q-54 52 -54 158v296h79v-290q0 -77 36 -112q39 -38 132 -38t131 38q34 34 34 112v290h18q60 0 75 18q17 20 17 100h62q0 -115 -35 -150v1q-19 -21 -58 -30v-235q0 -104 -51 -156q-59 -60 -193 -60zM333 775q57 0 88 -20q28 -21 28 -57
q0 -75 -107 -115h-65q16 6 31.5 15.5t30.5 21.5q41 34 41 61q0 17 -12 23q-7 4 -17.5 5t-26.5 1q-32 0 -59 -7v65q20 4 36.5 5.5t31.5 1.5z" />
    <glyph glyph-name="uni1EEE" unicode="&#x1eee;" horiz-adv-x="806" vert-adv-y="0" 
d="M403 -12q-312 0 -312 251v451h82v-442q0 -91 49 -134q55 -49 181 -49q128 0 182 49q48 43 48 134v442h63q25 4 34 15q17 20 17 100h62q0 -115 -35 -150v1q-21 -22 -59 -31v-386q0 -117 -64 -178q-77 -73 -248 -73zM467 788q-38 0 -82 26q-34 18 -52 18q-19 0 -37 -12
q-14 -9 -22 -23l-47 40q11 24 37 41q29 20 65 20q38 0 85 -28q32 -19 50 -19q19 0 38 16q17 14 27 31l50 -40q-16 -26 -45 -46q-34 -24 -67 -24z" />
    <glyph glyph-name="uni1EEF" unicode="&#x1eef;" horiz-adv-x="653" vert-adv-y="0" 
d="M328 -12q-133 0 -193 58q-54 52 -54 158v296h79v-290q0 -77 36 -112q39 -38 132 -38t131 38q34 34 34 112v290h18q60 0 75 18q17 20 17 100h62q0 -115 -35 -150v1q-19 -21 -58 -30v-235q0 -104 -51 -156q-59 -60 -193 -60zM391 598q-38 0 -82 26q-34 18 -52 18
q-19 0 -37 -12q-14 -9 -22 -23l-47 40q11 24 37 41q29 20 65 20q38 0 85 -28q32 -19 50 -19q19 0 38 16q17 14 27 31l50 -40q-16 -26 -45 -46q-34 -24 -67 -24z" />
    <glyph glyph-name="uni1EF0" unicode="&#x1ef0;" horiz-adv-x="806" vert-adv-y="0" 
d="M403 -12q-312 0 -312 251v451h82v-442q0 -91 49 -134q55 -49 181 -49q128 0 182 49q48 43 48 134v442h63q25 4 34 15q17 20 17 100h62q0 -115 -35 -150v1q-21 -22 -59 -31v-386q0 -117 -64 -178q-77 -73 -248 -73zM391 -121q14 12 26 0l43 -44q12 -14 0 -26l-43 -43
q-12 -14 -26 0l-43 43q-15 13 0 26z" />
    <glyph glyph-name="uni1EF1" unicode="&#x1ef1;" horiz-adv-x="653" vert-adv-y="0" 
d="M328 -12q-133 0 -193 58q-54 52 -54 158v296h79v-290q0 -77 36 -112q39 -38 132 -38t131 38q34 34 34 112v290h18q60 0 75 18q17 20 17 100h62q0 -115 -35 -150v1q-19 -21 -58 -30v-235q0 -104 -51 -156q-59 -60 -193 -60zM315 -121q14 12 26 0l43 -44q12 -14 0 -26
l-43 -43q-12 -14 -26 0l-43 43q-15 13 0 26z" />
    <glyph glyph-name="Ygrave" unicode="&#x1ef2;" horiz-adv-x="735" 
d="M218 920h115l62 -108q16 -31 -4 -39q-20 -9 -46 16zM327 296q-16 6 -32 22q-9 9 -27 31l-257 341h97l227 -306q16 -22 33 -22q18 0 33 21l226 307h97l-256 -341q-33 -43 -59 -53v-296h-82v296z" />
    <glyph glyph-name="ygrave" unicode="&#x1ef3;" horiz-adv-x="671" 
d="M301 730l63 -108q15 -31 -4 -39q-20 -9 -47 16l-126 131h114zM304 -242q-128 0 -207 29v73q92 -30 207 -30q108 0 155 38q44 36 44 110v71q-95 -45 -207 -45q-215 0 -215 179v317h79v-297q0 -63 33 -92q37 -33 126 -33q118 4 184 28v394h80v-529q0 -213 -279 -213z" />
    <glyph glyph-name="uni1EF4" unicode="&#x1ef4;" horiz-adv-x="735" vert-adv-y="0" 
d="M327 296q-16 6 -32 22q-9 9 -27 31l-257 341h97l227 -306q16 -22 33 -22q18 0 33 21l226 307h97l-256 -341q-33 -43 -59 -53v-296h-82v296zM356 -121q14 12 26 0l43 -44q12 -14 0 -26l-43 -43q-12 -14 -26 0l-43 43q-15 13 0 26z" />
    <glyph glyph-name="uni1EF5" unicode="&#x1ef5;" horiz-adv-x="671" vert-adv-y="0" 
d="M304 -242q-128 0 -207 29v73q92 -30 207 -30q108 0 155 38q44 36 44 110v71q-95 -45 -207 -45q-215 0 -215 179v317h79v-297q0 -63 33 -92q37 -33 126 -33q118 4 184 28v394h80v-529q0 -213 -279 -213zM324 -291q14 12 26 0l43 -44q12 -14 0 -26l-43 -43q-12 -14 -26 0
l-43 43q-15 13 0 26z" />
    <glyph glyph-name="uni1EF6" unicode="&#x1ef6;" horiz-adv-x="735" vert-adv-y="0" 
d="M327 296q-16 6 -32 22q-9 9 -27 31l-257 341h97l227 -306q16 -22 33 -22q18 0 33 21l226 307h97l-256 -341q-33 -43 -59 -53v-296h-82v296zM374 965q57 0 88 -20q28 -21 28 -57q0 -75 -107 -115h-65q16 6 31.5 15.5t30.5 21.5q41 34 41 61q0 17 -12 23q-7 4 -17.5 5
t-26.5 1q-32 0 -59 -7v65q20 4 36.5 5.5t31.5 1.5z" />
    <glyph glyph-name="uni1EF7" unicode="&#x1ef7;" horiz-adv-x="671" vert-adv-y="0" 
d="M304 -242q-128 0 -207 29v73q92 -30 207 -30q108 0 155 38q44 36 44 110v71q-95 -45 -207 -45q-215 0 -215 179v317h79v-297q0 -63 33 -92q37 -33 126 -33q118 4 184 28v394h80v-529q0 -213 -279 -213zM342 775q57 0 88 -20q28 -21 28 -57q0 -75 -107 -115h-65
q16 6 31.5 15.5t30.5 21.5q41 34 41 61q0 17 -12 23q-7 4 -17.5 5t-26.5 1q-32 0 -59 -7v65q20 4 36.5 5.5t31.5 1.5z" />
    <glyph glyph-name="uni1EF8" unicode="&#x1ef8;" horiz-adv-x="735" 
d="M431 788q-38 0 -82 26q-34 18 -52 18q-19 0 -37 -12q-15 -10 -22 -23l-47 40q12 24 36 41q29 20 66 20q38 0 85 -28q32 -19 50 -19q20 0 39 16q15 12 26 31l50 -40q-18 -27 -45 -46q-34 -24 -67 -24zM327 296q-28 11 -59 53l-257 341h97l227 -306q16 -22 33 -22
q18 0 33 21l226 307h97l-256 -341q-33 -43 -59 -53v-296h-82v296z" />
    <glyph glyph-name="uni1EF9" unicode="&#x1ef9;" horiz-adv-x="671" 
d="M399 598q-38 0 -82 26q-34 18 -52 18q-19 0 -36 -12q-15 -11 -22 -23l-48 40q13 24 37 41q29 20 65 20q38 0 85 -28q32 -19 50 -19q19 0 39 16q16 13 27 31l49 -40q-16 -26 -45 -46q-34 -24 -67 -24zM304 -242q-128 0 -207 29v73q92 -30 207 -30q108 0 155 38
q44 36 44 110v71q-95 -45 -207 -45q-215 0 -215 179v317h79v-297q0 -63 33 -92q37 -33 126 -33q118 4 184 28v394h80v-529q0 -213 -279 -213z" />
    <glyph glyph-name="uni1EFA" unicode="&#x1efa;" horiz-adv-x="976" vert-adv-y="0" 
d="M233 567q-21 0 -54 -3.5t-64 -12.5t-52 -22.5t-21 -36.5q-17 22 -17 42q0 23 18 41t46 30.5t62 19t66 6.5q16 0 35 -1.5t33 -8.5t21.5 -20t7.5 -31q0 -2 -0.5 -10t-4.5 -9q-19 7 -34.5 11.5t-41.5 4.5zM959 657q15 -20 15 -35q0 -19 -17 -31.5t-46 -21t-60.5 -11
t-59.5 -2.5q-8 0 -17.5 0.5t-17.5 0.5q-3 -5 -5.5 -9t-3.5 -8q-3 -5 -8 -17t-10.5 -28.5t-10 -33.5t-4.5 -29t4.5 -19.5t15.5 -7.5q14 0 38 10q-3 -12 -9 -26t-14.5 -26t-20.5 -18t-28 -6q-26 0 -37 17.5t-11 43.5q0 22 5 46q-9 -13 -21 -20.5t-28 -7.5q-24 0 -34.5 9.5
t-10.5 25.5q0 22 11.5 44.5t20.5 44.5q-11 0 -25 -12.5t-25 -32t-20.5 -40.5t-12.5 -39q-7 0 -14.5 1t-15.5 4t-13.5 8.5t-5.5 12.5q0 11 7.5 30t20.5 43q-7 -2 -12.5 -3.5t-8.5 -2.5q-9 -19 -20.5 -36.5t-27 -30t-33 -21t-38.5 -8.5q-22 0 -40.5 15.5t-18.5 40.5
q0 27 10.5 46.5t26.5 32.5q0 1 -0.5 3t-0.5 3q0 13 6.5 27t18.5 24.5t30 17t42 6.5q23 0 40.5 -13.5t17.5 -44.5v-9t-2 -8q19 4 34 13q8 19 14.5 34t8.5 27q14 -1 30 -9.5t16 -22.5q0 -6 -2 -11t-5 -13q20 17 36 30.5t40 13.5q10 0 16.5 -6t6.5 -20q0 -13 -6.5 -26.5
t-16 -28.5t-16.5 -29t-7 -25q0 -8 8 -8q6 0 14.5 2.5t16.5 8.5q7 26 16 49t19 39q-16 10 -16 27q0 8 5 17q11 -6 27 -9q7 15 14.5 31.5t14.5 31.5t10 27t3 21v3h9q19 0 34.5 -9.5t15.5 -23.5q0 -3 -13.5 -31t-30.5 -56q24 0 50 3t49 9.5t44 17t39 24.5zM365 470
q9 0 20.5 10.5t17.5 23.5q-23 0 -45 11q-7 -17 -7 -29q0 -8 3.5 -12t10.5 -4zM418 537q5 9 5 20t-8.5 18t-16.5 7q-10 0 -17 -7t-7 -14q0 -11 11.5 -17.5t26.5 -6.5h6zM212 276q0 -15 18.5 -22.5t41 -14.5t41 -19t18.5 -35q0 -17 -13.5 -35.5t-36 -32.5t-53.5 -21.5
t-61 -7.5q-14 0 -32 1t-32.5 7.5t-27 18.5t-12.5 31q0 14 9 29t22 22q13 -26 38.5 -36.5t54.5 -10.5q27 0 49.5 7.5t22.5 17.5q0 8 -11 11.5t-25.5 4t-31 3.5t-31 9.5t-24.5 17.5t-10 29q0 35 22.5 62t53 47t66.5 32t63 12q25 0 38.5 -9t13.5 -27q0 -12 -5.5 -24
t-12.5 -24.5t-14 -22.5t-7 -20q-42 0 -42 43v9.5t2 11.5q-14 -3 -29.5 -9.5t-29.5 -14.5t-23.5 -18.5t-9.5 -21.5zM848 388q34 0 34 -27q0 -14 -11 -30h-12q-45 0 -71.5 -11t-44.5 -27.5t-30.5 -36.5t-22.5 -39q-6 -20 -16 -40q-7 -17 -16 -38.5t-16 -44.5q-8 0 -16 1
t-15.5 4.5t-13 9t-5.5 17.5q0 7 8.5 26t17.5 43q-6 -4 -10.5 -4.5t-10.5 -3.5q-7 -19 -19 -36t-27 -30t-33.5 -20.5t-39.5 -7.5q-22 0 -39 15t-17 41q0 24 10 44.5t24 32.5v7q0 11 3 18q-13 0 -27 -1q-5 -7 -12.5 -26t-15 -42.5t-14.5 -47t-8 -40.5q-3 -26 21 -26q13 0 37 9
q-2 -14 -8 -26.5t-15.5 -24t-21.5 -19t-26 -7.5q-27 0 -38.5 18t-11.5 43q0 27 5 52t13.5 50.5t18 47.5t16.5 39q-7 4 -10.5 11.5t-3.5 16.5q0 11 4 15q7 0 15.5 1t15.5 4q27 49 40 92q15 0 31.5 -10.5t16.5 -27.5q0 -11 -10 -23.5t-14 -26.5h7q19 0 26 -10q24 17 62 17
q23 0 41 -14t18 -47v-8v-8q7 1 13.5 5t14.5 9q9 20 14 38t5 29q0 6 -1 9q13 -3 23 -6q8 -3 16 -10.5t9 -18.5q29 46 67.5 73.5t75.5 27.5zM491 147q9 0 20.5 10t21.5 24q-28 2 -47 10q-2 -8 -5 -14t-3 -13q0 -17 13 -17zM547 214q3 11 3 19q0 11 -8 19t-14 8q-12 0 -19.5 -8
t-7.5 -15q0 -11 11 -17t27 -6h8zM790 202q11 0 19.5 10.5t8.5 19.5q0 12 -11 12q-6 0 -16 -6.5t-19 -18t-16.5 -27t-7.5 -27.5q0 -10 7 -17t20 -7q9 0 21 4.5t23 8.5t20 11t15 12q-5 -19 -14.5 -34.5t-25 -27t-34.5 -17t-38 -5.5q-26 0 -42 12t-16 39q0 24 13 51.5t32 51.5
t44 40.5t48 16.5q26 0 38 -12.5t12 -31.5q0 -24 -8.5 -41t-21.5 -30t-28 -19t-28 -6q-10 0 -16 4.5t-6 14.5q0 8 6 16.5t7 8.5q8 -6 14 -6zM88 271q-19 -4 -33 5t-26 21t-19.5 27t-9.5 23q20 -10 31 -12t24 2q10 2 18.5 16t15 34.5t11 44t7 45t4.5 37t2 20.5q0 1 3 1
q13 5 27.5 7t27.5 2q6 0 11 -3.5t5 -12.5q0 -14 -10 -37q14 0 23.5 1t31.5 1q23 0 38 -14t15 -36v-8t-4 -9q-10 5 -21 5.5t-23 0.5q-6 0 -20 -0.5t-28 -4.5t-25 -10.5t-12 -13.5q-2 -6 -7 -25.5t-12.5 -42t-19 -42.5t-25.5 -22z" />
    <glyph glyph-name="uni1EFB" unicode="&#x1efb;" horiz-adv-x="2546" vert-adv-y="0" 
d="M1134 125q0 -9 -0.5 -11.5t-5.5 -9.5q-2 -5 -5.5 -5.5t-7.5 -0.5q-87 -21 -166 -21h-31h-65t-58 2q-44 5 -79.5 12.5t-72.5 12.5q-33 7 -71 15t-74 14q-32 9 -62.5 16t-65.5 12q-32 8 -61.5 11t-58.5 5h-22q-50 0 -93 -6q-27 -8 -51.5 -18.5t-49.5 -24.5q-3 -3 -15 -3
q-2 0 -5.5 1.5t-8.5 3.5q0 2 -2 8.5t-2 8.5q0 3 2 7l2 4l2 3q0 3 4 5.5t15 15.5q11 12 22 26t24 26q12 29 27 37l2 8q1 0 2 1q2 2 2 4q11 19 17 40t8.5 41.5t3 38.5t0.5 30q0 7 -3 12t-5 13q0 6 -3 12t-7 11q-6 8 -13 19t-17 21q-9 8 -18 15.5t-16 16.5q-8 6 -18 12.5
t-15 8.5q-5 7 -6 11t-1 12q0 11 14 19q22 11 46.5 16t53.5 11h73h44q29 0 60.5 -4.5t64.5 -8.5q26 -7 60 -11.5t68 -12.5q47 -12 99 -19.5t106 -19.5q51 -6 107.5 -11.5t116.5 -14.5h56q24 0 41.5 0.5t36.5 5.5q38 5 68 9.5t55 10.5q27 5 46.5 13.5t36.5 16.5q18 10 30 18.5
t17 19.5q7 9 7 18q0 8 -0.5 10t-2.5 4q0 4 -4 5t-10 4h-13q-3 0 -11.5 -2t-18.5 -2q-35 -13 -52 -25l-20 -10t-18 -7q-12 -19 -20 -24q0 -2 -1 -3t-2 -3t-2 -3q-2 -5 -7 -9.5t-12 -4.5q-8 0 -13 -1t-12 -8h-5q-2 0 -4 1q-4 2 -4 8q-1 0 0 2q1 3 8 12q0 13 14 30q8 6 17.5 13
t17.5 21q9 8 19.5 16t24.5 14q11 7 26 11.5t29 8.5q10 3 15 6.5t10 3.5h21h13h10q8 0 14 -5t12 -5q4 -7 8.5 -9t6.5 -4q8 -11 10.5 -22.5t2.5 -22.5q-2 -14 -5.5 -23.5t-9.5 -13.5q-17 -32 -57.5 -55.5t-99.5 -37.5q-29 -10 -59.5 -12.5t-65.5 -2.5q-22 -5 -43 -5.5
t-45 -0.5h-62q-62 5 -119 8t-108 13q-54 9 -105.5 20.5t-97.5 17.5q-53 10 -102 19t-93 17q-25 0 -48 3t-43 3t-39.5 -0.5t-37.5 -5.5q-8 0 -10.5 -4t-7.5 -7v-15q5 -8 5.5 -10.5t2.5 -7.5q4 0 7 -3.5t3 -8.5q18 -23 30 -43t17 -40v-6q0 -4 1.5 -7t1.5 -5v-7q1 -12 1.5 -31
t-1 -40t-6.5 -42t-14 -37v-5q-2 -8 -2.5 -17t5.5 -17t20 -14.5t40 -7.5h4h20q32 -2 64 -4.5t67 -10.5q34 -5 68.5 -13.5t69.5 -17.5q32 -9 65.5 -15.5t68.5 -14.5q35 -6 71.5 -11.5t77.5 -7.5q26 -2 55.5 -5.5t59.5 -3.5h34q38 0 78.5 6t82.5 14q1 0 3 3q0 1 1 3
q5 0 6.5 -3.5t9.5 -8.5q2 0 5.5 -3t3.5 -5zM2419 434q-3 -12 -8.5 -33.5t-10 -46t-4.5 -50.5t8 -48q4 -6 6 -8t2 -8q5 -10 13.5 -19.5t19.5 -19.5q10 -9 17 -18.5t15 -17.5q11 -8 19.5 -13t17.5 -7q5 -5 6 -10.5t1 -9.5q0 -9 -4 -14t-9 -7q-24 -9 -51 -17t-53 -8
q-17 -5 -35.5 -6t-38.5 -1h-42q-29 4 -59.5 6.5t-65.5 7.5q-31 9 -63.5 14.5t-66.5 12.5q-48 11 -99 18t-102 21q-55 7 -110.5 13.5t-116.5 9.5h-55q-23 0 -43.5 -0.5t-37.5 -3.5q-35 -5 -65 -8.5t-60 -10.5q-24 -5 -44 -13l-35 -14q-17 -9 -29.5 -19.5t-17.5 -21.5
q-8 -11 -8 -19v-13q2 -2 6.5 -2.5t13.5 -3.5h7q9 0 17 0.5t18 3.5q13 5 28 8.5t23 10.5q11 6 20.5 11.5t15.5 11.5q8 9 11.5 12.5t4.5 8.5q6 0 8 3q1 1 1 3q9 14 20 14l26 12h6h2q4 0 3.5 -7.5t-5.5 -18.5q-5 -5 -8.5 -11.5t-8.5 -15.5q-7 -10 -15.5 -16.5t-19.5 -15.5
q-16 -16 -41 -30q-11 -10 -27 -15.5t-31 -9.5q-8 -1 -13.5 -1h-10.5q-2 0 -7.5 -0.5t-10.5 -4.5h-6q-2 0 -3 0.5t-4 4.5h-12q-8 0 -14.5 1t-14.5 5q-1 5 -5.5 7t-8.5 8q-5 11 -8 20.5t-3 19.5q4 11 6 22.5t10 16.5q17 32 57.5 54t97.5 36q29 11 59 16t63 8q26 0 49.5 1.5
t46.5 1.5q17 0 29 -0.5t25 -2.5q61 0 120 -6.5t111 -17.5q52 -9 102.5 -17.5t102.5 -18.5q51 -10 100 -19.5t95 -13.5q23 -5 45 -8.5t42 -3.5t41 3t38 3q6 5 9.5 7.5t5.5 6.5v19q-2 2 -4.5 5t-2.5 8q-2 2 -2.5 3.5t-2.5 3.5l-3 3q-17 25 -29.5 42t-17.5 39
q-10 22 -12.5 45.5t0 45.5t8 41t11.5 31q0 8 0.5 9.5t4.5 5.5l4 9h6v2q4 19 4 30q0 4 -4 15q-8 0 -16 7h-18h-20h-8h-11h-18q-35 0 -66 6t-69 8q-32 8 -66.5 16t-69.5 15q-35 9 -68 15t-66 15q-37 9 -72.5 12.5t-73.5 6.5q-27 5 -58 6t-60 1h-33q-39 0 -80 -4.5t-80 -9.5h-4
h-18q0 2 -3 5.5t-3 8.5t0.5 8t3.5 11l6 3t11 2q40 11 81 15.5t79 6.5h40q29 0 60 -2t58 -6q42 -2 78 -6.5t75 -12.5q32 -8 67.5 -15t72.5 -18q33 -7 64.5 -12.5t64.5 -11.5q67 -18 118 -18h25q23 0 46 1.5t44 10.5q27 5 53 14t49 23q3 5 7 6t13 1q1 0 4 -1q2 -1 4.5 -2.5
t4.5 -3.5q0 -5 1.5 -7.5t1.5 -11.5q0 -3 -2 -7.5t-7 -4.5q0 -5 -5 -12t-14 -12q-6 -7 -9 -12t-10 -13q-5 -2 -12 -9.5t-12 -15.5q-11 -14 -17.5 -24.5t-13.5 -18.5l-4 -2q0 -2 -1 -4q-2 -3 -4 -3zM301 321h-7q-5 0 -15 -3.5t-10 -23.5v-2q0 -5 -4.5 -9t-9.5 -4
q-9 0 -10.5 4.5t-1.5 10.5v100q0 15 4 22t9 10q5 4 13 3h32q25 0 37.5 -17t12.5 -37t-12.5 -37t-37.5 -17zM295 396h-14q-4 -1 -6 -8q-1 -3 -1 -6v-4q0 -5 1 -9q2 -9 10 -12h10q10 0 15.5 6t5.5 13.5t-5.5 13.5t-15.5 6zM480 414v-120q0 -9 -5 -13t-10.5 -4t-10.5 4t-5 13
v14q0 9 -6.5 15t-23.5 11q-10 2 -15.5 -1.5t-7.5 -8.5q-3 -6 -3 -16q0 -4 2.5 -5.5t2.5 -8.5q0 -6 -5.5 -10.5t-13.5 -4.5q-7 0 -9 4.5t-2 10.5v120q0 7 4.5 11t10.5 4t10.5 -4t4.5 -11v-28q0 -6 12 -11t21 -10q11 0 14.5 8.5t5.5 20.5q0 5 -1 10.5t-1 9.5t7 9.5t12 5.5
t8.5 -5.5t3.5 -9.5zM646 351q-1 -14 -6 -27t-14.5 -22.5t-23.5 -14.5t-32 -3q-17 3 -29.5 11.5t-20 20t-10 24.5t-0.5 25q2 13 8 26.5t16.5 24t25.5 16t33 2.5q16 -2 27 -10t17 -20t8 -26t1 -27zM613 357q0 22 -9.5 31t-26.5 13q-11 0 -22 -10.5t-11 -28.5q0 -21 9.5 -31.5
t23.5 -10.5q17 0 26.5 8t9.5 29zM780 414v-120q0 -6 -1.5 -13.5t-12.5 -1.5q-5 0 -7 2.5t-8 4.5q-1 6 -2 8t-8 9v2q-8 13 -15 15.5t-12.5 -1t-9 -9t-3.5 -7.5v-9q0 -9 -4.5 -13t-10.5 -4t-11.5 4t-7.5 13v120q4 4 6 7t6 8q5 0 10.5 -1t11.5 -9q4 -8 8 -14t12 -11
q1 -3 6 -6.5t10 -4t9.5 3t4.5 14.5v13q0 7 4.5 11t10 4t10 -4t4.5 -11zM932 303q-10 -8 -22 -13.5t-23 -5.5q-20 0 -36 9t-26 24t-13.5 33t1.5 36q11 28 39 40.5t58 7.5q6 -4 10 -8q9 -11 5 -25q-4 -5 -15 -3q-5 1 -11 3h-31q-11 -5 -16.5 -16t-5.5 -23q0 -8 3.5 -18.5
t10.5 -15.5q6 -5 10.5 -7t8.5 -7h11h4q4 5 6 5.5l6 1.5h4v7v6q0 8 -8 12q-4 2 -8 2q-7 0 -7 6q-5 2 -4.5 7.5t7.5 10.5h4h7q0 5 0.5 5.5t4.5 0.5q8 0 17 -7t14.5 -17.5t5 -24t-10.5 -26.5zM1069 286q-9 -2 -15 -2h-11q-23 0 -41 13.5t-26 32.5t-5 40.5t21 38.5
q16 19 36.5 21.5t37.5 -1.5q8 -4 10 -11t0.5 -13.5t-7 -10t-12.5 -0.5h-1q-10 2 -19 1t-15 -9q-17 -16 -17 -33t14 -25q8 -6 17.5 -7t20.5 -1q2 0 2 1q10 3 15 -1t6.5 -10.5t-1.5 -13.5t-10 -10zM1223 414v-120q0 -9 -5.5 -13t-11.5 -4t-11.5 4t-5.5 13v14q0 9 -6 15t-22 11
q-10 2 -15 -1.5t-7 -8.5q-3 -6 -3 -16v-14q0 -6 -6.5 -10.5t-14.5 -4.5q-1 0 -5.5 4.5t-4.5 10.5v120q0 7 5 11t10.5 4t10.5 -4t5 -11v-28q0 -6 13.5 -11t19.5 -10q10 0 15 8.5t5 20.5v20q0 4 6.5 9.5t14.5 5.5q6 0 9.5 -5.5t3.5 -9.5zM1366 414v-36v-40q0 -13 -5.5 -23.5
t-16.5 -14.5q-14 -21 -34 -21q-33 0 -42 15q-7 7 -13 19t-6 25v40v36q0 7 5.5 11t10.5 4t12.5 -6t7.5 -14v-23v-45q0 -15 4 -21t16 -6q11 -5 18 2.5t7 21.5v44v27q0 8 4.5 11.5t9.5 8.5q7 0 14.5 -4t7.5 -11zM1505 409l-48 -117q0 -8 -14 -8q-4 0 -8.5 1.5t-4.5 6.5
q-6 21 -12.5 38t-13.5 35q-2 13 -6.5 23t-7.5 21q-2 7 1 13t8.5 8t11.5 -1t11 -13q0 -5 2 -10.5t2 -9.5q1 -5 6.5 -10t11.5 -6.5t11.5 1.5t7.5 15h6v5l2.5 7.5t0.5 5.5q4 11 12.5 15t10.5 0q8 0 9 -6t1 -14zM1553 414v-120q0 -6 -5 -10.5t-10 -4.5q-8 0 -12 4.5t-4 10.5v120
q0 7 7 11t14 4q10 0 10 -15zM1653 279h-48q-11 0 -18.5 7.5t-7.5 13.5v109q0 8 7.5 14t18.5 6h41q8 0 15 -4t7 -9t-3 -12.5t-12 -7.5h-9h-12h-8q-2 -1 -2.5 -2.5t-1.5 -3.5t-1 -4q0 -8 5 -8q3 -5 7 -5.5t13 -0.5q8 0 12 -5t4 -10.5t-4 -10.5t-12 -5h-10h-10q-4 -2 -4.5 -7
t-0.5 -6q0 -6 3 -7.5t6 -6.5q1 -2 3 -3q3 -3 7 -3h15q8 0 12 -4.5t4 -10t-4 -10t-12 -4.5zM1794 414q0 -4 -2 -11t-11 -7h-12q-6 0 -9.5 -5t-5 -11t-2 -11.5t-0.5 -6.5v-68q0 -6 -3 -10.5t-11 -4.5t-13.5 4.5t-5.5 10.5v71q0 22 -6 26.5t-12 4.5h-13q-4 0 -8.5 7.5
t-0.5 12.5q0 13 22 13h80q9 0 11 -5.5t2 -9.5zM1832 279q-7 0 -13 4.5t-6 10.5q0 8 6 14t13 6q5 0 10 -6t5 -14q0 -6 -5 -10.5t-10 -4.5zM1959 286q-9 -2 -15 -2h-11q-24 0 -41.5 13.5t-25.5 32.5t-4.5 40.5t21.5 38.5q12 19 34 21.5t42 -1.5q8 -4 10.5 -11t0.5 -13.5
t-8 -10t-15 -0.5h-4q-8 2 -15 1t-15 -9q-17 -16 -18 -33t12 -25q12 -6 21 -7t19 -1h6v1q8 3 13 -1t6 -10.5t-2 -13.5t-11 -10zM2135 351q-2 -14 -8 -27t-16.5 -22.5t-25 -14.5t-32.5 -3q-17 3 -29 11.5t-19 20t-9.5 24.5t-0.5 25q1 13 7.5 26.5t17 24t25 16t33.5 2.5
q16 -2 27.5 -10t18.5 -20t9.5 -26t1.5 -27zM2101 357q0 22 -11 31t-26 13q-13 0 -23.5 -10.5t-10.5 -28.5q0 -21 10.5 -31.5t23.5 -10.5t25 8t12 29zM2277 414v-120q0 -6 -1.5 -10.5t-12.5 -4.5q-5 0 -9 4.5t-4 10.5v27q-3 11 -6 14t-6 1.5t-5.5 -5t-4.5 -3.5q-4 -8 -4 -7
q-1 -1 0 -1q0 -5 -4 -8.5t-7 -3.5q-7 0 -9 3.5t-9 8.5v1q0 1 -0.5 2.5t-0.5 4.5q-2 0 -5.5 3t-7 3.5t-6 -3.5t-2.5 -17v-20q0 -9 -4.5 -13t-10.5 -4t-10.5 4t-4.5 13v120q0 11 11 13.5t19 -8.5q0 -3 4 -11q2 -4 4 -7q8 -11 18 -15q8 -4 18 -2t21 17q3 0 3.5 4t1.5 4q5 4 6 6
t1 4q2 6 6.5 7t9 -0.5t8 -5t3.5 -6.5z" />
    <glyph glyph-name="endash" unicode="&#x2013;" horiz-adv-x="597" 
d="M541 324v-70h-485v70h485z" />
    <glyph glyph-name="emdash" unicode="&#x2014;" horiz-adv-x="812" 
d="M755 324v-70h-699v70h699z" />
    <glyph glyph-name="quoteleft" unicode="&#x2018;" horiz-adv-x="234" 
d="M126 674q8 22 28 23q24 1 23 -26l-28 -217h-88z" />
    <glyph glyph-name="quoteright" unicode="&#x2019;" horiz-adv-x="235" 
d="M127 482q-9 -23 -29 -23q-23 -1 -22 26l28 217h88z" />
    <glyph glyph-name="quotesinglbase" unicode="&#x201a;" horiz-adv-x="302" 
d="M147 -116q-9 -23 -29 -23q-23 -1 -22 26l28 217h88z" />
    <glyph glyph-name="quotedblleft" unicode="&#x201c;" horiz-adv-x="387" 
d="M118 674q8 22 28 23q24 1 23 -26l-28 -217h-88zM271 674q8 22 28 23q24 1 23 -26l-28 -217h-88z" />
    <glyph glyph-name="quotedblright" unicode="&#x201d;" horiz-adv-x="394" 
d="M132 482q-9 -23 -29 -23q-23 -1 -22 26l28 217h88zM285 482q-9 -23 -29 -23q-23 -1 -22 26l28 217h88z" />
    <glyph glyph-name="quotedblbase" unicode="&#x201e;" horiz-adv-x="402" 
d="M114 -116q-9 -23 -29 -23q-23 -1 -22 26l28 217h88zM267 -116q-9 -23 -29 -23q-23 -1 -22 26l28 217h88z" />
    <glyph glyph-name="dagger" unicode="&#x2020;" horiz-adv-x="605" 
d="M56 520v72h199v138h82v-138h212v-72h-212v-520h-82v520h-199z" />
    <glyph glyph-name="daggerdbl" unicode="&#x2021;" horiz-adv-x="608" 
d="M265 251h-209v67h209v207h-208v67h208v138h79v-138h208v-67h-208v-207h207v-67h-207v-251h-79v251z" />
    <glyph glyph-name="bullet" unicode="&#x2022;" horiz-adv-x="359" 
d="M166 392q14 14 28 0l67 -67q14 -14 0 -28l-67 -69q-14 -14 -28 0l-69 69q-14 14 0 28z" />
    <glyph glyph-name="ellipsis" unicode="&#x2026;" horiz-adv-x="746" 
d="M68 39q-7 7 -7 14q0 5 7 14l42 42q6 7 14 7q7 0 14 -7l43 -42q7 -7 7 -14t-7 -14l-43 -42q-9 -7 -14 -7q-7 0 -14 7zM316 39q-7 7 -7 14q0 5 7 14l42 42q6 7 14 7q7 0 14 -7l43 -42q7 -7 7 -14t-7 -14l-43 -42q-9 -7 -14 -7q-7 0 -14 7zM564 39q-7 7 -7 14q0 5 7 14
l42 42q6 7 14 7q7 0 14 -7l42 -42q7 -7 7 -14t-7 -14l-42 -42q-9 -7 -14 -7q-7 0 -14 7z" />
    <glyph glyph-name="perthousand" unicode="&#x2030;" horiz-adv-x="1261" 
d="M220 394q-162 0 -162 154t162 154q163 0 163 -154t-163 -154zM705 690l-474 -690h-85l472 690h87zM220 457q46 0 68 22t22 69q0 48 -22 70t-68 22q-89 1 -89 -92q0 -47 22 -69t67 -22zM643 -12q-163 0 -163 154t163 154q162 0 162 -154t-162 -154zM1041 -12
q-163 0 -163 154t163 154q162 0 162 -154t-162 -154zM643 50q90 -1 89 92q0 47 -22 69t-67 22q-46 0 -68 -22t-22 -69q0 -48 22 -70t68 -22zM1041 50q46 0 68 22t22 70q0 47 -22 69t-68 22q-45 0 -67 -22q-23 -23 -23 -69q0 -92 90 -92z" />
    <glyph glyph-name="guilsinglleft" unicode="&#x2039;" horiz-adv-x="334" 
d="M225 506l53 -39l-131 -185l131 -184l-53 -40l-169 224z" />
    <glyph glyph-name="guilsinglright" unicode="&#x203a;" horiz-adv-x="334" 
d="M187 282l-131 185l53 39l169 -224l-169 -224l-53 40z" />
    <glyph glyph-name="fraction" unicode="&#x2044;" horiz-adv-x="162" 
d="M402 700l-517 -700h-85l520 700h82z" />
    <glyph glyph-name="uni2070" unicode="&#x2070;" horiz-adv-x="425" 
d="M212 356q-89 0 -129 50q-41 51 -41 166q0 112 40 164t130 52t130 -52t40 -164q0 -115 -41 -166q-40 -50 -129 -50zM212 424q51 0 72 32q21 33 21 116t-21 116q-21 32 -72 32q-50 0 -71 -32q-22 -34 -22 -116t22 -116q21 -32 71 -32z" />
    <glyph glyph-name="uni2074" unicode="&#x2074;" horiz-adv-x="424" 
d="M44 440q-24 0 -31 23t9 44l207 275h86l-210 -279h152v104h74v-104h43v-63h-43v-78h-74v78h-213z" />
    <glyph glyph-name="uni2075" unicode="&#x2075;" horiz-adv-x="383" 
d="M189 631q162 0 162 -137q0 -68 -49 -104q-46 -34 -128 -34q-69 0 -137 21v72q63 -27 135 -27q33 0 57 7q43 12 45 67q0 42 -29 59q-26 15 -81 15q-26 0 -80 -9q-35 -3 -34 29l13 192h261v-62h-195l-6 -95q36 6 66 6z" />
    <glyph glyph-name="uni2076" unicode="&#x2076;" horiz-adv-x="411" 
d="M206 356q-88 0 -128 52q-37 48 -37 143q-1 125 54 181q54 57 173 56q29 0 62 -3v-66q-22 3 -58 3q-72 0 -104 -20q-38 -24 -48 -86q54 18 104 18q146 0 146 -136q0 -65 -40 -102q-43 -40 -124 -40zM206 416q48 0 69 21q19 19 19 60q0 39 -19 57t-64 18q-54 0 -94 -16
q0 -70 19 -103q21 -37 70 -37z" />
    <glyph glyph-name="uni2077" unicode="&#x2077;" horiz-adv-x="352" 
d="M15 716v66h268q36 0 44 -20q7 -17 -6 -42l-179 -358h-79l177 354h-225z" />
    <glyph glyph-name="uni2078" unicode="&#x2078;" horiz-adv-x="421" 
d="M305 576q74 -37 74 -101q0 -123 -170 -123t-170 123q0 72 71 113q-53 34 -53 95q0 52 40 79q39 27 114 27q156 0 156 -111q0 -52 -62 -102zM211 730q-78 0 -78 -48q0 -23 11 -35t44 -25l55 -20q47 33 47 74q0 27 -17 40q-19 14 -62 14zM210 417q50 0 72 14q21 15 20 45
q0 22 -17 37q-12 10 -42 24l-70 25q-57 -32 -57 -83q0 -32 22 -47t72 -15z" />
    <glyph glyph-name="uni2079" unicode="&#x2079;" horiz-adv-x="411" 
d="M143 356q-29 0 -62 3v66q22 -3 58 -3q72 0 104 20q38 24 48 86q-54 -18 -104 -18q-146 0 -146 136q0 65 40 102q43 40 124 40q88 0 128 -52q37 -48 37 -143q0 -127 -53 -182t-174 -55zM200 572q54 0 94 16q0 70 -19 103q-21 37 -70 37q-48 0 -69 -21q-19 -19 -19 -60
q0 -39 19 -57t64 -18z" />
    <glyph glyph-name="uni2080" unicode="&#x2080;" horiz-adv-x="425" 
d="M212 -130q-89 0 -129 50q-41 51 -41 166q0 112 40 164t130 52t130 -52t40 -164q0 -115 -41 -166q-40 -50 -129 -50zM212 -62q51 0 72 32q21 33 21 116t-21 116q-21 32 -72 32q-50 0 -71 -32q-22 -34 -22 -116t22 -116q21 -32 71 -32z" />
    <glyph glyph-name="uni2081" unicode="&#x2081;" horiz-adv-x="258" 
d="M25 196v67l132 29q41 8 42 -32v-384h-74v341z" />
    <glyph glyph-name="uni2082" unicode="&#x2082;" horiz-adv-x="400" 
d="M49 -33q-4 76 81 114l79 34q38 17 51 29q18 17 18 45q0 27 -22 38q-21 11 -67 11q-66 0 -135 -23v67q45 17 140 21q79 0 119 -25q42 -27 42 -85q0 -49 -27 -81q-22 -27 -68 -47l-83 -36q-30 -14 -41 -27q-11 -14 -11 -38v-23h227v-65h-303v91z" />
    <glyph glyph-name="uni2083" unicode="&#x2083;" horiz-adv-x="385" 
d="M169 -130q-63 0 -138 23v69q66 -26 138 -26q49 0 74 15q28 17 28 57q0 39 -24 56q-23 16 -76 16h-62v47l115 105h-188v64h274q24 0 30 -19q7 -20 -13 -37l-121 -110h4q56 0 93 -27q44 -32 44 -95q0 -68 -46 -103t-132 -35z" />
    <glyph glyph-name="uni2084" unicode="&#x2084;" horiz-adv-x="424" 
d="M44 -46q-24 0 -31 23t9 44l207 275h86l-210 -279h152v104h74v-104h43v-63h-43v-78h-74v78h-213z" />
    <glyph glyph-name="uni2085" unicode="&#x2085;" horiz-adv-x="383" 
d="M189 145q162 0 162 -137q0 -68 -49 -104q-46 -34 -128 -34q-69 0 -137 21v72q63 -27 135 -27q33 0 57 7q43 12 45 67q0 42 -29 59q-26 15 -81 15q-26 0 -80 -9q-35 -3 -34 29l13 192h261v-62h-195l-6 -95q36 6 66 6z" />
    <glyph glyph-name="uni2086" unicode="&#x2086;" horiz-adv-x="411" 
d="M206 -130q-88 0 -128 52q-37 48 -37 143q-1 125 54 181q54 57 173 56q29 0 62 -3v-66q-22 3 -58 3q-72 0 -104 -20q-38 -24 -48 -86q54 18 104 18q146 0 146 -136q0 -65 -40 -102q-43 -40 -124 -40zM206 -70q48 0 69 21q19 19 19 60q0 39 -19 57t-64 18q-54 0 -94 -16
q0 -70 19 -103q21 -37 70 -37z" />
    <glyph glyph-name="uni2087" unicode="&#x2087;" horiz-adv-x="352" 
d="M15 230v66h268q36 0 44 -20q7 -17 -6 -42l-179 -358h-79l177 354h-225z" />
    <glyph glyph-name="uni2088" unicode="&#x2088;" horiz-adv-x="421" 
d="M305 90q74 -37 74 -101q0 -123 -170 -123t-170 123q0 72 71 113q-53 34 -53 95q0 52 40 79q39 27 114 27q156 0 156 -111q0 -52 -62 -102zM211 244q-78 0 -78 -48q0 -23 11 -35t44 -25l55 -20q47 33 47 74q0 27 -17 40q-19 14 -62 14zM210 -69q50 0 72 14q21 15 20 45
q0 22 -17 37q-12 10 -42 24l-70 25q-57 -32 -57 -83q0 -32 22 -47t72 -15z" />
    <glyph glyph-name="uni2089" unicode="&#x2089;" horiz-adv-x="411" 
d="M143 -130q-29 0 -62 3v66q22 -3 58 -3q72 0 104 20q38 24 48 86q-54 -18 -104 -18q-146 0 -146 136q0 65 40 102q43 40 124 40q88 0 128 -52q37 -48 37 -143q0 -127 -53 -182t-174 -55zM200 86q54 0 94 16q0 70 -19 103q-21 37 -70 37q-48 0 -69 -21q-19 -19 -19 -60
q0 -39 19 -57t64 -18z" />
    <glyph glyph-name="uni20A8" unicode="&#x20a8;" horiz-adv-x="1296" 
d="M674 481q0 -84 -50 -139q-48 -53 -130 -66l235 -276h-108l-229 271h-207v-271h-84v690h342q102 0 166 -57q65 -58 65 -152zM440 348q68 0 105 31q41 34 41 102q0 67 -42 101q-38 31 -106 31h-253v-265h255zM1083 281q78 -16 113 -43q45 -35 45 -100q0 -152 -222 -150
q-116 0 -204 30v72q91 -31 198 -31q78 0 113 18q33 17 33 56q0 34 -26 52q-21 14 -72 24l-99 20q-75 15 -110 43q-42 34 -42 97q0 72 51 107q53 36 167 36q106 0 176 -22v-72q-83 23 -171 23q-79 0 -112 -18q-28 -15 -28 -50q0 -32 23 -48q20 -14 71 -24z" />
    <glyph glyph-name="dong" unicode="&#x20ab;" horiz-adv-x="655" 
d="M543 730v-65h53v-53h-53v-480q0 -19 -17 -19q-10 0 -27 17l-31 29q-76 -46 -179 -46q-233 0 -233 218q0 112 69 167q63 50 175 50q87 0 167 -36v100h-163v53h163v65h76zM467 460q-66 27 -161 27q-83 0 -124 -35q-45 -38 -45 -122q0 -82 43 -121q41 -37 121 -37
q92 0 166 32v256zM548 58v-58h-471v58h471z" />
    <glyph glyph-name="Euro" unicode="&#x20ac;" horiz-adv-x="813" 
d="M528 65q114 0 214 25v-79q-107 -23 -221 -23q-314 0 -359 258h-88v59h81q-1 13 -1 41q0 20 2 52h-83v59h91q27 130 122 190q88 55 239 55q114 0 211 -23v-78q-96 24 -208 24q-114 0 -179 -37q-70 -40 -95 -131h328v-59h-338q-3 -24 -3 -52q0 -17 2 -41h339v-59h-330
q22 -94 93 -139q67 -42 183 -42z" />
    <glyph glyph-name="uni20B9" unicode="&#x20b9;" horiz-adv-x="813" 
d="M601 617q37 -42 46 -103h93v-72h-95q-10 -68 -58 -112q-46 -43 -118 -54l235 -276h-108l-229 271h-251v77h299q120 0 143 94h-442v72h442q-9 51 -49 76q-36 23 -96 23h-297v77h624v-73h-139z" />
    <glyph glyph-name="uni20BD" unicode="&#x20bd;" horiz-adv-x="803" 
d="M147 114h-60q-14 0 -18 9q-3 9 8 17l70 50v73h-59q-14 0 -18 9q-3 9 8 17l69 50v351h350q104 0 168 -56q66 -58 66 -158q0 -99 -66 -157q-64 -56 -168 -56h-266v-72h256v-77h-256v-114h-84v114zM491 340q74 0 113 34q40 35 40 102t-40 102t-113 35h-260v-273h260z" />
    <glyph glyph-name="uni2113" unicode="&#x2113;" horiz-adv-x="515" 
d="M325 -12q-100 0 -140 31q-42 32 -42 116v115q-52 -13 -87 -18v67q53 9 87 20v250q0 86 35 128q38 45 125 45q155 0 155 -145q0 -189 -238 -320v-129q0 -53 29 -72q25 -16 92 -16q47 0 104 16v-73q-70 -15 -120 -15zM220 358q165 93 160 235q0 43 -18 61t-59 18
q-45 0 -65 -23q-18 -21 -18 -68v-223z" />
    <glyph glyph-name="uni2116" unicode="&#x2116;" horiz-adv-x="1484" 
d="M730 -12q-20 0 -30 5q-9 4 -22 19l-493 551v-563h-84v670q0 32 38 32q34 1 52 -24l492 -551v564h84v-671q0 -32 -37 -32zM1117 174q-116 0 -180 68t-64 194t64 194t180 68h66q116 0 179 -68q64 -69 64 -194t-64 -194q-63 -68 -179 -68h-66zM1178 247q164 0 164 189
q0 99 -42 146q-40 44 -122 44h-57q-81 0 -122 -46q-42 -47 -42 -144q0 -189 164 -189h57z" />
    <glyph glyph-name="trademark" unicode="&#x2122;" horiz-adv-x="892" 
d="M444 672q0 23 30 23q27 0 39 -20l110 -120l110 120q18 20 39 20q30 0 30 -23v-258h-56v189l-97 -105q-13 -15 -26 -15q-10 0 -27 15l-95 104v-188h-57v258zM90 635v55h300v-55h-121v-221h-58v221h-121z" />
    <glyph glyph-name="Omega" unicode="&#x2126;" horiz-adv-x="838" 
d="M204 73q-63 43 -103 122q-43 86 -43 186q0 161 74 238q86 89 286 89q201 0 287 -89q75 -77 75 -238q0 -100 -44 -187q-39 -78 -101 -121h122v-73h-229v67q80 46 123 129q42 81 42 185q0 124 -53 182q-64 70 -222 70t-221 -70q-52 -58 -52 -182q0 -104 42 -185
q43 -83 123 -129v-67h-230v73h124z" />
    <glyph glyph-name="estimated" unicode="&#x212e;" horiz-adv-x="675" 
d="M337 -10q-126 0 -203 76q-78 77 -78 199q0 123 78 199t203 76q119 0 194 -68q82 -74 88 -207h-440v-188q67 -52 158 -52q71 0 134 34q53 28 80 66l24 -27q-33 -42 -92 -72q-70 -36 -146 -36zM496 448q-67 57 -160 57q-95 0 -157 -58v-147h317v148z" />
    <glyph glyph-name="onethird" unicode="&#x2153;" horiz-adv-x="938" 
d="M636 700h81l-516 -700h-85zM172 591l-101 -19v61l133 26q19 5 30 -3q12 -8 12 -26v-348h-74v309zM687 -5q-61 0 -138 20v63q72 -24 138 -24q50 0 74 13q28 15 28 52q0 35 -24 50t-75 15h-63v42l116 95h-188v57h274q23 -1 30 -17q6 -16 -13 -34l-122 -99h3q59 0 95 -23
q43 -28 43 -86q0 -60 -46 -92t-132 -32z" />
    <glyph glyph-name="twothirds" unicode="&#x2154;" horiz-adv-x="1032" 
d="M754 700h82l-517 -700h-85zM74 365q0 70 82 102l79 31q36 15 50 26q19 16 19 40t-23 35q-21 10 -66 10q-62 0 -136 -21v60q59 19 140 19t120 -22q42 -24 42 -77q0 -43 -28 -73q-22 -23 -67 -42l-83 -32q-31 -13 -42 -25t-11 -33v-22h227v-58h-303v82zM782 -5
q-64 0 -138 20v63q69 -24 138 -24q50 0 74 13q28 15 28 52q0 35 -24 50t-76 15h-62v42l115 95h-188v57h274q24 0 30 -17q7 -18 -13 -34l-121 -99h4q59 0 94 -23q43 -28 43 -86q0 -60 -46 -92t-132 -32z" />
    <glyph glyph-name="uni2155" unicode="&#x2155;" horiz-adv-x="941" 
d="M216 0h-85l520 700h81zM71 572v61l133 26q19 5 30 -3q12 -8 12 -26v-348h-74v309zM705 242q162 0 162 -123q0 -62 -49 -94q-46 -30 -128 -30q-75 0 -137 19v64q64 -25 135 -25q49 0 74 14q29 16 29 54t-30 53q-26 13 -81 13q-24 0 -80 -7q-35 -3 -34 25l13 173h261v-55
h-195l-6 -86q30 5 66 5z" />
    <glyph glyph-name="uni2156" unicode="&#x2156;" horiz-adv-x="1019" 
d="M305 0h-85l520 700h81zM74 283v82q0 70 82 102l79 31q36 15 50 26q19 16 19 40t-23 35q-21 10 -66 10q-62 0 -136 -21v60q59 19 140 19t120 -22q42 -24 42 -77q0 -43 -28 -73q-22 -23 -67 -42l-83 -32q-31 -13 -42 -25t-11 -33v-22h227v-58h-303zM783 242q162 0 162 -123
q0 -62 -49 -94q-46 -30 -129 -30q-75 0 -137 19v64q66 -25 136 -25q48 0 73 14q29 16 29 54t-30 53q-25 13 -80 13q-24 0 -80 -7q-35 -3 -34 25l13 173h260v-55h-194l-6 -86q30 5 66 5z" />
    <glyph glyph-name="uni2157" unicode="&#x2157;" horiz-adv-x="1010" 
d="M726 700h82l-517 -700h-85zM210 282q-59 0 -137 21v63q61 -24 137 -24q50 0 74 13q28 15 28 52q0 35 -24 50q-23 14 -75 14h-63v42l116 95h-188v58h274q23 -1 30 -17q6 -16 -13 -34l-122 -99h6q58 -1 93 -24q42 -28 42 -86q0 -60 -46 -92t-132 -32zM759 -5q-75 0 -137 19
v64q64 -25 135 -25q49 0 74 14q29 16 29 54t-30 53q-26 13 -81 13q-24 0 -80 -7q-35 -3 -34 25l14 173h260v-55h-195l-6 -86q30 5 67 5q162 0 162 -123q0 -62 -49 -94q-46 -30 -129 -30z" />
    <glyph glyph-name="uni2158" unicode="&#x2158;" horiz-adv-x="1065" 
d="M778 700h81l-516 -700h-86zM101 353q-24 0 -31 21q-6 20 10 40l207 247h86l-211 -251h152v76h75v-76h40v-57h-40v-70h-75v70h-213zM829 242q162 0 162 -123q0 -62 -49 -94q-46 -30 -129 -30q-75 0 -137 19v64q64 -25 135 -25q49 0 74 14q29 16 29 54t-30 53
q-25 13 -80 13q-25 0 -81 -7q-35 -3 -34 25l14 173h260v-55h-195l-6 -86q30 5 67 5z" />
    <glyph glyph-name="uni2159" unicode="&#x2159;" horiz-adv-x="906" 
d="M213 0h-86l521 700h81zM71 572v61l133 26q19 5 30 -3q12 -8 12 -26v-348h-74v309zM686 245q146 0 146 -123q0 -57 -40 -91q-43 -36 -124 -36q-87 0 -128 47q-37 43 -37 128q0 112 54 163q53 50 173 50q40 0 62 -2v-60q-22 3 -58 3q-72 0 -104 -18q-38 -21 -48 -77
q55 16 104 16zM668 48q48 0 69 19q19 17 19 55q0 35 -19 51t-64 16q-47 0 -94 -14q0 -64 19 -94q21 -33 70 -33z" />
    <glyph glyph-name="uni215A" unicode="&#x215a;" horiz-adv-x="970" 
d="M268 0h-85l520 700h81zM386 406q0 -62 -49 -94q-47 -31 -129 -31q-66 0 -137 19v65q66 -25 136 -25q51 0 74 13q28 16 28 54q0 39 -29 54q-25 13 -81 13q-32 0 -80 -8q-35 -2 -34 26l13 173h261v-55h-195l-6 -87q36 6 66 6q162 0 162 -123zM750 245q146 0 146 -123
q0 -58 -40 -91q-43 -36 -125 -36q-87 0 -128 47q-37 43 -37 128q0 113 54 163t174 50q40 0 62 -2v-60q-22 3 -58 3q-72 0 -104 -18q-38 -21 -48 -77q55 16 104 16zM732 48q48 0 68 19q19 18 19 55q0 36 -18 51q-19 16 -64 16q-47 0 -94 -14q0 -64 19 -94q21 -33 70 -33z" />
    <glyph glyph-name="oneeighth" unicode="&#x215b;" horiz-adv-x="931" 
d="M201 0h-85l520 700h81zM71 572v61l133 26q19 5 30 -3q12 -8 12 -26v-348h-74v309zM781 193q73 -33 73 -91q0 -111 -169 -111q-170 0 -170 110q0 66 71 103q-53 31 -53 85q0 47 40 71q39 24 114 24q155 0 155 -99q0 -49 -61 -92zM687 331q-79 1 -78 -43q0 -20 11 -31
t44 -23l55 -18q47 30 47 67q0 48 -79 48zM686 50q50 0 72 13q20 12 20 40q0 20 -17 33q-12 9 -42 21l-70 23q-57 -28 -57 -74q0 -28 22 -42q23 -14 72 -14z" />
    <glyph glyph-name="threeeighths" unicode="&#x215c;" horiz-adv-x="1003" 
d="M722 700h82l-517 -700h-85zM210 282q-59 0 -137 21v63q61 -24 137 -24q50 0 74 13q28 15 28 52q0 35 -24 50q-23 14 -75 14h-63v42l116 95h-188v58h274q23 -1 30 -17q6 -16 -13 -34l-122 -99h7q58 -1 92 -24q42 -28 42 -86q0 -60 -46 -92t-132 -32zM757 -9
q-170 0 -170 110q0 66 71 103q-53 31 -53 85q0 46 40 71q39 24 113 24q156 0 156 -99q0 -48 -61 -92q73 -34 73 -91q0 -111 -169 -111zM791 216q47 30 47 67q0 48 -80 48q-78 1 -77 -43q0 -20 11 -31t44 -23zM758 50q49 0 71 13q21 13 21 40q0 20 -17 33q-12 9 -43 21
l-69 23q-57 -28 -57 -74q0 -28 22 -42q23 -14 72 -14z" />
    <glyph glyph-name="fiveeighths" unicode="&#x215d;" horiz-adv-x="996" 
d="M277 0h-85l520 700h81zM386 406q0 -62 -49 -94q-47 -31 -129 -31q-66 0 -137 19v65q66 -25 136 -25q51 0 74 13q28 16 28 54q0 39 -29 54q-25 13 -81 13q-32 0 -80 -8q-35 -2 -34 26l13 173h261v-55h-195l-6 -87q36 6 66 6q162 0 162 -123zM846 193q73 -34 73 -91
q0 -111 -169 -111q-170 0 -170 110q0 66 71 103q-53 31 -53 85q0 46 40 71q39 24 113 24q156 0 156 -99q0 -48 -61 -92zM751 331q-78 1 -77 -43q0 -20 11 -31t43 -23l56 -18q47 30 47 67q0 48 -80 48zM751 50q49 0 71 13q21 13 21 40q0 20 -17 33q-12 9 -43 21l-69 23
q-57 -28 -57 -74q0 -28 22 -42q23 -14 72 -14z" />
    <glyph glyph-name="seveneighths" unicode="&#x215e;" horiz-adv-x="950" 
d="M210 0h-85l520 700h81zM296 606h-225v60h268q36 0 44 -18q7 -15 -6 -38l-179 -322h-79zM800 193q73 -34 73 -91q0 -111 -169 -111q-170 0 -170 110q0 66 71 103q-53 31 -53 85q0 46 40 71q39 24 113 24q156 0 156 -99q0 -48 -61 -92zM705 331q-78 0 -78 -43q0 -20 12 -31
t43 -23l56 -18q47 30 47 67q0 48 -80 48zM705 50q49 0 71 13q21 13 21 40q0 20 -17 33q-12 9 -43 21l-69 23q-57 -28 -57 -74q0 -28 22 -42q23 -14 72 -14z" />
    <glyph glyph-name="partialdiff" unicode="&#x2202;" horiz-adv-x="642" 
d="M324 -10q-138 0 -206 64q-62 58 -62 166q0 109 63 164q62 54 179 54q105 0 187 -43q-30 106 -137 171q-70 43 -210 81l22 63q179 -42 280 -123q146 -117 146 -320q0 -127 -51 -194q-64 -83 -211 -83zM322 60q99 0 142 50q40 46 40 148q0 49 -7 75q-82 40 -186 40
q-171 0 -171 -152q0 -77 37 -115q44 -46 145 -46z" />
    <glyph glyph-name="emptyset" unicode="&#x2205;" horiz-adv-x="854" 
d="M707 617q89 -94 89 -272q0 -168 -80 -263q-79 -94 -219 -94h-140q-100 0 -168 49l-30 -37h-92l72 83q-81 93 -81 262q0 168 80 263q79 94 219 94h140q91 0 157 -42l34 40h93zM145 345q0 -124 51 -194l402 445q-46 29 -112 29h-118q-104 0 -161 -65q-62 -71 -62 -215z
M486 65q104 0 161 65q62 71 62 215q0 133 -58 206l-405 -449q48 -37 122 -37h118z" />
    <glyph glyph-name="Delta" unicode="&#x2206;" horiz-adv-x="795" 
d="M18 0l274 625q18 39 40 57q25 20 66 20t66 -20q21 -17 39 -57l274 -625h-759zM431 594q-13 28 -33 28q-21 0 -34 -28l-223 -522h514z" />
    <glyph glyph-name="product" unicode="&#x220f;" horiz-adv-x="833" 
d="M651 0v617h-469v-617h-81v690h631v-690h-81z" />
    <glyph glyph-name="summation" unicode="&#x2211;" horiz-adv-x="687" 
d="M103 0q-32 0 -38 33q-6 32 15 49l299 263l-299 263q-21 17 -15 49q6 33 38 33h516v-70h-449l284 -241q39 -35 0 -68l-284 -241h449v-70h-516z" />
    <glyph glyph-name="minus" unicode="&#x2212;" horiz-adv-x="529" 
d="M473 355v-73h-417v73h417z" />
    <glyph glyph-name="uni2215" unicode="&#x2215;" horiz-adv-x="436" 
d="M434 700l-369 -824h-83l369 824h83z" />
    <glyph glyph-name="uni2219" unicode="&#x2219;" horiz-adv-x="359" 
d="M166 392q14 14 28 0l67 -67q14 -14 0 -28l-67 -69q-14 -14 -28 0l-69 69q-14 14 0 28z" />
    <glyph glyph-name="radical" unicode="&#x221a;" horiz-adv-x="697" 
d="M308 -12q-34 0 -56 18q-18 15 -32 46l-200 448h89l178 -418q7 -16 21 -16t21 16l259 608h89l-281 -638q-14 -31 -31 -46q-22 -18 -57 -18z" />
    <glyph glyph-name="infinity" unicode="&#x221e;" horiz-adv-x="838" 
d="M217 150q-80 0 -120 41q-41 42 -41 131q0 90 41 132q40 41 120 41q99 4 203 -130q103 134 202 130q80 0 119 -41q41 -43 41 -132q0 -88 -41 -131q-40 -41 -119 -41q-99 -5 -202 129q-104 -134 -203 -129zM216 219q65 0 157 103q-92 103 -157 103q-84 0 -84 -103t84 -103z
M623 219q84 0 84 103t-84 103q-64 0 -157 -103q93 -103 157 -103z" />
    <glyph glyph-name="integral" unicode="&#x222b;" horiz-adv-x="532" 
d="M32 -164q84 65 119 118q38 57 52 143l59 360q14 83 50 138q43 65 148 145l45 -55q-91 -70 -123 -116q-33 -46 -46 -125l-60 -355q-16 -88 -47 -142q-46 -80 -156 -167z" />
    <glyph glyph-name="approxequal" unicode="&#x2248;" horiz-adv-x="539" 
d="M372 349q-26 0 -88 16q-65 19 -104 19q-59 0 -124 -28v73q68 27 125 27q43 0 115 -20q54 -15 79 -15q60 0 108 31v-74q-58 -29 -111 -29zM372 195q-26 0 -88 16q-65 19 -104 19q-59 0 -124 -28v74q68 27 125 27q43 0 115 -20q54 -15 79 -15q60 0 108 31v-75
q-58 -29 -111 -29z" />
    <glyph glyph-name="notequal" unicode="&#x2260;" horiz-adv-x="529" 
d="M276 276h197v-73h-221l-72 -203h-69l71 203h-126v73h151l32 89h-183v73h208l62 178h69l-62 -178h140v-73h-166z" />
    <glyph glyph-name="lessequal" unicode="&#x2264;" horiz-adv-x="547" 
d="M56 344l435 155v-75l-351 -114l351 -115v-75l-435 155v69zM57 65h434v-65h-434v65z" />
    <glyph glyph-name="greaterequal" unicode="&#x2265;" horiz-adv-x="547" 
d="M408 310l-351 114v75l434 -155v-69l-434 -155v75zM491 65v-65h-435v65h435z" />
    <glyph glyph-name="lozenge" unicode="&#x25ca;" horiz-adv-x="735" 
d="M319 700h98l261 -351l-261 -349h-98l-261 349zM368 634l-214 -285l214 -283l213 283z" />
    <glyph glyph-name="glyph144" horiz-adv-x="51" vert-adv-y="0" 
 />
    <glyph glyph-name="glyph199" horiz-adv-x="221" vert-adv-y="0" 
 />
    <glyph glyph-name="glyph289" horiz-adv-x="283" 
d="M127 897q15 14 30 0l38 -38q14 -15 0 -30l-38 -38q-15 -15 -30 0l-38 38q-13 15 0 30zM182 690v-690h-81v690h81z" />
    <glyph glyph-name="glyph290" horiz-adv-x="259" 
d="M115 728q14 14 28 0l44 -44q14 -14 0 -28l-44 -42q-14 -14 -28 0l-44 42q-13 13 0 28zM170 500v-500h-81v500h81z" />
    <glyph glyph-name="glyph304" horiz-adv-x="258" 
d="M114 707q15 13 30 0l38 -38q14 -15 0 -30l-38 -38q-15 -15 -30 0l-38 38q-13 15 0 30zM170 500v-500h-82v500h82z" />
    <glyph glyph-name="glyph305" horiz-adv-x="670" 
d="M563 512q19 0 19 -20v-484q0 -20 -18 -20q-12 0 -29 18l-32 33q-90 -50 -196 -51q-120 0 -183 62q-68 66 -68 201t74 201q67 60 189 60q96 0 186 -47l29 30q17 17 29 17zM502 405q-25 12 -70 22q-55 12 -106 12q-91 0 -135 -42q-49 -46 -49 -147q0 -100 46 -146
q44 -44 133 -44q90 0 181 36v309z" />
    <glyph glyph-name="glyph306" horiz-adv-x="750" 
d="M376 -12q-169 0 -247 96q-71 87 -71 261q0 175 71 262q77 95 247 95q169 0 246 -95q71 -87 71 -262q0 -173 -71 -261q-78 -96 -246 -96zM376 65q125 0 179 71q50 66 50 209q0 144 -50 210q-53 70 -179 70t-180 -70q-50 -65 -50 -210q0 -143 50 -209q54 -71 180 -71z" />
    <glyph glyph-name="glyph307" horiz-adv-x="750" 
d="M622 0h-465v77h206v536l-196 -51v75l211 58q28 7 41 7q28 0 28 -34v-591h175v-77z" />
    <glyph glyph-name="glyph308" horiz-adv-x="750" 
d="M89 108q0 97 31 145q37 57 139 89l167 49q78 25 106 46q41 30 41 83q0 59 -45 82q-44 23 -154 23q-146 0 -264 -29v76q115 30 273 30q141 0 206 -39q71 -43 71 -141q0 -80 -52 -127q-42 -38 -143 -69l-171 -51q-71 -23 -96 -59q-23 -33 -23 -101v-38h465v-77h-551v108z
" />
    <glyph glyph-name="glyph309" horiz-adv-x="750" 
d="M340 -12q-152 0 -262 31v78q122 -32 260 -32q125 0 180 32q57 33 57 110q0 67 -41 96t-136 29h-143v62l259 220h-421v76h503q40 0 40 -35q0 -25 -25 -47l-242 -206h56q238 -7 238 -194q0 -220 -323 -220z" />
    <glyph glyph-name="glyph310" horiz-adv-x="750" 
d="M535 0v180h-430q-47 2 -47 42q0 23 26 59l330 409h105l-355 -433h371v212h81v-212h65v-77h-65v-180h-81z" />
    <glyph glyph-name="glyph311" horiz-adv-x="750" 
d="M330 -12q-133 0 -243 25v78q113 -26 245 -26q130 0 184 29q59 32 59 112q0 78 -48 109q-47 31 -163 31q-95 0 -215 -14q-33 -4 -45 8t-8 41l37 309h482v-77h-413l-26 -207q122 15 208 15q134 0 202 -46q77 -52 77 -167q0 -124 -96 -177q-79 -43 -237 -43z" />
    <glyph glyph-name="glyph312" horiz-adv-x="750" 
d="M398 428q134 0 202 -50q72 -53 72 -164q0 -110 -73 -168t-214 -58q-166 0 -240 77q-78 82 -78 270q0 196 98 285q91 82 280 82q112 0 177 -18v-77q-80 18 -179 18q-143 0 -209 -50q-70 -53 -81 -181q117 34 245 34zM383 64q104 0 154 37q49 36 49 112q0 75 -45 107
q-46 33 -151 33q-121 0 -239 -30q3 -146 57 -204q51 -55 175 -55z" />
    <glyph glyph-name="glyph313" horiz-adv-x="750" 
d="M68 613v77h567q30 0 44 -13q13 -12 13 -34q0 -24 -19 -53l-374 -590h-99l396 613h-528z" />
    <glyph glyph-name="glyph324" horiz-adv-x="750" 
d="M576 354q115 -47 115 -161q0 -205 -317 -205q-315 0 -315 200q0 59 37 109q31 42 83 71q-101 48 -101 150q0 87 73 134q78 50 231 50q149 0 224 -50q71 -48 71 -138q0 -95 -101 -160zM380 626q-112 0 -165 -27q-50 -26 -50 -79q0 -48 43 -77q35 -23 101 -37l191 -29
q90 55 90 135q1 57 -49 85q-49 29 -161 29zM375 64q231 -3 230 129q0 92 -155 120l-193 29q-111 -58 -111 -149q0 -65 53 -96q56 -33 176 -33z" />
    <glyph glyph-name="glyph325" horiz-adv-x="750" 
d="M355 702q160 2 239 -76q79 -79 79 -271q0 -196 -98 -285q-91 -82 -280 -82q-112 0 -177 18v77q77 -18 179 -18q143 0 209 50q70 53 80 181q-115 -34 -244 -34q-135 0 -203 50q-71 53 -71 164q0 110 73 168t214 58zM154 477q0 -76 45 -108t151 -32q121 0 239 30
q-3 146 -57 204q-51 55 -175 55q-104 0 -154 -37q-49 -36 -49 -112z" />
    <glyph glyph-name="glyph326" horiz-adv-x="425" 
d="M212 -6q-89 0 -129 50q-41 51 -41 166q0 112 40 164t130 52t130 -52t40 -164q0 -115 -41 -166q-40 -50 -129 -50zM212 62q51 0 72 32q21 33 21 116t-21 116q-21 32 -72 32q-50 0 -71 -32q-22 -34 -22 -116t22 -116q21 -32 71 -32z" />
    <glyph glyph-name="glyph327" horiz-adv-x="258" 
d="M25 320v67l132 29q41 8 42 -32v-384h-74v341z" />
    <glyph glyph-name="glyph328" horiz-adv-x="400" 
d="M49 91q-4 76 81 114l79 34q38 17 51 29q18 17 18 45q0 27 -22 38q-21 11 -67 11q-66 0 -135 -23v67q45 17 140 21q79 0 119 -25q42 -27 42 -85q0 -49 -27 -81q-22 -27 -68 -47l-83 -36q-30 -14 -41 -27q-11 -14 -11 -38v-23h227v-65h-303v91z" />
    <glyph glyph-name="glyph329" horiz-adv-x="385" 
d="M169 -6q-63 0 -138 23v69q66 -26 138 -26q49 0 74 15q28 17 28 57q0 39 -24 56q-23 16 -76 16h-62v47l115 105h-188v64h274q24 0 30 -19q7 -20 -13 -37l-121 -110h3q59 -1 95 -27q43 -31 43 -95q0 -68 -46 -103t-132 -35z" />
    <glyph glyph-name="glyph330" horiz-adv-x="424" 
d="M44 78q-24 0 -31 23t9 44l207 275h86l-210 -279h152v104h74v-104h43v-63h-43v-78h-74v78h-213z" />
    <glyph glyph-name="glyph331" horiz-adv-x="383" 
d="M189 269q162 0 162 -137q0 -68 -49 -104q-46 -34 -128 -34q-69 0 -137 21v72q63 -27 135 -27q33 0 57 7q43 12 45 67q0 42 -29 59q-26 15 -81 15q-26 0 -80 -9q-35 -3 -34 29l13 192h261v-62h-195l-6 -95q36 6 66 6z" />
    <glyph glyph-name="glyph332" horiz-adv-x="411" 
d="M206 -6q-88 0 -128 52q-37 48 -37 143q-1 125 54 181q54 57 173 56q29 0 62 -3v-66q-22 3 -58 3q-72 0 -104 -20q-38 -24 -48 -86q54 18 104 18q146 0 146 -136q0 -65 -40 -102q-43 -40 -124 -40zM206 54q48 0 69 21q19 19 19 60q0 39 -19 57t-64 18q-54 0 -94 -16
q0 -70 19 -103q21 -37 70 -37z" />
    <glyph glyph-name="glyph333" horiz-adv-x="352" 
d="M15 354v66h268q36 0 44 -20q7 -17 -6 -42l-179 -358h-79l177 354h-225z" />
    <glyph glyph-name="glyph334" horiz-adv-x="421" 
d="M305 214q74 -37 74 -101q0 -123 -170 -123t-170 123q0 72 71 113q-53 34 -53 95q0 52 40 79q39 27 114 27q156 0 156 -111q0 -52 -62 -102zM211 368q-78 0 -78 -48q0 -23 11 -35t44 -25l55 -20q47 33 47 74q0 27 -17 40q-19 14 -62 14zM210 55q50 0 72 14q21 15 20 45
q0 22 -17 37q-12 10 -42 24l-70 25q-57 -32 -57 -83q0 -32 22 -47t72 -15z" />
    <glyph glyph-name="glyph335" horiz-adv-x="411" 
d="M143 -6q-29 0 -62 3v66q22 -3 58 -3q72 0 104 20q38 24 48 86q-54 -18 -104 -18q-146 0 -146 136q0 65 40 102q43 40 124 40q88 0 128 -52q37 -48 37 -143q0 -127 -53 -182t-174 -55zM200 210q54 0 94 16q0 70 -19 103q-21 37 -70 37q-48 0 -69 -21q-19 -19 -19 -60
q0 -39 19 -57t64 -18z" />
    <glyph glyph-name="glyph336" horiz-adv-x="425" 
d="M212 256q-89 0 -129 50q-41 51 -41 166q0 112 40 164t130 52t130 -52t40 -164q0 -115 -41 -166q-40 -50 -129 -50zM212 324q51 0 72 32q21 33 21 116t-21 116q-21 32 -72 32q-50 0 -71 -32q-22 -34 -22 -116t22 -116q21 -32 71 -32z" />
    <glyph glyph-name="glyph337" horiz-adv-x="258" 
d="M25 582v67l132 29q41 8 42 -32v-384h-74v341z" />
    <glyph glyph-name="glyph338" horiz-adv-x="400" 
d="M49 353q-4 76 81 114l79 34q38 17 51 29q18 17 18 45q0 27 -22 38q-21 11 -67 11q-66 0 -135 -23v67q45 17 140 21q79 0 119 -25q42 -27 42 -85q0 -49 -27 -81q-22 -27 -68 -47l-83 -36q-30 -14 -41 -27q-11 -14 -11 -38v-23h227v-65h-303v91z" />
    <glyph glyph-name="glyph339" horiz-adv-x="385" 
d="M169 256q-63 0 -138 23v69q66 -26 138 -26q49 0 74 15q28 17 28 57q0 39 -24 56q-23 16 -76 16h-62v47l115 105h-188v64h274q24 0 30 -19q7 -20 -13 -37l-121 -110h3q59 -1 95 -27q43 -31 43 -95q0 -68 -46 -103t-132 -35z" />
    <glyph glyph-name="glyph340" horiz-adv-x="424" 
d="M44 340q-24 0 -31 23t9 44l207 275h86l-210 -279h152v104h74v-104h43v-63h-43v-78h-74v78h-213z" />
    <glyph glyph-name="glyph341" horiz-adv-x="383" 
d="M189 531q162 0 162 -137q0 -68 -49 -104q-46 -34 -128 -34q-69 0 -137 21v72q63 -27 135 -27q33 0 57 7q43 12 45 67q0 42 -29 59q-26 15 -81 15q-26 0 -80 -9q-35 -3 -34 29l13 192h261v-62h-195l-6 -95q36 6 66 6z" />
    <glyph glyph-name="glyph342" horiz-adv-x="411" 
d="M206 256q-88 0 -128 52q-37 48 -37 143q-1 125 54 181q54 57 173 56q29 0 62 -3v-66q-22 3 -58 3q-72 0 -104 -20q-38 -24 -48 -86q54 18 104 18q146 0 146 -136q0 -65 -40 -102q-43 -40 -124 -40zM206 316q48 0 69 21q19 19 19 60q0 39 -19 57t-64 18q-54 0 -94 -16
q0 -70 19 -103q21 -37 70 -37z" />
    <glyph glyph-name="glyph343" horiz-adv-x="352" 
d="M15 617v66h268q36 0 44 -20q7 -17 -6 -42l-179 -358h-79l177 354h-225z" />
    <glyph glyph-name="glyph385" horiz-adv-x="421" 
d="M305 476q74 -37 74 -101q0 -123 -170 -123t-170 123q0 72 71 113q-53 34 -53 95q0 52 40 79q39 27 114 27q156 0 156 -111q0 -52 -62 -102zM211 630q-78 0 -78 -48q0 -23 11 -35t44 -25l55 -20q47 33 47 74q0 27 -17 40q-19 14 -62 14zM210 317q50 0 72 14q21 15 20 45
q0 22 -17 37q-12 10 -42 24l-70 25q-57 -32 -57 -83q0 -32 22 -47t72 -15z" />
    <glyph glyph-name="glyph386" horiz-adv-x="411" 
d="M143 256q-29 0 -62 3v66q22 -3 58 -3q72 0 104 20q38 24 48 86q-54 -18 -104 -18q-146 0 -146 136q0 65 40 102q43 40 124 40q88 0 128 -52q37 -48 37 -143q0 -127 -53 -182t-174 -55zM200 472q54 0 94 16q0 70 -19 103q-21 37 -70 37q-48 0 -69 -21q-19 -19 -19 -60
q0 -39 19 -57t64 -18z" />
    <glyph glyph-name="glyph387" horiz-adv-x="319" 
d="M104 39q-7 7 -7 14q0 5 7 14l41 42q7 7 14 7t14 -7l43 -42q7 -7 7 -14t-7 -14l-43 -42q-9 -7 -14 -7q-7 0 -14 7z" />
    <glyph glyph-name="glyph388" horiz-adv-x="319" 
d="M154 -167q-3 -12 -15 -18q-11 -6 -23 -4q-21 2 -21 22l29 269h93z" />
    <glyph glyph-name="space.1" horiz-adv-x="583" vert-adv-y="0" 
 />
    </font>
</defs>
</svg>
