<?xml version="1.0" encoding="utf-8"?>
<!-- Generator: Adobe Illustrator 26.3.1, SVG Export Plug-In . SVG Version: 6.00 Build 0)  -->
<svg version="1.1" id="圖層_1" xmlns="http://www.w3.org/2000/svg" xmlns:xlink="http://www.w3.org/1999/xlink" x="0px" y="0px"
	 viewBox="0 0 1382.5 234.1" style="enable-background:new 0 0 1382.5 234.1;" xml:space="preserve">
<style type="text/css">
	.st0{fill:#FFFFFF;}
</style>
<g>
	<g>
		<g>
			<path class="st0" d="M638.6,195.4c-36.8,0.3-71.8,0.5-81.5-0.3c-19.7-1.7-32.9-14.6-34.4-33.5c-1-12.4-1-22.7-0.1-32.6
				c1.8-18.4,17.2-36,34.4-36.9c6.2-0.3,22.7-0.3,52.5-0.2l86.9,0.2v-36c0,0-69.2-0.1-90-0.2c-28-0.1-42-0.1-50.9,0.2
				c-19.6,0.7-36,7.7-48.8,20.7c-12.1,12.2-19.3,31.7-20.4,51.4c-0.6,10.6-0.8,24.5,0,32.8c2,21.2,8.9,37.8,20.4,49.5
				c12.3,12.5,31,20.4,48.8,20.7c14.6,0.2,140.9,0,140.9,0v-36C696.5,195.1,658.2,195.3,638.6,195.4"/>
			<polygon class="st0" points="245.2,56.2 245.2,92.6 331.9,92.6 331.9,230.5 368.4,230.5 368.4,92.6 455.1,92.6 455.1,56.2 			"/>
			<path class="st0" d="M208.7,126.1c-0.3-19.4-7.1-36-20.4-49.5c-13.8-14.1-35-19.9-48.8-20.7c-12-0.7-59.4-0.5-70.5,0
				c-15.7,0.7-27.1,5.3-32.8,9.6c-0.1,0-0.1,0-0.1-0.1V0H0v231.1h36.2c0,0-0.7-94.6,0.1-104.9c1.5-18.3,15.3-32.7,33-34.2
				c14.2-1.2,56.9-0.9,70.2,0c18.4,1.2,31.9,15.6,33,34.9c0.3,7.1,0,104.2,0,104.2h36.2C208.7,231.1,208.8,134.5,208.7,126.1"/>
		</g>
	</g>
	<g>
		<g>
			<path class="st0" d="M873.5,56h18.4l79.2,175.1H950l-20.4-46H835l-20.6,46h-20.1L873.5,56z M922,167.5l-39.5-88.7l-39.7,88.7H922
				z"/>
			<path class="st0" d="M1025.3,76.4l-32.8,10.2l-4.7-15.9l42.5-14.6h14.6v175.1h-19.6V76.4z"/>
			<path class="st0" d="M1158.4,234.1c-11.3,0-21.4-2.4-30.4-7.1c-9-4.7-16.7-11.2-23.1-19.4s-11.3-17.7-14.7-28.6
				s-5.1-22.3-5.1-34.4v-0.5c0-12.3,1.7-23.8,5.2-34.7c3.5-10.8,8.4-20.4,14.9-28.6s14.2-14.7,23.3-19.5c9.1-4.8,19.2-7.2,30.3-7.2
				c11.3,0,21.4,2.4,30.3,7.1s16.6,11.2,23,19.4s11.3,17.7,14.7,28.4c3.4,10.8,5.1,22.3,5.1,34.5v0.5c0,12.1-1.7,23.6-5.2,34.5
				s-8.4,20.5-14.8,28.7s-14.1,14.7-23.1,19.5C1179.8,231.7,1169.7,234.1,1158.4,234.1z M1158.9,215.9c8.1,0,15.4-1.9,22-5.8
				c6.5-3.9,12.1-9.1,16.6-15.6s8-14.1,10.4-22.8s3.6-17.7,3.6-27.1v-0.5c0-9.4-1.2-18.4-3.7-27.1s-6-16.3-10.7-22.9
				c-4.6-6.6-10.2-11.9-16.8-15.8c-6.5-4-13.9-5.9-22-5.9s-15.4,1.9-22,5.8c-6.5,3.9-12.1,9.1-16.6,15.6
				c-4.6,6.5-8.1,14.1-10.5,22.7c-2.5,8.6-3.7,17.7-3.7,27.2v0.5c0,9.4,1.2,18.4,3.7,27.1c2.5,8.7,6,16.3,10.7,22.9
				c4.6,6.6,10.3,11.9,16.9,15.8C1143.4,214,1150.8,215.9,1158.9,215.9z"/>
			<path class="st0" d="M1324.6,234.1c-14.6,0-27.2-2.9-38-8.7s-19.7-13.3-26.8-22.6l14.2-12.7c6.8,8.3,14.3,14.7,22.5,19.1
				c8.2,4.5,17.7,6.7,28.4,6.7c5.3,0,10.3-0.8,14.9-2.3c4.6-1.6,8.7-3.8,12-6.8c3.4-3,6.1-6.5,8.1-10.6s3-8.7,3-13.9v-0.5
				c0-5.4-1.2-10.2-3.6-14.3s-5.8-7.6-10.1-10.4c-4.3-2.8-9.4-5-15.4-6.4c-6-1.5-12.5-2.2-19.6-2.2H1303l-4-11.7l54.9-61.9H1269
				V57.2h110.8v14.4l-54.4,60.6c7.6,0.7,14.9,2.1,21.7,4.2c6.9,2.2,12.9,5.2,18.2,9.2c5.3,4,9.4,8.9,12.5,14.8
				c3.1,5.9,4.7,12.8,4.7,20.7v0.5c0,7.8-1.5,14.9-4.5,21.4s-7.1,12-12.3,16.5c-5.2,4.6-11.3,8.1-18.3,10.7
				C1340.3,232.8,1332.7,234.1,1324.6,234.1z"/>
		</g>
	</g>
</g>
</svg>
