<svg width="215" height="80" viewBox="0 0 215 80" fill="none" xmlns="http://www.w3.org/2000/svg">
<g id="Frame" clip-path="url(#clip0_339_10138)">
<g id="Group">
<g id="Group_2">
<g id="Group_3">
<g id="Group_4">
<path id="Vector" d="M117.722 0L114.998 12.6444L113.715 18.4486H105.6L106.763 13.1914H92.1682L87.188 36.2951H99.1715L97.1064 45.8706H85.1228C74.7067 45.8706 72.6351 39.7685 74.642 30.4682C75.8831 24.7028 78.4847 12.6444 78.4847 12.6444L81.2059 0H117.722Z" fill="#F3F3F3"/>
<path id="Vector_2" d="M111.986 27.422L110.819 32.6792H125.414L130.394 9.57553H118.414L120.479 0H132.463C142.882 0 144.95 6.10205 142.943 15.4024C141.699 21.1678 139.101 33.2262 139.101 33.2262L136.376 45.8706H122.573H115.085H99.8633L102.588 33.2262L103.871 27.422H111.986Z" fill="#F3F3F3"/>
</g>
<g id="Group_5">
<path id="Vector_3" d="M0 79.6245V63.251H3.50329V69.6347H8.48029V63.251H11.9868V79.6245H8.48029V73.1696H3.50329V79.6245H0Z" fill="#F3F3F3"/>
<path id="Vector_4" d="M19.8888 74.9692C19.8888 75.717 20.2767 76.0925 21.0555 76.0925H23.2047C23.6248 76.0925 23.9254 76.0278 24.1031 75.8918C24.2809 75.7591 24.3714 75.4904 24.3714 75.0857V67.9025C24.3714 67.4816 24.2841 67.1903 24.1128 67.0252C23.9415 66.8633 23.6313 66.7792 23.1918 66.7792H21.02C20.5805 66.7792 20.2799 66.8569 20.1248 67.0123C19.9664 67.1676 19.8888 67.4655 19.8888 67.8992V74.9692ZM16.3856 66.7824C16.3856 66.517 16.4179 66.2289 16.4793 65.9181C16.6829 64.9534 17.0869 64.2574 17.6912 63.8366C18.2503 63.4481 19.0421 63.2539 20.0698 63.2539H24.2195C26.6595 63.2539 27.8779 64.4322 27.8779 66.7857V76.0957C27.8779 78.4492 26.6498 79.6275 24.1872 79.6275H20.0504C18.9742 79.6275 18.1728 79.4494 17.6427 79.0869C17.0513 78.6628 16.6603 77.9474 16.476 76.9439C16.4146 76.6007 16.3823 76.3159 16.3823 76.099V66.7824H16.3856Z" fill="#F3F3F3"/>
<path id="Vector_5" d="M40.0295 72.7488L38.3684 67.4593L37.1532 72.7488H40.0295ZM31.3101 79.6246L35.8411 65.2872C36.3097 63.8369 37.2275 63.1118 38.5978 63.1118C39.9681 63.1118 40.8859 63.8434 41.3546 65.3098L45.8629 79.6278H42.1884L41.0798 76.0961H36.1028L35.0105 79.6278H31.3101V79.6246Z" fill="#F3F3F3"/>
<path id="Vector_6" d="M49.6538 79.6243V66.5009C49.6538 65.5491 49.893 64.7528 50.3777 64.1151C50.9078 63.4126 51.6317 63.063 52.5495 63.063C52.9373 63.063 53.3284 63.131 53.7162 63.2734C54.6664 63.6165 55.3127 64.4453 55.6553 65.7531L58.1309 75.2282V63.2507H61.4726V76.795C61.4726 77.6367 61.2043 78.3521 60.6678 78.9348C60.1314 79.5175 59.4495 79.8283 58.6253 79.8574C57.0708 79.9059 56.0367 78.9769 55.5228 77.0734L53.0149 67.6662V79.6275H49.6538V79.6243Z" fill="#F3F3F3"/>
<path id="Vector_7" d="M65.8643 74.9951V67.3004C65.8643 65.8048 66.1648 64.7527 66.7627 64.1538C67.3638 63.5517 68.4012 63.2539 69.8814 63.2539H76.5163V66.7857H70.0204C69.6455 66.831 69.429 67.0576 69.3675 67.4655V75.4192C69.4613 75.7753 69.7101 76.0051 70.1141 76.0957H72.9193C73.6045 76.0957 73.9761 75.8529 74.0408 75.3706V70.2235H77.5441V75.4645C77.5441 76.5101 77.4406 77.2482 77.2403 77.6852C76.6327 78.98 75.5339 79.6275 73.947 79.6275H69.904C67.5222 79.6275 66.1971 78.7081 65.9321 76.8694C65.8869 76.5522 65.8643 75.9306 65.8643 74.9951Z" fill="#F3F3F3"/>
<path id="Vector_8" d="M88.0801 79.6245V63.251H91.5834V69.6347H96.5604V63.251H100.067V79.6245H96.5604V73.1696H91.5834V79.6245H88.0801Z" fill="#F3F3F3"/>
<path id="Vector_9" d="M112.574 72.7488L110.913 67.4593L109.698 72.7488H112.574ZM103.854 79.6246L108.385 65.2872C108.854 63.8369 109.772 63.1118 111.142 63.1118C112.513 63.1118 113.43 63.8434 113.899 65.3098L118.407 79.6278H114.733L113.621 76.0961H108.644L107.552 79.6278H103.854V79.6246Z" fill="#F3F3F3"/>
<path id="Vector_10" d="M128.946 79.6245V66.1288C128.946 65.2094 129.227 64.4649 129.787 63.8951C130.349 63.3254 131.089 63.0405 132.007 63.0405C132.317 63.0405 132.631 63.0729 132.941 63.1344C134.062 63.3707 134.747 64.0538 134.996 65.1932L137.052 74.6522L139.324 65.1932C139.602 64.0538 140.28 63.3707 141.353 63.1344C141.651 63.0729 141.967 63.0405 142.31 63.0405C143.228 63.0405 143.968 63.3254 144.527 63.8951C145.086 64.4649 145.367 65.2094 145.367 66.1288V79.6245H142.025V67.906L139.479 77.7793C139.401 78.1063 139.275 78.4429 139.104 78.7861C138.716 79.5986 138.06 80.0033 137.142 80.0033C135.959 80.0033 135.177 79.2619 134.806 77.7793L132.304 67.906V79.6245H128.946Z" fill="#F3F3F3"/>
<path id="Vector_11" d="M153.25 74.9692C153.25 75.717 153.638 76.0925 154.416 76.0925H156.566C156.986 76.0925 157.286 76.0278 157.464 75.8918C157.642 75.7591 157.732 75.4904 157.732 75.0857V67.9025C157.732 67.4816 157.645 67.1903 157.474 67.0252C157.299 66.8633 156.992 66.7792 156.553 66.7792H154.381C153.941 66.7792 153.641 66.8569 153.486 67.0123C153.327 67.1676 153.25 67.4655 153.25 67.8992V74.9692ZM149.746 66.7824C149.746 66.517 149.779 66.2289 149.84 65.9181C150.044 64.9534 150.444 64.2574 151.052 63.8366C151.611 63.4481 152.403 63.2539 153.431 63.2539H157.58C160.02 63.2539 161.239 64.4322 161.239 66.7857V76.0957C161.239 78.4492 160.007 79.6275 157.548 79.6275H153.411C152.338 79.6275 151.534 79.4494 151.004 79.0869C150.412 78.6628 150.024 77.9474 149.837 76.9439C149.775 76.6007 149.743 76.3159 149.743 76.099V66.7824H149.746Z" fill="#F3F3F3"/>
<path id="Vector_12" d="M169.134 76.0928H173.012C173.542 76.0281 173.807 75.727 173.807 75.1799V74.1278C173.807 73.5808 173.52 73.2603 172.944 73.1696H169.134C169.166 75.1055 169.166 76.0766 169.134 76.0928ZM169.134 69.6347H172.999C173.539 69.6347 173.807 69.3401 173.807 68.7477V67.6729C173.807 67.4399 173.73 67.2327 173.578 67.0514C173.423 66.8734 173.232 66.7827 172.999 66.7827H169.134V69.6347ZM165.631 63.251H174.098C175.304 63.251 176.192 63.6168 176.774 64.3516C177.165 64.8501 177.362 65.7145 177.362 66.9478V68.2815C177.362 69.858 176.878 70.8939 175.915 71.3924C176.726 71.7647 177.191 72.5319 177.317 73.6844C177.346 73.966 177.362 74.1764 177.362 74.3156V75.9536C177.362 76.1705 177.346 76.4036 177.317 76.6528C177.068 78.634 175.937 79.6245 173.93 79.6245H165.631V63.251Z" fill="#F3F3F3"/>
<path id="Vector_13" d="M185.232 63.251H181.729V79.6245H185.232V63.251Z" fill="#F3F3F3"/>
<path id="Vector_14" d="M189.649 75.6263V63.2539H193.156V75.3479C193.156 75.8465 193.453 76.0957 194.041 76.0957H200.279L200.256 79.6275H193.738C193.505 79.6275 193.301 79.621 193.13 79.6048C191.87 79.4948 190.974 79.1257 190.444 78.4945C189.914 77.86 189.649 76.905 189.649 75.6263Z" fill="#F3F3F3"/>
<path id="Vector_15" d="M204.325 76.2029V66.7827C204.325 66.5982 204.348 66.3554 204.393 66.0608C204.687 64.1865 205.805 63.251 207.735 63.251H215V66.7827H208.646C208.601 66.7827 208.53 66.8054 208.436 66.8539C208.029 66.9802 207.828 67.2974 207.828 67.8121V69.6347H215V73.1664H207.828V74.9922C207.828 75.6623 208.132 76.0281 208.74 76.0928H215.003V79.6245H208.229C205.621 79.6245 204.325 78.4851 204.325 76.2029Z" fill="#F3F3F3"/>
<path id="Vector_16" d="M40.7142 61.3733L35.9893 60.1399C35.734 60.072 35.5821 59.813 35.65 59.5572L36.0636 57.9743C36.1315 57.7185 36.3901 57.5664 36.6454 57.6344L41.3703 58.8677C41.6256 58.9357 41.7775 59.1947 41.7096 59.4504L41.296 61.0334C41.2313 61.2859 40.9695 61.4413 40.7142 61.3733Z" fill="#F3F3F3"/>
<path id="Vector_17" d="M113.169 61.3733L108.444 60.1399C108.189 60.072 108.037 59.813 108.105 59.5572L108.518 57.9743C108.586 57.7185 108.845 57.5664 109.1 57.6344L113.825 58.8677C114.08 58.9357 114.232 59.1947 114.164 59.4504L113.751 61.0334C113.683 61.2859 113.424 61.4413 113.169 61.3733Z" fill="#F3F3F3"/>
</g>
</g>
</g>
</g>
</g>
<defs>
<clipPath id="clip0_339_10138">
<rect width="215" height="80" fill="white"/>
</clipPath>
</defs>
</svg>
